{
  "accessors": [
    {
      "bufferView": 2,
      "componentType": 5126,
      "count": 548,
      "max": [
        4.1500020027160645,
        -0.02500000037252903,
        0.22499899566173553
      ],
      "min": [
        -4.1500020027160645,
        -5.424999237060547,
        -0.0
      ],
      "type": "VEC3"
    },
    {
      "bufferView": 2,
      "byteOffset": 6576,
      "componentType": 5126,
      "count": 548,
      "max": [
        1.0,
        1.0,
        1.0
      ],
      "min": [
        -1.0,
        -1.0,
        -1.0
      ],
      "type": "VEC3"
    },
    {
      "bufferView": 3,
      "componentType": 5126,
      "count": 548,
      "max": [
        1.0,
        1.0,
        1.0,
        1.0
      ],
      "min": [
        -0.998242199420929,
        -1.0,
        -1.0,
        1.0
      ],
      "type": "VEC4"
    },
    {
      "bufferView": 1,
      "componentType": 5126,
      "count": 548,
      "max": [
        0.5209959745407104,
        0.7929689884185791
      ],
      "min": [
        0.00024399999529123306,
        0.16821299493312836
      ],
      "type": "VEC2"
    },
    {
      "bufferView": 0,
      "componentType": 5125,
      "count": 2592,
      "type": "SCALAR"
    },
    {
      "bufferView": 2,
      "byteOffset": 13152,
      "componentType": 5126,
      "count": 232,
      "max": [
        3.8499979972839355,
        0.016793999820947647,
        0.19986100494861603
      ],
      "min": [
        -3.8499979972839355,
        -0.22304299473762512,
        -0.02014699950814247
      ],
      "type": "VEC3"
    },
    {
      "bufferView": 2,
      "byteOffset": 15936,
      "componentType": 5126,
      "count": 232,
      "max": [
        1.0,
        0.9820061326026917,
        0.9982532262802124
      ],
      "min": [
        -1.0,
        -0.9820061326026917,
        -0.9820061326026917
      ],
      "type": "VEC3"
    },
    {
      "bufferView": 1,
      "byteOffset": 4384,
      "componentType": 5126,
      "count": 232,
      "max": [
        0.5217289924621582,
        0.6420900225639343
      ],
      "min": [
        0.48364299535751343,
        0.5500490069389343
      ],
      "type": "VEC2"
    },
    {
      "bufferView": 0,
      "byteOffset": 10368,
      "componentType": 5125,
      "count": 1056,
      "type": "SCALAR"
    },
    {
      "bufferView": 2,
      "byteOffset": 18720,
      "componentType": 5126,
      "count": 189,
      "max": [
        4.1500020027160645,
        1.0875639915466309,
        5.282688140869141
      ],
      "min": [
        -4.1500020027160645,
        -0.020975999534130096,
        -0.029589999467134476
      ],
      "type": "VEC3"
    },
    {
      "bufferView": 2,
      "byteOffset": 20988,
      "componentType": 5126,
      "count": 189,
      "max": [
        0.980787992477417,
        0.9999798536300659,
        0.9262999892234802
      ],
      "min": [
        -0.980787992477417,
        -0.9820061326026917,
        -0.9999798536300659
      ],
      "type": "VEC3"
    },
    {
      "bufferView": 3,
      "byteOffset": 8768,
      "componentType": 5126,
      "count": 189,
      "max": [
        1.0,
        0.9682223796844482,
        0.9773769974708557,
        1.0
      ],
      "min": [
        -0.9797816276550293,
        -0.968222439289093,
        -0.9773770570755005,
        1.0
      ],
      "type": "VEC4"
    },
    {
      "bufferView": 1,
      "byteOffset": 6240,
      "componentType": 5126,
      "count": 189,
      "max": [
        0.9997559785842896,
        0.7893069982528687
      ],
      "min": [
        0.5151370167732239,
        0.16821299493312836
      ],
      "type": "VEC2"
    },
    {
      "bufferView": 0,
      "byteOffset": 14592,
      "componentType": 5125,
      "count": 852,
      "type": "SCALAR"
    }
  ],
  "asset": {
    "extras": {
      "author": "VISIONNEW (https://sketchfab.com/VISIONNEW)",
      "license": "CC-BY-4.0 (http://creativecommons.org/licenses/by/4.0/)",
      "source": "https://sketchfab.com/3d-models/laptop-dc3daa4c867a4582b6aaeeb484ca7bf4",
      "title": "LAPTOP"
    },
    "generator": "Sketchfab-12.66.0",
    "version": "2.0"
  },
  "bufferViews": [
    {
      "buffer": 0,
      "byteLength": 18000,
      "name": "floatBufferViews",
      "target": 34963
    },
    {
      "buffer": 0,
      "byteLength": 7752,
      "byteOffset": 18000,
      "byteStride": 8,
      "name": "floatBufferViews",
      "target": 34962
    },
    {
      "buffer": 0,
      "byteLength": 23256,
      "byteOffset": 25752,
      "byteStride": 12,
      "name": "floatBufferViews",
      "target": 34962
    },
    {
      "buffer": 0,
      "byteLength": 11792,
      "byteOffset": 49008,
      "byteStride": 16,
      "name": "floatBufferViews",
      "target": 34962
    }
  ],
  "buffers": [
    {
      "byteLength": 60800,
      "uri": "scene.bin"
    }
  ],
  "images": [
    {
      "uri": "textures/polySurface1SG_baseColor.jpeg"
    },
    {
      "uri": "textures/polySurface1SG_metallicRoughness.png"
    },
    {
      "uri": "textures/polySurface1SG_emissive.jpeg"
    },
    {
      "uri": "textures/polySurface1SG_normal.png"
    }
  ],
  "materials": [
    {
      "doubleSided": true,
      "emissiveFactor": [
        1.0,
        1.0,
        1.0
      ],
      "emissiveTexture": {
        "index": 2
      },
      "name": "polySurface1SG",
      "normalTexture": {
        "index": 3
      },
      "occlusionTexture": {
        "index": 1
      },
      "pbrMetallicRoughness": {
        "baseColorTexture": {
          "index": 0
        },
        "metallicFactor": 0.0,
        "metallicRoughnessTexture": {
          "index": 1
        }
      }
    },
    {
      "doubleSided": true,
      "name": "polySurface5SG",
      "pbrMetallicRoughness": {
        "metallicFactor": 0.0,
        "roughnessFactor": 0.6
      }
    },
    {
      "doubleSided": true,
      "emissiveFactor": [
        1.0,
        1.0,
        1.0
      ],
      "emissiveTexture": {
        "index": 2
      },
      "name": "polySurface5SG1",
      "normalTexture": {
        "index": 3
      },
      "occlusionTexture": {
        "index": 1
      },
      "pbrMetallicRoughness": {
        "baseColorTexture": {
          "index": 0
        },
        "metallicFactor": 0.0,
        "metallicRoughnessTexture": {
          "index": 1
        }
      }
    }
  ],
  "meshes": [
    {
      "name": "Object_0",
      "primitives": [
        {
          "attributes": {
            "NORMAL": 1,
            "POSITION": 0,
            "TANGENT": 2,
            "TEXCOORD_0": 3
          },
          "indices": 4,
          "material": 0,
          "mode": 4
        }
      ]
    },
    {
      "name": "Object_1",
      "primitives": [
        {
          "attributes": {
            "NORMAL": 6,
            "POSITION": 5,
            "TEXCOORD_0": 7
          },
          "indices": 8,
          "material": 1,
          "mode": 4
        }
      ]
    },
    {
      "name": "Object_2",
      "primitives": [
        {
          "attributes": {
            "NORMAL": 10,
            "POSITION": 9,
            "TANGENT": 11,
            "TEXCOORD_0": 12
          },
          "indices": 13,
          "material": 2,
          "mode": 4
        }
      ]
    }
  ],
  "nodes": [
    {
      "children": [
        1
      ],
      "matrix": [
        1.0,
        0.0,
        0.0,
        0.0,
        0.0,
        2.220446049250313e-16,
        -1.0,
        0.0,
        0.0,
        1.0,
        2.220446049250313e-16,
        0.0,
        0.0,
        0.0,
        0.0,
        1.0
      ],
      "name": "Sketchfab_model"
    },
    {
      "children": [
        2,
        3,
        4
      ],
      "name": "LAPTOP.obj.cleaner.materialmerger.gles"
    },
    {
      "mesh": 0,
      "name": "Object_2"
    },
    {
      "mesh": 1,
      "name": "Object_3"
    },
    {
      "mesh": 2,
      "name": "Object_4"
    }
  ],
  "samplers": [
    {
      "magFilter": 9729,
      "minFilter": 9987,
      "wrapS": 10497,
      "wrapT": 10497
    }
  ],
  "scene": 0,
  "scenes": [
    {
      "name": "Sketchfab_Scene",
      "nodes": [
        0
      ]
    }
  ],
  "textures": [
    {
      "sampler": 0,
      "source": 0
    },
    {
      "sampler": 0,
      "source": 1
    },
    {
      "sampler": 0,
      "source": 2
    },
    {
      "sampler": 0,
      "source": 3
    }
  ]
}
