<?xml version="1.0" encoding="UTF-8"?>
<svg version="1.1" xmlns="http://www.w3.org/2000/svg" width="305" height="305">
<path d="M0 0 C0.77103058 -0.00570007 1.54206116 -0.01140015 2.3364563 -0.01727295 C3.9651759 -0.02667458 5.59391411 -0.03323756 7.22265625 -0.03710938 C9.65400797 -0.04671187 12.08447475 -0.07773742 14.515625 -0.109375 C39.81869624 -0.2808035 62.34237645 6.96415697 84.8203125 18.203125 C85.1503125 15.233125 85.4803125 12.263125 85.8203125 9.203125 C87.4703125 9.203125 89.1203125 9.203125 90.8203125 9.203125 C90.8203125 6.233125 90.8203125 3.263125 90.8203125 0.203125 C91.4803125 0.203125 92.1403125 0.203125 92.8203125 0.203125 C92.8203125 3.503125 92.8203125 6.803125 92.8203125 10.203125 C91.1703125 10.533125 89.5203125 10.863125 87.8203125 11.203125 C87.09914381 14.41560369 86.91573533 17.0141072 87.8203125 20.203125 C90.28435994 22.4056255 92.86057045 23.85767008 95.74609375 25.46484375 C109.83987511 33.43400856 122.7645426 46.62162375 132.2578125 59.640625 C133.06895508 60.73793945 133.06895508 60.73793945 133.89648438 61.85742188 C135.20972601 63.63552781 136.51751636 65.41735982 137.8203125 67.203125 C139.8365358 66.48749234 139.8365358 66.48749234 141.8203125 65.203125 C142.1503125 63.883125 142.4803125 62.563125 142.8203125 61.203125 C146.4503125 61.203125 150.0803125 61.203125 153.8203125 61.203125 C154.1503125 62.523125 154.4803125 63.843125 154.8203125 65.203125 C157.4603125 65.203125 160.1003125 65.203125 162.8203125 65.203125 C162.8203125 66.193125 162.8203125 67.183125 162.8203125 68.203125 C155.0703125 68.328125 155.0703125 68.328125 152.8203125 67.203125 C152.8203125 65.883125 152.8203125 64.563125 152.8203125 63.203125 C149.8503125 63.203125 146.8803125 63.203125 143.8203125 63.203125 C144.1503125 64.193125 144.4803125 65.183125 144.8203125 66.203125 C143.1703125 67.523125 141.5203125 68.843125 139.8203125 70.203125 C140.40039062 71.19570312 140.98046875 72.18828125 141.578125 73.2109375 C148.57844581 85.31988479 154.14417705 97.32565416 158.0703125 110.765625 C158.43999146 112.02282349 158.43999146 112.02282349 158.81713867 113.30541992 C162.22926882 125.51148107 163.17074658 137.4542966 163.13598633 150.05810547 C163.13283474 152.43634331 163.1563523 154.81332166 163.18164062 157.19140625 C163.23903264 170.94185715 161.44926598 184.16875067 157.3203125 197.328125 C157.12050781 198.00359375 156.92070312 198.6790625 156.71484375 199.375 C155.373548 203.80042166 153.70632397 207.98152957 151.8203125 212.203125 C153.4703125 212.533125 155.1203125 212.863125 156.8203125 213.203125 C156.8203125 211.883125 156.8203125 210.563125 156.8203125 209.203125 C158.8003125 209.203125 160.7803125 209.203125 162.8203125 209.203125 C162.8203125 209.863125 162.8203125 210.523125 162.8203125 211.203125 C161.5003125 211.203125 160.1803125 211.203125 158.8203125 211.203125 C158.8203125 212.523125 158.8203125 213.843125 158.8203125 215.203125 C155.8503125 215.203125 152.8803125 215.203125 149.8203125 215.203125 C149.5625 216.0590625 149.3046875 216.915 149.0390625 217.796875 C137.28118908 250.65862378 105.22097103 277.63644124 74.74121094 292.19628906 C66.89102662 295.78126785 58.86963058 298.65856904 50.5703125 301.015625 C49.88662598 301.2105957 49.20293945 301.40556641 48.49853516 301.60644531 C36.12186627 304.9189642 23.80707498 305.64714397 11.0703125 305.640625 C9.85492798 305.64122925 9.85492798 305.64122925 8.61499023 305.6418457 C-24.17893378 305.54837899 -56.27781586 295.78871743 -82.1796875 275.203125 C-83.05625 274.52894531 -83.9328125 273.85476563 -84.8359375 273.16015625 C-113.7931197 250.31893064 -131.29061134 219.7180999 -140.1796875 184.203125 C-140.34969772 183.54672028 -140.51970795 182.89031555 -140.69487 182.21401978 C-142.03190017 176.7296341 -142.48691113 171.58711345 -142.48046875 165.953125 C-142.48475388 165.09614014 -142.489039 164.23915527 -142.49345398 163.35620117 C-142.49916096 161.55111568 -142.49972457 159.74600721 -142.49536133 157.94091797 C-142.49222739 155.23753509 -142.51561567 152.53527731 -142.54101562 149.83203125 C-142.68692343 110.12169917 -126.44780696 72.96815486 -98.70751953 44.73486328 C-73.10044448 19.06231792 -36.89008687 0.21778678 0 0 Z M-139.1796875 172.203125 C-138.1796875 174.203125 -138.1796875 174.203125 -138.1796875 174.203125 Z " fill="#93C3EB" transform="translate(142.1796875,-0.203125)"/>
<path d="M0 0 C16.83 0 33.66 0 51 0 C51 1.65 51 3.3 51 5 C54.3 5 57.6 5 61 5 C61 6.65 61 8.3 61 10 C64.3 10 67.6 10 71 10 C71 11.32 71 12.64 71 14 C72.65 14 74.3 14 76 14 C76 15.65 76 17.3 76 19 C77.32 19 78.64 19 80 19 C80 20.65 80 22.3 80 24 C81.65 24 83.3 24 85 24 C85 25.32 85 26.64 85 28 C86.65 28 88.3 28 90 28 C90 31.3 90 34.6 90 38 C91.32 38 92.64 38 94 38 C94.33 42.62 94.66 47.24 95 52 C96.32 52 97.64 52 99 52 C99 59.92 99 67.84 99 76 C97.68 76 96.36 76 95 76 C95 77.65 95 79.3 95 81 C96.32 81 97.64 81 99 81 C99 82.65 99 84.3 99 86 C97.68 86 96.36 86 95 86 C95 90.62 95 95.24 95 100 C91.7 100 88.4 100 85 100 C85 104.62 85 109.24 85 114 C82.03 114 79.06 114 76 114 C76 109.38 76 104.76 76 100 C72.7 100 69.4 100 66 100 C66 98.68 66 97.36 66 96 C67.65 96 69.3 96 71 96 C71 91.05 71 86.1 71 81 C66.05 81 61.1 81 56 81 C56 79.35 56 77.7 56 76 C53.03 76 50.06 76 47 76 C47 77.65 47 79.3 47 81 C48.65 81 50.3 81 52 81 C52 87.27 52 93.54 52 100 C50.35 100 48.7 100 47 100 C47 103.3 47 106.6 47 110 C45.35 110 43.7 110 42 110 C42 111.32 42 112.64 42 114 C37.05 114 32.1 114 27 114 C27 112.68 27 111.36 27 110 C24.03 110 21.06 110 18 110 C18 108.35 18 106.7 18 105 C15.03 105 12.06 105 9 105 C9 103.35 9 101.7 9 100 C7.35 100 5.7 100 4 100 C4 90.76 4 81.52 4 72 C10.27 72 16.54 72 23 72 C23 70.35 23 68.7 23 67 C24.65 67 26.3 67 28 67 C28 65.35 28 63.7 28 62 C23.38 62 18.76 62 14 62 C14 60.35 14 58.7 14 57 C12.35 57 10.7 57 9 57 C9 58.65 9 60.3 9 62 C5.7 62 2.4 62 -1 62 C-1 63.32 -1 64.64 -1 66 C-5.455 66.495 -5.455 66.495 -10 67 C-10.495 68.98 -10.495 68.98 -11 71 C-15.62 71.33 -20.24 71.66 -25 72 C-25 73.32 -25 74.64 -25 76 C-29.62 76 -34.24 76 -39 76 C-39 77.65 -39 79.3 -39 81 C-42.3 81 -45.6 81 -49 81 C-49 82.65 -49 84.3 -49 86 C-50.32 86 -51.64 86 -53 86 C-53 87.65 -53 89.3 -53 91 C-51.35 91 -49.7 91 -48 91 C-48 89.35 -48 87.7 -48 86 C-43.38 86 -38.76 86 -34 86 C-34 87.65 -34 89.3 -34 91 C-35.32 91 -36.64 91 -38 91 C-38 93.97 -38 96.94 -38 100 C-36.68 100 -35.36 100 -34 100 C-34 98.68 -34 97.36 -34 96 C-32.35 96 -30.7 96 -29 96 C-29 94.02 -29 92.04 -29 90 C-26.03 90 -23.06 90 -20 90 C-20 88.68 -20 87.36 -20 86 C-15.38 86 -10.76 86 -6 86 C-6 87.32 -6 88.64 -6 90 C-8.97 90 -11.94 90 -15 90 C-15 91.65 -15 93.3 -15 95 C-11.7 95 -8.4 95 -5 95 C-5 96.65 -5 98.3 -5 100 C-3.68 100 -2.36 100 -1 100 C-1 101.65 -1 103.3 -1 105 C0.65 105 2.3 105 4 105 C4 106.65 4 108.3 4 110 C5.65 110 7.3 110 9 110 C9 111.32 9 112.64 9 114 C10.32 114 11.64 114 13 114 C13 115.65 13 117.3 13 119 C25.54 119 38.08 119 51 119 C51 116.03 51 113.06 51 110 C52.98 110 54.96 110 57 110 C57 106.7 57 103.4 57 100 C58.32 100 59.64 100 61 100 C61 101.65 61 103.3 61 105 C62.65 105 64.3 105 66 105 C66 109.62 66 114.24 66 119 C69.3 119 72.6 119 76 119 C75.67 122.3 75.34 125.6 75 129 C78.3 129 81.6 129 85 129 C85 144.51 85 160.02 85 176 C82.03 176.33 79.06 176.66 76 177 C76 181.62 76 186.24 76 191 C74.35 191 72.7 191 71 191 C71 192.32 71 193.64 71 195 C69.35 195 67.7 195 66 195 C66 196.65 66 198.3 66 200 C64.35 200 62.7 200 61 200 C61 201.65 61 203.3 61 205 C58.03 205 55.06 205 52 205 C52 211.27 52 217.54 52 224 C53.32 224 54.64 224 56 224 C56 225.65 56 227.3 56 229 C57.65 229 59.3 229 61 229 C61 230.65 61 232.3 61 234 C62.65 234 64.3 234 66 234 C66 235.32 66 236.64 66 238 C69.3 238 72.6 238 76 238 C76 239.65 76 241.3 76 243 C77.32 243 78.64 243 80 243 C80 241.35 80 239.7 80 238 C81.65 238 83.3 238 85 238 C85 239.65 85 241.3 85 243 C89.29 243 93.58 243 98 243 C74.36768482 267.37082503 38.86068827 283.68159185 4.6875 284.23828125 C-23.0216243 284.63774141 -49.57261113 282.35606691 -74 268 C-74 267.67 -74 267.34 -74 267 C-70.37 267 -66.74 267 -63 267 C-63 265.35 -63 263.7 -63 262 C-59.7 262 -56.4 262 -53 262 C-53 260.35 -53 258.7 -53 257 C-58.94 257 -64.88 257 -71 257 C-71 256.67 -71 256.34 -71 256 C-65.72 256 -60.44 256 -55 256 C-55 255.34 -55 254.68 -55 254 C-55.99 254 -56.98 254 -58 254 C-58 252.02 -58 250.04 -58 248 C-56.35 248 -54.7 248 -53 248 C-53 249.65 -53 251.3 -53 253 C-51.35 253 -49.7 253 -48 253 C-48 254.65 -48 256.3 -48 258 C-45.03 258 -42.06 258 -39 258 C-39 259.32 -39 260.64 -39 262 C-37.35 262 -35.7 262 -34 262 C-34 263.65 -34 265.3 -34 267 C-32.35 267 -30.7 267 -29 267 C-29 268.32 -29 269.64 -29 271 C-27.35 271.33 -25.7 271.66 -24 272 C-24 273.32 -24 274.64 -24 276 C-22.68 276 -21.36 276 -20 276 C-20 273.03 -20 270.06 -20 267 C-21.65 267 -23.3 267 -25 267 C-25 263.7 -25 260.4 -25 257 C-26.32 257 -27.64 257 -29 257 C-29 254.03 -29 251.06 -29 248 C-30.65 248 -32.3 248 -34 248 C-34 246.35 -34 244.7 -34 243 C-35.65 243 -37.3 243 -39 243 C-39 239.7 -39 236.4 -39 233 C-40.32 233 -41.64 233 -43 233 C-43 222.11 -43 211.22 -43 200 C-44.65 200 -46.3 200 -48 200 C-48 189.11 -48 178.22 -48 167 C-51.3 167 -54.6 167 -58 167 C-58 163.7 -58 160.4 -58 157 C-59.65 157 -61.3 157 -63 157 C-63 154.03 -63 151.06 -63 148 C-65.97 148 -68.94 148 -72 148 C-72 146.35 -72 144.7 -72 143 C-65.73 143 -59.46 143 -53 143 C-53 141.35 -53 139.7 -53 138 C-56.3 138 -59.6 138 -63 138 C-63 136.68 -63 135.36 -63 134 C-64.32 134 -65.64 134 -67 134 C-67 135.32 -67 136.64 -67 138 C-68.65 138.33 -70.3 138.66 -72 139 C-72.495 140.98 -72.495 140.98 -73 143 C-74.32 143 -75.64 143 -77 143 C-77 140.03 -77 137.06 -77 134 C-78.65 134 -80.3 134 -82 134 C-82 129.05 -82 124.1 -82 119 C-83.65 119 -85.3 119 -87 119 C-86.67 116.03 -86.34 113.06 -86 110 C-84.68 110 -83.36 110 -82 110 C-82 106.7 -82 103.4 -82 100 C-80.35 100 -78.7 100 -77 100 C-77 95.38 -77 90.76 -77 86 C-78.65 86 -80.3 86 -82 86 C-82 79.73 -82 73.46 -82 67 C-80.35 67 -78.7 67 -77 67 C-77 63.7 -77 60.4 -77 57 C-75.35 57 -73.7 57 -72 57 C-72 55.35 -72 53.7 -72 52 C-73.65 52 -75.3 52 -77 52 C-77 50.68 -77 49.36 -77 48 C-75.35 48 -73.7 48 -72 48 C-72 46.35 -72 44.7 -72 43 C-70.35 43 -68.7 43 -67 43 C-67 41.35 -67 39.7 -67 38 C-65.68 38 -64.36 38 -63 38 C-63 33.38 -63 28.76 -63 24 C-61.35 24 -59.7 24 -58 24 C-58 22.35 -58 20.7 -58 19 C-56.35 19 -54.7 19 -53 19 C-53 17.35 -53 15.7 -53 14 C-51.68 14 -50.36 14 -49 14 C-49 12.68 -49 11.36 -49 10 C-41.08 10 -33.16 10 -25 10 C-25 8.35 -25 6.7 -25 5 C-16.75 5 -8.5 5 0 5 C0 3.35 0 1.7 0 0 Z " fill="#834A32" transform="translate(158,19)"/>
<path d="M0 0 C16.83 0 33.66 0 51 0 C51 1.65 51 3.3 51 5 C54.3 5 57.6 5 61 5 C61 6.65 61 8.3 61 10 C64.3 10 67.6 10 71 10 C71 11.32 71 12.64 71 14 C72.65 14 74.3 14 76 14 C76 15.65 76 17.3 76 19 C77.32 19 78.64 19 80 19 C80 20.65 80 22.3 80 24 C81.65 24 83.3 24 85 24 C85 25.32 85 26.64 85 28 C86.65 28 88.3 28 90 28 C90 31.3 90 34.6 90 38 C91.32 38 92.64 38 94 38 C94.33 42.62 94.66 47.24 95 52 C96.32 52 97.64 52 99 52 C99 59.92 99 67.84 99 76 C97.68 76 96.36 76 95 76 C95 77.65 95 79.3 95 81 C96.32 81 97.64 81 99 81 C99 82.65 99 84.3 99 86 C97.68 86 96.36 86 95 86 C95 90.62 95 95.24 95 100 C91.7 100 88.4 100 85 100 C85 104.62 85 109.24 85 114 C82.03 114 79.06 114 76 114 C76 109.38 76 104.76 76 100 C72.7 100 69.4 100 66 100 C66 98.68 66 97.36 66 96 C67.65 96 69.3 96 71 96 C71 91.05 71 86.1 71 81 C66.05 81 61.1 81 56 81 C56 79.35 56 77.7 56 76 C53.03 76 50.06 76 47 76 C47 77.65 47 79.3 47 81 C48.65 81 50.3 81 52 81 C52 87.27 52 93.54 52 100 C50.35 100 48.7 100 47 100 C47 103.3 47 106.6 47 110 C45.35 110 43.7 110 42 110 C42 111.32 42 112.64 42 114 C37.05 114 32.1 114 27 114 C27 112.68 27 111.36 27 110 C24.03 110 21.06 110 18 110 C18 108.35 18 106.7 18 105 C15.03 105 12.06 105 9 105 C9 103.35 9 101.7 9 100 C7.35 100 5.7 100 4 100 C4 90.76 4 81.52 4 72 C10.27 72 16.54 72 23 72 C23 70.35 23 68.7 23 67 C24.65 67 26.3 67 28 67 C28 65.35 28 63.7 28 62 C23.38 62 18.76 62 14 62 C14 60.35 14 58.7 14 57 C12.35 57 10.7 57 9 57 C9 58.65 9 60.3 9 62 C5.7 62 2.4 62 -1 62 C-1 63.32 -1 64.64 -1 66 C-5.455 66.495 -5.455 66.495 -10 67 C-10.495 68.98 -10.495 68.98 -11 71 C-15.62 71.33 -20.24 71.66 -25 72 C-25 73.32 -25 74.64 -25 76 C-29.62 76 -34.24 76 -39 76 C-39 77.65 -39 79.3 -39 81 C-42.3 81 -45.6 81 -49 81 C-49 82.65 -49 84.3 -49 86 C-50.32 86 -51.64 86 -53 86 C-53 87.65 -53 89.3 -53 91 C-51.35 91 -49.7 91 -48 91 C-48 89.35 -48 87.7 -48 86 C-45.03 86 -42.06 86 -39 86 C-39 92.27 -39 98.54 -39 105 C-40.65 105 -42.3 105 -44 105 C-44 109.62 -44 114.24 -44 119 C-45.32 119 -46.64 119 -48 119 C-48 117.35 -48 115.7 -48 114 C-49.65 114 -51.3 114 -53 114 C-53 121.92 -53 129.84 -53 138 C-56.3 138 -59.6 138 -63 138 C-63 136.68 -63 135.36 -63 134 C-64.32 134 -65.64 134 -67 134 C-67 135.32 -67 136.64 -67 138 C-68.65 138.33 -70.3 138.66 -72 139 C-72.495 140.98 -72.495 140.98 -73 143 C-74.32 143 -75.64 143 -77 143 C-77 140.03 -77 137.06 -77 134 C-78.65 134 -80.3 134 -82 134 C-82 129.05 -82 124.1 -82 119 C-83.65 119 -85.3 119 -87 119 C-86.67 116.03 -86.34 113.06 -86 110 C-84.68 110 -83.36 110 -82 110 C-82 106.7 -82 103.4 -82 100 C-80.35 100 -78.7 100 -77 100 C-77 95.38 -77 90.76 -77 86 C-78.65 86 -80.3 86 -82 86 C-82 79.73 -82 73.46 -82 67 C-80.35 67 -78.7 67 -77 67 C-77 63.7 -77 60.4 -77 57 C-75.35 57 -73.7 57 -72 57 C-72 55.35 -72 53.7 -72 52 C-73.65 52 -75.3 52 -77 52 C-77 50.68 -77 49.36 -77 48 C-75.35 48 -73.7 48 -72 48 C-72 46.35 -72 44.7 -72 43 C-70.35 43 -68.7 43 -67 43 C-67 41.35 -67 39.7 -67 38 C-65.68 38 -64.36 38 -63 38 C-63 33.38 -63 28.76 -63 24 C-61.35 24 -59.7 24 -58 24 C-58 22.35 -58 20.7 -58 19 C-56.35 19 -54.7 19 -53 19 C-53 17.35 -53 15.7 -53 14 C-51.68 14 -50.36 14 -49 14 C-49 12.68 -49 11.36 -49 10 C-41.08 10 -33.16 10 -25 10 C-25 8.35 -25 6.7 -25 5 C-16.75 5 -8.5 5 0 5 C0 3.35 0 1.7 0 0 Z " fill="#282830" transform="translate(158,19)"/>
<path d="M0 0 C0.82330811 0.00087616 1.64661621 0.00175232 2.49487305 0.00265503 C15.09772448 0.04692124 26.92260041 0.74054789 39.0625 4.375 C40.33552979 4.73706543 40.33552979 4.73706543 41.63427734 5.10644531 C54.28906666 8.75885319 65.67109557 13.79097726 77.0625 20.375 C77.0625 22.685 77.0625 24.995 77.0625 27.375 C73.7625 27.375 70.4625 27.375 67.0625 27.375 C67.0625 25.725 67.0625 24.075 67.0625 22.375 C63.7625 22.375 60.4625 22.375 57.0625 22.375 C57.0625 20.725 57.0625 19.075 57.0625 17.375 C40.2325 17.375 23.4025 17.375 6.0625 17.375 C6.0625 19.025 6.0625 20.675 6.0625 22.375 C-2.1875 22.375 -10.4375 22.375 -18.9375 22.375 C-18.9375 24.025 -18.9375 25.675 -18.9375 27.375 C-26.8575 27.375 -34.7775 27.375 -42.9375 27.375 C-42.9375 28.695 -42.9375 30.015 -42.9375 31.375 C-44.2575 31.375 -45.5775 31.375 -46.9375 31.375 C-46.9375 33.025 -46.9375 34.675 -46.9375 36.375 C-48.5875 36.375 -50.2375 36.375 -51.9375 36.375 C-51.9375 38.025 -51.9375 39.675 -51.9375 41.375 C-53.5875 41.375 -55.2375 41.375 -56.9375 41.375 C-56.9375 45.995 -56.9375 50.615 -56.9375 55.375 C-58.2575 55.375 -59.5775 55.375 -60.9375 55.375 C-60.9375 57.025 -60.9375 58.675 -60.9375 60.375 C-62.5875 60.375 -64.2375 60.375 -65.9375 60.375 C-65.9375 62.025 -65.9375 63.675 -65.9375 65.375 C-67.5875 65.375 -69.2375 65.375 -70.9375 65.375 C-70.9375 66.695 -70.9375 68.015 -70.9375 69.375 C-69.2875 69.375 -67.6375 69.375 -65.9375 69.375 C-65.9375 71.025 -65.9375 72.675 -65.9375 74.375 C-67.5875 74.375 -69.2375 74.375 -70.9375 74.375 C-70.9375 77.675 -70.9375 80.975 -70.9375 84.375 C-72.5875 84.375 -74.2375 84.375 -75.9375 84.375 C-75.9375 90.645 -75.9375 96.915 -75.9375 103.375 C-74.2875 103.375 -72.6375 103.375 -70.9375 103.375 C-70.9375 107.995 -70.9375 112.615 -70.9375 117.375 C-72.5875 117.375 -74.2375 117.375 -75.9375 117.375 C-75.9375 120.675 -75.9375 123.975 -75.9375 127.375 C-77.2575 127.375 -78.5775 127.375 -79.9375 127.375 C-80.2675 130.345 -80.5975 133.315 -80.9375 136.375 C-79.2875 136.375 -77.6375 136.375 -75.9375 136.375 C-75.9375 141.325 -75.9375 146.275 -75.9375 151.375 C-74.2875 151.375 -72.6375 151.375 -70.9375 151.375 C-70.9375 154.345 -70.9375 157.315 -70.9375 160.375 C-69.6175 160.375 -68.2975 160.375 -66.9375 160.375 C-66.6075 158.725 -66.2775 157.075 -65.9375 155.375 C-64.2875 155.375 -62.6375 155.375 -60.9375 155.375 C-60.9375 154.055 -60.9375 152.735 -60.9375 151.375 C-59.6175 151.375 -58.2975 151.375 -56.9375 151.375 C-56.9375 152.695 -56.9375 154.015 -56.9375 155.375 C-53.6375 155.375 -50.3375 155.375 -46.9375 155.375 C-46.9375 157.025 -46.9375 158.675 -46.9375 160.375 C-53.2075 160.375 -59.4775 160.375 -65.9375 160.375 C-65.9375 162.025 -65.9375 163.675 -65.9375 165.375 C-62.9675 165.375 -59.9975 165.375 -56.9375 165.375 C-56.9375 166.695 -56.9375 168.015 -56.9375 169.375 C-58.2575 169.375 -59.5775 169.375 -60.9375 169.375 C-60.9375 171.355 -60.9375 173.335 -60.9375 175.375 C-62.5875 175.375 -64.2375 175.375 -65.9375 175.375 C-65.9375 176.695 -65.9375 178.015 -65.9375 179.375 C-67.5875 179.375 -69.2375 179.375 -70.9375 179.375 C-70.9375 181.025 -70.9375 182.675 -70.9375 184.375 C-73.9075 184.375 -76.8775 184.375 -79.9375 184.375 C-79.9375 186.025 -79.9375 187.675 -79.9375 189.375 C-84.8875 189.375 -89.8375 189.375 -94.9375 189.375 C-94.9375 187.725 -94.9375 186.075 -94.9375 184.375 C-96.5875 184.375 -98.2375 184.375 -99.9375 184.375 C-99.9375 181.075 -99.9375 177.775 -99.9375 174.375 C-102.9075 174.375 -105.8775 174.375 -108.9375 174.375 C-108.9375 172.725 -108.9375 171.075 -108.9375 169.375 C-113.8875 169.375 -118.8375 169.375 -123.9375 169.375 C-123.9375 171.025 -123.9375 172.675 -123.9375 174.375 C-120.6375 174.375 -117.3375 174.375 -113.9375 174.375 C-113.9375 176.025 -113.9375 177.675 -113.9375 179.375 C-121.8575 179.375 -129.7775 179.375 -137.9375 179.375 C-137.9375 177.725 -137.9375 176.075 -137.9375 174.375 C-139.5875 174.375 -141.2375 174.375 -142.9375 174.375 C-142.9375 169.755 -142.9375 165.135 -142.9375 160.375 C-144.2575 160.375 -145.5775 160.375 -146.9375 160.375 C-146.9375 152.455 -146.9375 144.535 -146.9375 136.375 C-147.5975 136.375 -148.2575 136.375 -148.9375 136.375 C-149.5864758 124.59729102 -147.10561839 113.35571526 -142.9375 102.375 C-142.52757812 101.26769531 -142.11765625 100.16039063 -141.6953125 99.01953125 C-127.62005769 61.87595319 -100.07786622 30.99459179 -64.1171875 13.77734375 C-52.70007036 8.74203042 -41.14862652 4.96945228 -28.9375 2.375 C-28.17961182 2.19694824 -27.42172363 2.01889648 -26.64086914 1.83544922 C-17.80606561 -0.04816422 -8.99190172 -0.0233015 0 0 Z " fill="#74ABE3" transform="translate(151.9375,1.625)"/>
<path d="M0 0 C0.33 1.32 0.66 2.64 1 4 C1.66 4 2.32 4 3 4 C3 11.92 3 19.84 3 28 C4.32 28 5.64 28 7 28 C7 32.62 7 37.24 7 42 C8.65 42 10.3 42 12 42 C12 43.65 12 45.3 12 47 C19.92 47 27.84 47 36 47 C36 45.35 36 43.7 36 42 C32.7 42 29.4 42 26 42 C26 40.35 26 38.7 26 37 C30.95 37 35.9 37 41 37 C41 38.65 41 40.3 41 42 C43.97 42 46.94 42 50 42 C50 45.3 50 48.6 50 52 C51.65 52 53.3 52 55 52 C55 53.65 55 55.3 55 57 C59.95 57 64.9 57 70 57 C70 55.35 70 53.7 70 52 C72.97 52 75.94 52 79 52 C79 50.35 79 48.7 79 47 C80.65 47 82.3 47 84 47 C84 45.68 84 44.36 84 43 C85.65 43 87.3 43 89 43 C89 41.02 89 39.04 89 37 C90.32 37 91.64 37 93 37 C93 38.65 93 40.3 93 42 C94.65 42 96.3 42 98 42 C98 45.3 98 48.6 98 52 C101.3 52 104.6 52 108 52 C108 62.89 108 73.78 108 85 C109.65 85 111.3 85 113 85 C113 95.89 113 106.78 113 118 C114.32 118 115.64 118 117 118 C117 121.3 117 124.6 117 128 C118.65 128 120.3 128 122 128 C122 129.65 122 131.3 122 133 C123.65 133 125.3 133 127 133 C127 135.97 127 138.94 127 142 C128.32 142 129.64 142 131 142 C131 145.3 131 148.6 131 152 C132.65 152 134.3 152 136 152 C136 154.97 136 157.94 136 161 C134.68 161 133.36 161 132 161 C131.67 159.68 131.34 158.36 131 157 C129.68 156.67 128.36 156.34 127 156 C127 154.68 127 153.36 127 152 C125.35 152 123.7 152 122 152 C122 150.35 122 148.7 122 147 C120.35 147 118.7 147 117 147 C117 145.68 117 144.36 117 143 C114.03 143 111.06 143 108 143 C108 141.35 108 139.7 108 138 C106.35 138 104.7 138 103 138 C103 136.35 103 134.7 103 133 C101.35 133 99.7 133 98 133 C98 134.98 98 136.96 98 139 C98.99 139 99.98 139 101 139 C101 139.66 101 140.32 101 141 C101.66 141.33 102.32 141.66 103 142 C103 143.65 103 145.3 103 147 C99.7 147 96.4 147 93 147 C93 148.65 93 150.3 93 152 C84.81744638 153.91825433 79.46704436 153.01779127 72.29345703 148.59741211 C37.75097104 126.16333677 13.6685483 93.76458914 3 54 C2.63531328 52.00547883 2.29020147 50.00671229 2 48 C1.34 48.66 0.68 49.32 0 50 C-0.66 47.03 -1.32 44.06 -2 41 C-1.01 41 -0.02 41 1 41 C0.75601219 40.1291275 0.75601219 40.1291275 0.50709534 39.24066162 C-0.29440923 35.69911746 -0.12129632 32.12801255 -0.09765625 28.515625 C-0.0962413 27.70003113 -0.09482635 26.88443726 -0.09336853 26.04412842 C-0.08778303 23.44604788 -0.07523321 20.84805437 -0.0625 18.25 C-0.05748312 16.48567833 -0.05292054 14.72135531 -0.04882812 12.95703125 C-0.03781835 8.63798744 -0.02056369 4.31900846 0 0 Z " fill="#93C4EB" transform="translate(2,134)"/>
<path d="M0 0 C0.33 0 0.66 0 1 0 C1 1.65 1 3.3 1 5 C2.32 5 3.64 5 5 5 C6.21379503 9.70345575 6.07202527 14.17430687 6 19 C10.62 19 15.24 19 20 19 C20 17.35 20 15.7 20 14 C22.64 14 25.28 14 28 14 C35.32893405 26.1831631 42.12347873 38.72757712 45.39453125 52.66796875 C45.95347036 55.03994292 45.95347036 55.03994292 46.97265625 57.35546875 C52.66394981 72.0056807 51.33158156 88.61631623 51 104 C50.67 104 50.34 104 50 104 C50 98.06 50 92.12 50 86 C49.34 86 48.68 86 48 86 C48 87.65 48 89.3 48 91 C46.35 91 44.7 91 43 91 C43 92.32 43 93.64 43 95 C41.68 95 40.36 95 39 95 C39 96.98 39 98.96 39 101 C37.35 101 35.7 101 34 101 C34 105.29 34 109.58 34 114 C32.35 114 30.7 114 29 114 C29 115.65 29 117.3 29 119 C27.35 119 25.7 119 24 119 C24 120.65 24 122.3 24 124 C22.68 124 21.36 124 20 124 C20 122.35 20 120.7 20 119 C12.08 119 4.16 119 -4 119 C-4 109.76 -4 100.52 -4 91 C0.62 91 5.24 91 10 91 C10 87.7 10 84.4 10 81 C13.3 81 16.6 81 20 81 C20 78.03 20 75.06 20 72 C21.32 72 22.64 72 24 72 C24 67.38 24 62.76 24 58 C22.68 58 21.36 58 20 58 C20 56.02 20 54.04 20 52 C18.35 52 16.7 52 15 52 C15 50.68 15 49.36 15 48 C12.03 48 9.06 48 6 48 C6 49.65 6 51.3 6 53 C7.32 53 8.64 53 10 53 C10 54.32 10 55.64 10 57 C11.65 57 13.3 57 15 57 C15 61.95 15 66.9 15 72 C13.35 72 11.7 72 10 72 C10 73.32 10 74.64 10 76 C8.35 76 6.7 76 5 76 C5 77.65 5 79.3 5 81 C3.68 81 2.36 81 1 81 C1 82.65 1 84.3 1 86 C-0.65 86 -2.3 86 -4 86 C-4 78.08 -4 70.16 -4 62 C-2.35 62 -0.7 62 1 62 C1 57.38 1 52.76 1 48 C2.32 48 3.64 48 5 48 C5 46.35 5 44.7 5 43 C3.68 43 2.36 43 1 43 C1 41.35 1 39.7 1 38 C2.32 38 3.64 38 5 38 C5 30.08 5 22.16 5 14 C3.68 14 2.36 14 1 14 C0.06380187 10.84493858 -0.1057123 8.03413498 -0.0625 4.75 C-0.05347656 3.85796875 -0.04445312 2.9659375 -0.03515625 2.046875 C-0.02355469 1.37140625 -0.01195312 0.6959375 0 0 Z " fill="#75ACE4" transform="translate(252,57)"/>
<path d="M0 0 C1.65 0 3.3 0 5 0 C5 1.65 5 3.3 5 5 C9.62 5 14.24 5 19 5 C19 6.65 19 8.3 19 10 C17.35 10 15.7 10 14 10 C14 11.65 14 13.3 14 15 C7.73 15 1.46 15 -5 15 C-5 24.24 -5 33.48 -5 43 C-3.35 43 -1.7 43 0 43 C0 44.65 0 46.3 0 48 C2.97 48 5.94 48 9 48 C9 49.65 9 51.3 9 53 C11.97 53 14.94 53 18 53 C18 54.32 18 55.64 18 57 C22.95 57 27.9 57 33 57 C33 55.68 33 54.36 33 53 C34.65 53 36.3 53 38 53 C38 49.7 38 46.4 38 43 C39.65 43 41.3 43 43 43 C43 36.73 43 30.46 43 24 C41.35 24 39.7 24 38 24 C38 22.35 38 20.7 38 19 C40.97 19 43.94 19 47 19 C47 20.65 47 22.3 47 24 C51.95 24 56.9 24 62 24 C62 28.95 62 33.9 62 39 C60.35 39 58.7 39 57 39 C57 40.32 57 41.64 57 43 C60.3 43 63.6 43 67 43 C67 47.62 67 52.24 67 57 C69.97 57 72.94 57 76 57 C76 52.38 76 47.76 76 43 C77.65 43 79.3 43 81 43 C81 50.92 81 58.84 81 67 C82.65 67 84.3 67 86 67 C86 65.35 86 63.7 86 62 C87.32 62 88.64 62 90 62 C90 60.35 90 58.7 90 57 C91.65 57 93.3 57 95 57 C95 55.68 95 54.36 95 53 C96.65 53 98.3 53 100 53 C100 48.05 100 43.1 100 38 C98.35 38 96.7 38 95 38 C95 36.68 95 35.36 95 34 C93.68 34 92.36 34 91 34 C91 32.35 91 30.7 91 29 C93.97 29 96.94 29 100 29 C100 30.32 100 31.64 100 33 C101.65 33 103.3 33 105 33 C105 34.98 105 36.96 105 39 C106.32 39 107.64 39 109 39 C109 43.62 109 48.24 109 53 C107.68 53 106.36 53 105 53 C105 55.97 105 58.94 105 62 C101.7 62 98.4 62 95 62 C95 65.3 95 68.6 95 72 C90.38 72 85.76 72 81 72 C81 82.89 81 93.78 81 105 C79.35 105 77.7 105 76 105 C76 94.11 76 83.22 76 72 C72.7 72 69.4 72 66 72 C66.33 68.7 66.66 65.4 67 62 C63.7 62 60.4 62 57 62 C57 57.38 57 52.76 57 48 C55.35 48 53.7 48 52 48 C52 46.35 52 44.7 52 43 C50.68 43 49.36 43 48 43 C48 46.3 48 49.6 48 53 C46.02 53 44.04 53 42 53 C42 55.97 42 58.94 42 62 C29.46 62 16.92 62 4 62 C4 60.35 4 58.7 4 57 C2.68 57 1.36 57 0 57 C0 55.68 0 54.36 0 53 C-1.65 53 -3.3 53 -5 53 C-5 51.35 -5 49.7 -5 48 C-6.65 48 -8.3 48 -10 48 C-10 46.35 -10 44.7 -10 43 C-11.32 43 -12.64 43 -14 43 C-14 41.35 -14 39.7 -14 38 C-17.3 38 -20.6 38 -24 38 C-24 36.35 -24 34.7 -24 33 C-21.03 33 -18.06 33 -15 33 C-15 31.68 -15 30.36 -15 29 C-19.62 29 -24.24 29 -29 29 C-29 30.32 -29 31.64 -29 33 C-31.97 33 -34.94 33 -38 33 C-38 34.98 -38 36.96 -38 39 C-39.65 39 -41.3 39 -43 39 C-43 40.32 -43 41.64 -43 43 C-44.32 43 -45.64 43 -47 43 C-47 40.03 -47 37.06 -47 34 C-45.68 34 -44.36 34 -43 34 C-43 32.35 -43 30.7 -43 29 C-47.62 29 -52.24 29 -57 29 C-57 30.65 -57 32.3 -57 34 C-58.65 34 -60.3 34 -62 34 C-62 32.35 -62 30.7 -62 29 C-60.68 29 -59.36 29 -58 29 C-58 27.35 -58 25.7 -58 24 C-54.7 24 -51.4 24 -48 24 C-48 22.35 -48 20.7 -48 19 C-43.38 19 -38.76 19 -34 19 C-34 17.68 -34 16.36 -34 15 C-29.32798795 13.79431947 -24.78503708 13.90617574 -20 14 C-19.67 12.35 -19.34 10.7 -19 9 C-16.03 9 -13.06 9 -10 9 C-10 7.68 -10 6.36 -10 5 C-6.7 5 -3.4 5 0 5 C0 3.35 0 1.7 0 0 Z " fill="#B3A59F" transform="translate(167,76)"/>
<path d="M0 0 C6.27 0 12.54 0 19 0 C19 1.65 19 3.3 19 5 C20.32 5 21.64 5 23 5 C23 6.65 23 8.3 23 10 C24.65 10 26.3 10 28 10 C28 11.65 28 13.3 28 15 C29.65 15 31.3 15 33 15 C33 16.32 33 17.64 33 19 C39.27 19 45.54 19 52 19 C52 17.68 52 16.36 52 15 C55.3 15 58.6 15 62 15 C62 16.32 62 17.64 62 19 C63.65 19 65.3 19 67 19 C67 20.65 67 22.3 67 24 C68.32 24 69.64 24 71 24 C71 25.65 71 27.3 71 29 C69.68 29 68.36 29 67 29 C67 33.62 67 38.24 67 43 C63.7 43 60.4 43 57 43 C57 47.62 57 52.24 57 57 C54.03 57 51.06 57 48 57 C48 52.38 48 47.76 48 43 C44.7 43 41.4 43 38 43 C38 41.68 38 40.36 38 39 C39.65 39 41.3 39 43 39 C43 34.05 43 29.1 43 24 C38.05 24 33.1 24 28 24 C28 22.35 28 20.7 28 19 C25.03 19 22.06 19 19 19 C19 20.65 19 22.3 19 24 C20.65 24 22.3 24 24 24 C24 30.27 24 36.54 24 43 C22.35 43 20.7 43 19 43 C19 46.3 19 49.6 19 53 C17.35 53 15.7 53 14 53 C14 54.32 14 55.64 14 57 C9.05 57 4.1 57 -1 57 C-1 55.68 -1 54.36 -1 53 C-3.97 53 -6.94 53 -10 53 C-10 51.35 -10 49.7 -10 48 C-12.97 48 -15.94 48 -19 48 C-19 46.35 -19 44.7 -19 43 C-20.65 43 -22.3 43 -24 43 C-24 33.76 -24 24.52 -24 15 C-17.73 15 -11.46 15 -5 15 C-5 13.35 -5 11.7 -5 10 C-3.35 10 -1.7 10 0 10 C0 6.7 0 3.4 0 0 Z " fill="#824932" transform="translate(186,76)"/>
<path d="M0 0 C0.77103058 -0.00570007 1.54206116 -0.01140015 2.3364563 -0.01727295 C3.9651759 -0.02667458 5.59391411 -0.03323756 7.22265625 -0.03710938 C9.65400797 -0.04671187 12.08447475 -0.07773742 14.515625 -0.109375 C39.81869624 -0.2808035 62.34237645 6.96415697 84.8203125 18.203125 C85.1503125 15.233125 85.4803125 12.263125 85.8203125 9.203125 C87.4703125 9.203125 89.1203125 9.203125 90.8203125 9.203125 C90.8203125 6.233125 90.8203125 3.263125 90.8203125 0.203125 C91.4803125 0.203125 92.1403125 0.203125 92.8203125 0.203125 C92.8203125 3.503125 92.8203125 6.803125 92.8203125 10.203125 C91.1703125 10.533125 89.5203125 10.863125 87.8203125 11.203125 C87.09914381 14.41560369 86.91573533 17.0141072 87.8203125 20.203125 C90.28435994 22.4056255 92.86057045 23.85767008 95.74609375 25.46484375 C109.83987511 33.43400856 122.7645426 46.62162375 132.2578125 59.640625 C133.06895508 60.73793945 133.06895508 60.73793945 133.89648438 61.85742188 C135.20972601 63.63552781 136.51751636 65.41735982 137.8203125 67.203125 C139.8365358 66.48749234 139.8365358 66.48749234 141.8203125 65.203125 C142.1503125 63.883125 142.4803125 62.563125 142.8203125 61.203125 C146.4503125 61.203125 150.0803125 61.203125 153.8203125 61.203125 C154.1503125 62.523125 154.4803125 63.843125 154.8203125 65.203125 C157.4603125 65.203125 160.1003125 65.203125 162.8203125 65.203125 C162.8203125 66.193125 162.8203125 67.183125 162.8203125 68.203125 C155.0703125 68.328125 155.0703125 68.328125 152.8203125 67.203125 C152.8203125 65.883125 152.8203125 64.563125 152.8203125 63.203125 C149.8503125 63.203125 146.8803125 63.203125 143.8203125 63.203125 C144.1503125 64.193125 144.4803125 65.183125 144.8203125 66.203125 C143.1703125 67.523125 141.5203125 68.843125 139.8203125 70.203125 C140.40039062 71.19570312 140.98046875 72.18828125 141.578125 73.2109375 C148.57844581 85.31988479 154.14417705 97.32565416 158.0703125 110.765625 C158.43999146 112.02282349 158.43999146 112.02282349 158.81713867 113.30541992 C162.22926882 125.51148107 163.17074658 137.4542966 163.13598633 150.05810547 C163.13283474 152.43634331 163.1563523 154.81332166 163.18164062 157.19140625 C163.21487217 165.05762848 162.82818648 172.67650573 161.48828125 180.4375 C161.31357048 181.45713837 161.31357048 181.45713837 161.1353302 182.49737549 C160.25458697 187.08495879 158.76945808 190.99321602 156.8203125 195.203125 C155.31733964 191.23527665 156.30162309 188.00342378 157.1953125 183.953125 C159.52689401 173.2757891 160.09539586 162.92161502 160.1328125 152.015625 C160.13576324 151.26145294 160.13871399 150.50728088 160.14175415 149.73025513 C160.16416776 124.51428082 153.50028068 102.38655812 142.4453125 79.828125 C142.10677246 79.08433594 141.76823242 78.34054688 141.41943359 77.57421875 C139.45950177 73.60488729 139.45950177 73.60488729 135.74902344 71.51074219 C133.29040767 71.15030555 133.29040767 71.15030555 129.8203125 71.203125 C129.8203125 72.853125 129.8203125 74.503125 129.8203125 76.203125 C125.2003125 76.203125 120.5803125 76.203125 115.8203125 76.203125 C115.4903125 71.583125 115.1603125 66.963125 114.8203125 62.203125 C113.5003125 62.203125 112.1803125 62.203125 110.8203125 62.203125 C110.8203125 60.553125 110.8203125 58.903125 110.8203125 57.203125 C109.1703125 57.203125 107.5203125 57.203125 105.8203125 57.203125 C105.8203125 53.903125 105.8203125 50.603125 105.8203125 47.203125 C104.1703125 47.203125 102.5203125 47.203125 100.8203125 47.203125 C100.8203125 45.883125 100.8203125 44.563125 100.8203125 43.203125 C99.1703125 43.203125 97.5203125 43.203125 95.8203125 43.203125 C95.8203125 41.553125 95.8203125 39.903125 95.8203125 38.203125 C94.5003125 38.203125 93.1803125 38.203125 91.8203125 38.203125 C91.8203125 36.553125 91.8203125 34.903125 91.8203125 33.203125 C90.1703125 33.203125 88.5203125 33.203125 86.8203125 33.203125 C86.85616455 32.4706958 86.8920166 31.7382666 86.92895508 30.98364258 C86.98266088 25.19070275 86.98266088 25.19070275 84.09130859 20.45458984 C81.61961908 19.0299095 79.16199473 17.93730199 76.5078125 16.890625 C75.56591064 16.48384521 74.62400879 16.07706543 73.65356445 15.65795898 C53.26706638 7.10307769 32.7020081 2.58861154 10.6328125 2.765625 C9.82493286 2.76866638 9.01705322 2.77170776 8.18469238 2.77484131 C-28.33164821 2.97763976 -61.9275638 15.85491612 -89.1796875 40.203125 C-90.28570312 41.12738281 -90.28570312 41.12738281 -91.4140625 42.0703125 C-111.24087282 58.64552593 -127.62127913 84.50118331 -133.57421875 109.87109375 C-134.1796875 112.203125 -134.1796875 112.203125 -135.11694336 114.37353516 C-139.48262309 125.99729535 -139.61916906 138.82215422 -139.4609375 151.07397461 C-139.42912939 153.55923163 -139.41988264 156.04385419 -139.4140625 158.52929688 C-139.4049135 160.12500777 -139.39454455 161.72071225 -139.3828125 163.31640625 C-139.37856262 164.05176102 -139.37431274 164.78711578 -139.36993408 165.54475403 C-139.32295161 168.89742597 -139.21652859 171.99650173 -138.1796875 175.203125 C-139.1696875 175.533125 -140.1596875 175.863125 -141.1796875 176.203125 C-142.23331107 171.87672281 -142.35703869 167.64708178 -142.3828125 163.21875 C-142.38851257 162.44488953 -142.39421265 161.67102905 -142.40008545 160.87371826 C-142.40951342 159.23304599 -142.41606066 157.59235497 -142.41992188 155.95166016 C-142.42949426 153.50256603 -142.46048021 151.0543614 -142.4921875 148.60546875 C-142.75635483 109.47729064 -125.95652097 72.46813767 -98.70751953 44.73486328 C-73.10044448 19.06231792 -36.89008687 0.21778678 0 0 Z " fill="#EFF3F4" transform="translate(142.1796875,-0.203125)"/>
<path d="M0 0 C1.65 0 3.3 0 5 0 C5 1.65 5 3.3 5 5 C9.29 5 13.58 5 18 5 C-5.63231518 29.37082503 -41.13931173 45.68159185 -75.3125 46.23828125 C-103.0216243 46.63774141 -129.57261113 44.35606691 -154 30 C-154 29.67 -154 29.34 -154 29 C-150.37 29 -146.74 29 -143 29 C-143 27.35 -143 25.7 -143 24 C-139.7 24 -136.4 24 -133 24 C-133 22.35 -133 20.7 -133 19 C-138.94 19 -144.88 19 -151 19 C-151 18.67 -151 18.34 -151 18 C-145.72 18 -140.44 18 -135 18 C-135 17.34 -135 16.68 -135 16 C-135.99 16 -136.98 16 -138 16 C-138 14.02 -138 12.04 -138 10 C-136.35 10 -134.7 10 -133 10 C-133 11.65 -133 13.3 -133 15 C-131.35 15 -129.7 15 -128 15 C-128 16.65 -128 18.3 -128 20 C-125.03 20 -122.06 20 -119 20 C-119 21.32 -119 22.64 -119 24 C-117.35 24 -115.7 24 -114 24 C-114 25.65 -114 27.3 -114 29 C-112.35 29 -110.7 29 -109 29 C-109 30.32 -109 31.64 -109 33 C-107.68 33 -106.36 33 -105 33 C-105 36.3 -105 39.6 -105 43 C-101.7 43 -98.4 43 -95 43 C-95 41.68 -95 40.36 -95 39 C-91.7 39 -88.4 39 -85 39 C-85 40.32 -85 41.64 -85 43 C-80.38 43 -75.76 43 -71 43 C-71 41.68 -71 40.36 -71 39 C-66.38 39 -61.76 39 -57 39 C-57 37.35 -57 35.7 -57 34 C-53.7 34 -50.4 34 -47 34 C-47 32.35 -47 30.7 -47 29 C-44.03 29 -41.06 29 -38 29 C-38 27.35 -38 25.7 -38 24 C-35.03 24 -32.06 24 -29 24 C-29 22.35 -29 20.7 -29 19 C-27.35 19 -25.7 19 -24 19 C-24 17.68 -24 16.36 -24 15 C-20.7 15 -17.4 15 -14 15 C-14 13.35 -14 11.7 -14 10 C-12.35 10 -10.7 10 -9 10 C-9 8.35 -9 6.7 -9 5 C-6.03 5 -3.06 5 0 5 C0 3.35 0 1.7 0 0 Z " fill="#2A2A32" transform="translate(238,257)"/>
<path d="M0 0 C1.32 0 2.64 0 4 0 C4 1.65 4 3.3 4 5 C5.65 5 7.3 5 9 5 C9 6.32 9 7.64 9 9 C10.65 9 12.3 9 14 9 C14 10.65 14 12.3 14 14 C15.32 14 16.64 14 18 14 C18.66 15.32 19.32 16.64 20 18 C25.94 18.33 31.88 18.66 38 19 C38 20.32 38 21.64 38 23 C44.27 23 50.54 23 57 23 C57 24.65 57 26.3 57 28 C63.27 28 69.54 28 76 28 C76 29.65 76 31.3 76 33 C77.32 33 78.64 33 80 33 C80.19682269 36.43703301 80.38085152 39.87463427 80.5625 43.3125 C80.64661133 44.77719727 80.64661133 44.77719727 80.73242188 46.27148438 C80.80493164 47.67817383 80.80493164 47.67817383 80.87890625 49.11328125 C80.94960327 50.40939331 80.94960327 50.40939331 81.02172852 51.73168945 C81 54 81 54 80 57 C78.68 57 77.36 57 76 57 C76 58.32 76 59.64 76 61 C68.08 61 60.16 61 52 61 C52 59.68 52 58.36 52 57 C51.36191406 57.01160156 50.72382813 57.02320313 50.06640625 57.03515625 C49.24011719 57.04417969 48.41382813 57.05320313 47.5625 57.0625 C46.73878906 57.07410156 45.91507813 57.08570313 45.06640625 57.09765625 C43 57 43 57 42 56 C41.85806663 52.99668982 41.95763622 50.00782866 42 47 C39.03 47 36.06 47 33 47 C33 45.68 33 44.36 33 43 C31.68 43 30.36 43 29 43 C28.505 40.525 28.505 40.525 28 38 C26.68 38 25.36 38 24 38 C24 34.7 24 31.4 24 28 C20.7 28 17.4 28 14 28 C14 24.7 14 21.4 14 18 C12.35 18 10.7 18 9 18 C9 16.68 9 15.36 9 14 C7.35 14 5.7 14 4 14 C4 12.35 4 10.7 4 9 C2.68 9 1.36 9 0 9 C0 6.03 0 3.06 0 0 Z " fill="#77422C" transform="translate(129,191)"/>
<path d="M0 0 C1.32 0 2.64 0 4 0 C4 1.32 4 2.64 4 4 C6.97 4 9.94 4 13 4 C13 5.65 13 7.3 13 9 C14.65 9 16.3 9 18 9 C18 10.65 18 12.3 18 14 C19.65 14 21.3 14 23 14 C23 15.32 23 16.64 23 18 C24.65 18 26.3 18 28 18 C28 21.3 28 24.6 28 28 C29.65 28 31.3 28 33 28 C33 29.65 33 31.3 33 33 C31.35 33 29.7 33 28 33 C28 34.65 28 36.3 28 38 C26.35 38 24.7 38 23 38 C23 39.32 23 40.64 23 42 C21.35 42 19.7 42 18 42 C18 43.65 18 45.3 18 47 C15.03 47 12.06 47 9 47 C9 50.3 9 53.6 9 57 C4.05 57 -0.9 57 -6 57 C-6 53.7 -6 50.4 -6 47 C-7.32 47 -8.64 47 -10 47 C-10 40.73 -10 34.46 -10 28 C-11.65 28 -13.3 28 -15 28 C-15 20.08 -15 12.16 -15 4 C-13.35 4 -11.7 4 -10 4 C-10 7.3 -10 10.6 -10 14 C-8.68 14 -7.36 14 -6 14 C-6 15.65 -6 17.3 -6 19 C-4.35 19 -2.7 19 -1 19 C-1 20.65 -1 22.3 -1 24 C0.65 24 2.3 24 4 24 C4 22.02 4 20.04 4 18 C2.68 18 1.36 18 0 18 C0 12.06 0 6.12 0 0 Z " fill="#A38473" transform="translate(120,129)"/>
<path d="M0 0 C2.97 0 5.94 0 9 0 C9 1.65 9 3.3 9 5 C13.95 5 18.9 5 24 5 C24 9.95 24 14.9 24 20 C22.35 20 20.7 20 19 20 C19 21.32 19 22.64 19 24 C22.3 24 25.6 24 29 24 C29 28.62 29 33.24 29 38 C31.97 38 34.94 38 38 38 C38 33.38 38 28.76 38 24 C39.65 24 41.3 24 43 24 C43 31.92 43 39.84 43 48 C44.65 48 46.3 48 48 48 C48 46.35 48 44.7 48 43 C49.32 43 50.64 43 52 43 C52 41.35 52 39.7 52 38 C53.65 38 55.3 38 57 38 C57 36.68 57 35.36 57 34 C58.65 34 60.3 34 62 34 C62 29.05 62 24.1 62 19 C60.35 19 58.7 19 57 19 C57 17.68 57 16.36 57 15 C55.68 15 54.36 15 53 15 C53 13.35 53 11.7 53 10 C55.97 10 58.94 10 62 10 C62 11.32 62 12.64 62 14 C63.65 14 65.3 14 67 14 C67 15.98 67 17.96 67 20 C68.32 20 69.64 20 71 20 C71 24.62 71 29.24 71 34 C69.68 34 68.36 34 67 34 C67 36.97 67 39.94 67 43 C63.7 43 60.4 43 57 43 C57 46.3 57 49.6 57 53 C52.38 53 47.76 53 43 53 C43 63.89 43 74.78 43 86 C41.35 86 39.7 86 38 86 C38 75.11 38 64.22 38 53 C34.7 53 31.4 53 28 53 C28.33 49.7 28.66 46.4 29 43 C25.7 43 22.4 43 19 43 C19 38.38 19 33.76 19 29 C17.35 29 15.7 29 14 29 C14 27.35 14 25.7 14 24 C12.68 24 11.36 24 10 24 C10 27.3 10 30.6 10 34 C9.67 34 9.34 34 9 34 C9 30.7 9 27.4 9 24 C7.68 24 6.36 24 5 24 C5 17.73 5 11.46 5 5 C3.35 5 1.7 5 0 5 C0 3.35 0 1.7 0 0 Z " fill="#A28473" transform="translate(205,95)"/>
<path d="M0 0 C6.27 0 12.54 0 19 0 C19 1.65 19 3.3 19 5 C20.32 5 21.64 5 23 5 C23 6.65 23 8.3 23 10 C24.65 10 26.3 10 28 10 C28 11.65 28 13.3 28 15 C29.65 15 31.3 15 33 15 C33 16.32 33 17.64 33 19 C39.27 19 45.54 19 52 19 C52 17.68 52 16.36 52 15 C55.3 15 58.6 15 62 15 C62 16.32 62 17.64 62 19 C63.65 19 65.3 19 67 19 C67 20.65 67 22.3 67 24 C68.32 24 69.64 24 71 24 C71 25.65 71 27.3 71 29 C69.68 29 68.36 29 67 29 C67 33.62 67 38.24 67 43 C63.7 43 60.4 43 57 43 C57 47.62 57 52.24 57 57 C54.03 57 51.06 57 48 57 C48 52.38 48 47.76 48 43 C44.7 43 41.4 43 38 43 C38 41.68 38 40.36 38 39 C39.65 39 41.3 39 43 39 C43 34.05 43 29.1 43 24 C38.05 24 33.1 24 28 24 C28 22.35 28 20.7 28 19 C23.38 19 18.76 19 14 19 C14 17.68 14 16.36 14 15 C10.7 15 7.4 15 4 15 C4 13.35 4 11.7 4 10 C2.68 10 1.36 10 0 10 C0 6.7 0 3.4 0 0 Z " fill="#834A32" transform="translate(186,76)"/>
<path d="M0 0 C4.62 0 9.24 0 14 0 C14 3.3 14 6.6 14 10 C17.3 10 20.6 10 24 10 C24 8.35 24 6.7 24 5 C25.32 5 26.64 5 28 5 C28 3.35 28 1.7 28 0 C29.98 0 31.96 0 34 0 C34 1.98 34 3.96 34 6 C32.35 6 30.7 6 29 6 C29 10.29 29 14.58 29 19 C27.35 19 25.7 19 24 19 C24 26.92 24 34.84 24 43 C20.7 43 17.4 43 14 43 C14 41.68 14 40.36 14 39 C12.68 39 11.36 39 10 39 C10 40.32 10 41.64 10 43 C7.525 43.495 7.525 43.495 5 44 C4.67 45.32 4.34 46.64 4 48 C2.68 48 1.36 48 0 48 C0 45.03 0 42.06 0 39 C-1.65 39 -3.3 39 -5 39 C-5 34.05 -5 29.1 -5 24 C-6.65 24 -8.3 24 -10 24 C-9.505 19.545 -9.505 19.545 -9 15 C-7.68 15 -6.36 15 -5 15 C-5 11.7 -5 8.4 -5 5 C-3.35 5 -1.7 5 0 5 C0 3.35 0 1.7 0 0 Z " fill="#844A31" transform="translate(81,114)"/>
<path d="M0 0 C0.77103058 -0.00570007 1.54206116 -0.01140015 2.3364563 -0.01727295 C3.9651759 -0.02667458 5.59391411 -0.03323756 7.22265625 -0.03710938 C9.65400797 -0.04671187 12.08447475 -0.07773742 14.515625 -0.109375 C39.81869624 -0.2808035 62.34237645 6.96415697 84.8203125 18.203125 C85.1503125 15.233125 85.4803125 12.263125 85.8203125 9.203125 C87.4703125 9.203125 89.1203125 9.203125 90.8203125 9.203125 C90.8203125 6.233125 90.8203125 3.263125 90.8203125 0.203125 C91.4803125 0.203125 92.1403125 0.203125 92.8203125 0.203125 C92.8203125 3.503125 92.8203125 6.803125 92.8203125 10.203125 C91.1703125 10.533125 89.5203125 10.863125 87.8203125 11.203125 C87.09772484 14.42192459 86.88738329 17.01392676 87.8203125 20.203125 C90.42591209 22.48302464 93.07988421 24.04948146 96.12109375 25.6953125 C98.49138372 27.01938186 100.04829538 28.18314644 101.8203125 30.203125 C101.4903125 30.533125 101.1603125 30.863125 100.8203125 31.203125 C102.8003125 33.183125 102.8003125 33.183125 104.8203125 35.203125 C104.1603125 35.203125 103.5003125 35.203125 102.8203125 35.203125 C102.4903125 38.833125 102.1603125 42.463125 101.8203125 46.203125 C101.4903125 45.213125 101.1603125 44.223125 100.8203125 43.203125 C99.1703125 43.203125 97.5203125 43.203125 95.8203125 43.203125 C95.8203125 41.553125 95.8203125 39.903125 95.8203125 38.203125 C94.5003125 38.203125 93.1803125 38.203125 91.8203125 38.203125 C91.8203125 36.553125 91.8203125 34.903125 91.8203125 33.203125 C90.1703125 33.203125 88.5203125 33.203125 86.8203125 33.203125 C86.85616455 32.4706958 86.8920166 31.7382666 86.92895508 30.98364258 C86.98266088 25.19070275 86.98266088 25.19070275 84.09130859 20.45458984 C81.61961908 19.0299095 79.16199473 17.93730199 76.5078125 16.890625 C75.56591064 16.48384521 74.62400879 16.07706543 73.65356445 15.65795898 C53.26706638 7.10307769 32.7020081 2.58861154 10.6328125 2.765625 C9.82493286 2.76866638 9.01705322 2.77170776 8.18469238 2.77484131 C-28.33164821 2.97763976 -61.9275638 15.85491612 -89.1796875 40.203125 C-90.28570312 41.12738281 -90.28570312 41.12738281 -91.4140625 42.0703125 C-111.24087282 58.64552593 -127.62127913 84.50118331 -133.57421875 109.87109375 C-134.1796875 112.203125 -134.1796875 112.203125 -135.11694336 114.37353516 C-139.48262309 125.99729535 -139.61916906 138.82215422 -139.4609375 151.07397461 C-139.42912939 153.55923163 -139.41988264 156.04385419 -139.4140625 158.52929688 C-139.4049135 160.12500777 -139.39454455 161.72071225 -139.3828125 163.31640625 C-139.37856262 164.05176102 -139.37431274 164.78711578 -139.36993408 165.54475403 C-139.32295161 168.89742597 -139.21652859 171.99650173 -138.1796875 175.203125 C-139.1696875 175.533125 -140.1596875 175.863125 -141.1796875 176.203125 C-142.23331107 171.87672281 -142.35703869 167.64708178 -142.3828125 163.21875 C-142.38851257 162.44488953 -142.39421265 161.67102905 -142.40008545 160.87371826 C-142.40951342 159.23304599 -142.41606066 157.59235497 -142.41992188 155.95166016 C-142.42949426 153.50256603 -142.46048021 151.0543614 -142.4921875 148.60546875 C-142.75635483 109.47729064 -125.95652097 72.46813767 -98.70751953 44.73486328 C-73.10044448 19.06231792 -36.89008687 0.21778678 0 0 Z " fill="#D5E4F2" transform="translate(142.1796875,-0.203125)"/>
<path d="M0 0 C2.04991702 3.56038219 2.85213385 7.28609782 3.75 11.25 C13.03684757 49.67334528 37.56301223 82.16578559 71 103 C102.98692196 122.46720223 143.64122504 130.2667241 180.4831543 121.76855469 C182.66700621 121.21439017 184.83313838 120.61694667 187 120 C187.69641602 119.81276367 188.39283203 119.62552734 189.11035156 119.43261719 C220.76715966 110.84746876 254.6217952 90.72017475 272 62 C272.79682803 58.26774656 272.79682803 58.26774656 273 55 C274.65 55 276.3 55 278 55 C278 52.03 278 49.06 278 46 C279.65 46 281.3 46 283 46 C282.938125 45.236875 282.87625 44.47375 282.8125 43.6875 C283 41 283 41 284.3203125 39.79296875 C286.79481158 37.15158484 287.80422582 33.95894387 289.0625 30.625 C289.31837891 29.965 289.57425781 29.305 289.83789062 28.625 C290.56360975 26.75193573 291.28198772 24.87603208 292 23 C292.66326855 21.3319781 293.32834964 19.66466453 294 18 C294.33 18 294.66 18 295 18 C294.6083965 23.95507399 293.62875405 28.62819824 291 34 C292.65 34.33 294.3 34.66 296 35 C296 33.68 296 32.36 296 31 C297.98 31 299.96 31 302 31 C302 31.66 302 32.32 302 33 C300.68 33 299.36 33 298 33 C298 34.32 298 35.64 298 37 C295.03 37 292.06 37 289 37 C288.7421875 37.8559375 288.484375 38.711875 288.21875 39.59375 C276.46087658 72.45549878 244.40065853 99.43331624 213.92089844 113.99316406 C206.07071412 117.57814285 198.04931808 120.45544404 189.75 122.8125 C189.06631348 123.0074707 188.38262695 123.20244141 187.67822266 123.40332031 C175.30155377 126.7158392 162.98676248 127.44401897 150.25 127.4375 C149.03461548 127.43810425 149.03461548 127.43810425 147.79467773 127.4387207 C115.00075372 127.34525399 82.90187164 117.58559243 57 97 C55.68515625 95.98873047 55.68515625 95.98873047 54.34375 94.95703125 C27.71591624 73.95317962 6.90114231 43.56503539 0 10 C-0.3249117 6.52467863 -0.27693716 3.48940819 0 0 Z " fill="#E6E6E7" transform="translate(3,178)"/>
<path d="M0 0 C1.65 0 3.3 0 5 0 C5 10.89 5 21.78 5 33 C6.65 33 8.3 33 10 33 C10 43.89 10 54.78 10 66 C11.32 66 12.64 66 14 66 C14 69.3 14 72.6 14 76 C15.65 76 17.3 76 19 76 C19 77.65 19 79.3 19 81 C20.65 81 22.3 81 24 81 C24 83.97 24 86.94 24 90 C25.32 90 26.64 90 28 90 C28 93.3 28 96.6 28 100 C29.65 100 31.3 100 33 100 C33 102.97 33 105.94 33 109 C31.68 109 30.36 109 29 109 C28.67 107.68 28.34 106.36 28 105 C26.68 104.67 25.36 104.34 24 104 C24 102.68 24 101.36 24 100 C22.35 100 20.7 100 19 100 C19 98.35 19 96.7 19 95 C17.35 95 15.7 95 14 95 C14 93.68 14 92.36 14 91 C11.03 91 8.06 91 5 91 C5 89.35 5 87.7 5 86 C3.35 86 1.7 86 0 86 C1.98 85.505 1.98 85.505 4 85 C4 63.22 4 41.44 4 19 C2.68 19 1.36 19 0 19 C0 12.73 0 6.46 0 0 Z " fill="#B4ABA8" transform="translate(105,186)"/>
<path d="M0 0 C1.65 0 3.3 0 5 0 C5 2.97 5 5.94 5 9 C7.97 9 10.94 9 14 9 C14 13.62 14 18.24 14 23 C15.65 23 17.3 23 19 23 C19 24.65 19 26.3 19 28 C21.97 28 24.94 28 28 28 C28 29.65 28 31.3 28 33 C30.97 33 33.94 33 37 33 C37 34.32 37 35.64 37 37 C41.95 37 46.9 37 52 37 C52 35.68 52 34.36 52 33 C53.65 33 55.3 33 57 33 C57 29.7 57 26.4 57 23 C59.97 23 62.94 23 66 23 C66 26.3 66 29.6 66 33 C64.35 33 62.7 33 61 33 C61 35.97 61 38.94 61 42 C48.46 42 35.92 42 23 42 C23 40.35 23 38.7 23 37 C21.68 37 20.36 37 19 37 C19 35.68 19 34.36 19 33 C17.35 33 15.7 33 14 33 C14 31.35 14 29.7 14 28 C12.35 28 10.7 28 9 28 C9 26.35 9 24.7 9 23 C7.68 23 6.36 23 5 23 C5 21.35 5 19.7 5 18 C1.7 18 -1.6 18 -5 18 C-5 16.35 -5 14.7 -5 13 C-2.03 13 0.94 13 4 13 C4 11.68 4 10.36 4 9 C2.68 9 1.36 9 0 9 C0 6.03 0 3.06 0 0 Z " fill="#A0938C" transform="translate(148,96)"/>
<path d="M0 0 C1.65 0 3.3 0 5 0 C5 1.65 5 3.3 5 5 C6.65 5 8.3 5 10 5 C10 6.65 10 8.3 10 10 C12.97 10 15.94 10 19 10 C19 11.32 19 12.64 19 14 C20.65 14 22.3 14 24 14 C24 15.65 24 17.3 24 19 C25.65 19 27.3 19 29 19 C29 20.32 29 21.64 29 23 C30.32 23.33 31.64 23.66 33 24 C31.68 24 30.36 24 29 24 C29 25.65 29 27.3 29 29 C27.35 29 25.7 29 24 29 C24.495 31.475 24.495 31.475 25 34 C17.23155679 33.22631358 10.16138225 31.23695906 2.8125 28.6875 C1.98202148 28.40382568 1.15154297 28.12015137 0.29589844 27.82788086 C-5.48714012 25.76553883 -10.72376907 23.13273732 -16 20 C-16 19.67 -16 19.34 -16 19 C-12.37 19 -8.74 19 -5 19 C-5 17.35 -5 15.7 -5 14 C-1.7 14 1.6 14 5 14 C5 12.35 5 10.7 5 9 C-0.94 9 -6.88 9 -13 9 C-13 8.67 -13 8.34 -13 8 C-7.72 8 -2.44 8 3 8 C3 7.34 3 6.68 3 6 C2.01 6 1.02 6 0 6 C0 4.02 0 2.04 0 0 Z " fill="#535F68" transform="translate(100,267)"/>
<path d="M0 0 C2.97 0 5.94 0 9 0 C9 1.65 9 3.3 9 5 C12.3 5 15.6 5 19 5 C19 6.32 19 7.64 19 9 C20.65 9 22.3 9 24 9 C24 10.65 24 12.3 24 14 C25.65 14 27.3 14 29 14 C29 20.27 29 26.54 29 33 C27.35 33 25.7 33 24 33 C24 36.3 24 39.6 24 43 C22.35 43 20.7 43 19 43 C19 44.32 19 45.64 19 47 C14.38 47 9.76 47 5 47 C5 45.35 5 43.7 5 42 C2.03 42 -0.94 42 -4 42 C-3.67 40.68 -3.34 39.36 -3 38 C-3 38.99 -3 39.98 -3 41 C-0.36 41 2.28 41 5 41 C5 40.01 5 39.02 5 38 C9.455 37.505 9.455 37.505 14 37 C14.33 35.68 14.66 34.36 15 33 C16.32 33 17.64 33 19 33 C19 28.38 19 23.76 19 19 C17.35 19 15.7 19 14 19 C14 17.35 14 15.7 14 14 C11.03 14 8.06 14 5 14 C5 11.03 5 8.06 5 5 C3.35 5 1.7 5 0 5 C0 3.35 0 1.7 0 0 Z " fill="#76422D" transform="translate(181,86)"/>
<path d="M0 0 C2.97 0 5.94 0 9 0 C9 1.65 9 3.3 9 5 C12.3 5 15.6 5 19 5 C19 6.32 19 7.64 19 9 C20.32 9 21.64 9 23 9 C23 10.98 23 12.96 23 15 C21.68 15 20.36 15 19 15 C19 16.32 19 17.64 19 19 C17.35 19 15.7 19 14 19 C14 23.62 14 28.24 14 33 C11.03 33 8.06 33 5 33 C5 28.38 5 23.76 5 19 C1.7 19 -1.6 19 -5 19 C-5 17.68 -5 16.36 -5 15 C-3.35 15 -1.7 15 0 15 C0 10.05 0 5.1 0 0 Z " fill="#703F2C" transform="translate(229,100)"/>
<path d="M0 0 C1.32 0 2.64 0 4 0 C4 1.65 4 3.3 4 5 C5.65 5 7.3 5 9 5 C9 6.65 9 8.3 9 10 C12.3 10 15.6 10 19 10 C19 11.32 19 12.64 19 14 C21.97 14 24.94 14 28 14 C28 15.65 28 17.3 28 19 C31.3 19 34.6 19 38 19 C38 20.65 38 22.3 38 24 C39.65 24 41.3 24 43 24 C43 25.65 43 27.3 43 29 C41.35 29 39.7 29 38 29 C37.67 27.35 37.34 25.7 37 24 C32.38 24 27.76 24 23 24 C23 22.35 23 20.7 23 19 C21.35 19 19.7 19 18 19 C18 17.68 18 16.36 18 15 C12.39 15 6.78 15 1 15 C0.67 13.35 0.34 11.7 0 10 C-9.57 10 -19.14 10 -29 10 C-29 8.35 -29 6.7 -29 5 C-19.43 5 -9.86 5 0 5 C0 3.35 0 1.7 0 0 Z " fill="#18171D" transform="translate(191,19)"/>
<path d="M0 0 C1.65 0 3.3 0 5 0 C5 1.65 5 3.3 5 5 C9.29 5 13.58 5 18 5 C16.35623271 6.69513502 14.69414081 8.35580929 13 10 C12.46503906 10.51949219 11.93007812 11.03898437 11.37890625 11.57421875 C5.18856394 17.28530875 -1.86685079 21.58185562 -9 26 C-9.33 25.34 -9.66 24.68 -10 24 C-12.97 24 -15.94 24 -19 24 C-19 21.03 -19 18.06 -19 15 C-17.35 15 -15.7 15 -14 15 C-14 13.35 -14 11.7 -14 10 C-12.35 10 -10.7 10 -9 10 C-9 8.35 -9 6.7 -9 5 C-6.03 5 -3.06 5 0 5 C0 3.35 0 1.7 0 0 Z " fill="#1D1E23" transform="translate(238,257)"/>
<path d="M0 0 C2.97 0 5.94 0 9 0 C9 1.65 9 3.3 9 5 C13.62 5 18.24 5 23 5 C23.495 11.93 23.495 11.93 24 19 C25.32 19 26.64 19 28 19 C28 26.92 28 34.84 28 43 C27.67 43 27.34 43 27 43 C27 38.38 27 33.76 27 29 C24.36 29 21.72 29 19 29 C19 24.38 19 19.76 19 15 C15.7 15 12.4 15 9 15 C9 13.35 9 11.7 9 10 C6.03 10 3.06 10 0 10 C0 6.7 0 3.4 0 0 Z " fill="#18171C" transform="translate(229,52)"/>
<path d="M0 0 C1.65 0 3.3 0 5 0 C5 1.65 5 3.3 5 5 C9.62 5 14.24 5 19 5 C19 6.65 19 8.3 19 10 C17.35 10 15.7 10 14 10 C14 11.65 14 13.3 14 15 C6.41 15 -1.18 15 -9 15 C-9.66 16.32 -10.32 17.64 -11 19 C-11 17.68 -11 16.36 -11 15 C-11.66 15 -12.32 15 -13 15 C-13.33 16.32 -13.66 17.64 -14 19 C-14 16.03 -14 13.06 -14 10 C-15.65 10 -17.3 10 -19 10 C-19 9.67 -19 9.34 -19 9 C-16.03 9 -13.06 9 -10 9 C-10 7.68 -10 6.36 -10 5 C-6.7 5 -3.4 5 0 5 C0 3.35 0 1.7 0 0 Z " fill="#B2A39D" transform="translate(167,76)"/>
<path d="M0 0 C2.27076842 -0.02699725 4.54162821 -0.04639453 6.8125 -0.0625 C8.70935547 -0.07990234 8.70935547 -0.07990234 10.64453125 -0.09765625 C14 0 14 0 17 1 C17 1.66 17 2.32 17 3 C17.66 3.33 18.32 3.66 19 4 C19 5.65 19 7.3 19 9 C15.7 9 12.4 9 9 9 C9 10.65 9 12.3 9 14 C0.22854179 16.05631255 -4.99467552 14.60564332 -12.45361328 10.16015625 C-15.3709665 8.31463677 -17.06072523 6.90891216 -19 4 C-12.73 4 -6.46 4 0 4 C0 2.68 0 1.36 0 0 Z " fill="#748594" transform="translate(86,272)"/>
<path d="M0 0 C0.66 0 1.32 0 2 0 C2 3.3 2 6.6 2 10 C0.35 10.33 -1.3 10.66 -3 11 C-3.72258766 14.21879959 -3.93292921 16.81080176 -3 20 C-0.39440041 22.27989964 2.25957171 23.84635646 5.30078125 25.4921875 C7.67107122 26.81625686 9.22798288 27.98002144 11 30 C10.505 30.495 10.505 30.495 10 31 C11.32 32.32 12.64 33.64 14 35 C13.34 35 12.68 35 12 35 C11.67 38.63 11.34 42.26 11 46 C10.67 45.01 10.34 44.02 10 43 C8.35 43 6.7 43 5 43 C5 41.35 5 39.7 5 38 C3.68 38 2.36 38 1 38 C1 36.35 1 34.7 1 33 C-0.65 33 -2.3 33 -4 33 C-3.77763672 31.96552734 -3.77763672 31.96552734 -3.55078125 30.91015625 C-3.2429232 27.2310002 -3.36391217 25.35851275 -5 22 C-10.12643592 18.29016613 -16.27454455 16.10316367 -22.15820312 13.87866211 C-24 13 -24 13 -25 11 C-20.21357393 11.5746621 -16.46211213 12.98245643 -12.125 15.0625 C-10.39636719 15.88427734 -10.39636719 15.88427734 -8.6328125 16.72265625 C-7.76398438 17.14417969 -6.89515625 17.56570312 -6 18 C-5.67 15.03 -5.34 12.06 -5 9 C-3.35 9 -1.7 9 0 9 C0 6.03 0 3.06 0 0 Z " fill="#EDF1F2" transform="translate(233,0)"/>
<path d="M0 0 C1.65 0 3.3 0 5 0 C5 1.65 5 3.3 5 5 C6.65 5 8.3 5 10 5 C10 7.97 10 10.94 10 14 C11.32 14 12.64 14 14 14 C14 17.3 14 20.6 14 24 C15.65 24 17.3 24 19 24 C19 26.97 19 29.94 19 33 C17.68 33 16.36 33 15 33 C14.67 31.68 14.34 30.36 14 29 C12.68 28.67 11.36 28.34 10 28 C10 26.68 10 25.36 10 24 C8.35 24 6.7 24 5 24 C5 22.35 5 20.7 5 19 C3.35 19 1.7 19 0 19 C0 17.68 0 16.36 0 15 C-2.97 15 -5.94 15 -9 15 C-9 14.67 -9 14.34 -9 14 C-6.03 14 -3.06 14 0 14 C0 9.38 0 4.76 0 0 Z " fill="#A28473" transform="translate(119,262)"/>
<path d="M0 0 C13.86 0 27.72 0 42 0 C42 1.65 42 3.3 42 5 C29.79 5 17.58 5 5 5 C5 6.65 5 8.3 5 10 C0.05 10 -4.9 10 -10 10 C-10 8.35 -10 6.7 -10 5 C-6.7 5 -3.4 5 0 5 C0 3.35 0 1.7 0 0 Z " fill="#56636D" transform="translate(153,14)"/>
<path d="M0 0 C2.04991702 3.56038219 2.85213385 7.28609782 3.75 11.25 C13.01157867 49.56879788 36.90805816 79.85008626 69 102 C67.3828125 102.7734375 67.3828125 102.7734375 65 103 C62.7643043 101.62465333 60.88573936 100.2792148 58.875 98.625 C58.01503418 97.93869507 58.01503418 97.93869507 57.13769531 97.23852539 C51.909457 93.02494936 46.88572427 88.60607002 42 84 C40.91332031 83.01 40.91332031 83.01 39.8046875 82 C20.47182624 63.70653988 2.21047325 33.64366961 -0.30859375 6.69921875 C-0.3125 3.9375 -0.3125 3.9375 0 0 Z " fill="#D9E6F1" transform="translate(3,178)"/>
<path d="M0 0 C15.90580656 18.67047271 24.06071163 48.05682071 24.203125 72.1796875 C24.20882507 72.95071808 24.21452515 73.72174866 24.22039795 74.5161438 C24.22979958 76.1448634 24.23636256 77.77360161 24.24023438 79.40234375 C24.24983687 81.83369547 24.28086242 84.26416225 24.3125 86.6953125 C24.3672264 94.66935506 24.03485397 102.38939109 22.671875 110.2578125 C22.55515442 110.936091 22.43843384 111.61436951 22.31817627 112.3132019 C21.43447424 116.89098973 19.94445355 120.79744941 18 125 C16.49702714 121.03215165 17.48131059 117.80029878 18.375 113.75 C20.70658151 103.0726641 21.27508336 92.71849002 21.3125 81.8125 C21.31545074 81.05832794 21.31840149 80.30415588 21.32144165 79.52713013 C21.34389843 54.26258662 15.15640794 30.89578487 2.5402832 8.92333984 C0.64940041 5.56392213 0 3.96895874 0 0 Z " fill="#D3E3F2" transform="translate(281,70)"/>
<path d="M0 0 C7.92 0 15.84 0 24 0 C24 1.32 24 2.64 24 4 C21.03 4 18.06 4 15 4 C15 5.65 15 7.3 15 9 C10.38 9 5.76 9 1 9 C1 12.3 1 15.6 1 19 C-0.65 19 -2.3 19 -4 19 C-4 14.05 -4 9.1 -4 4 C-2.68 4 -1.36 4 0 4 C0 2.68 0 1.36 0 0 Z " fill="#525F69" transform="translate(109,29)"/>
<path d="M0 0 C0.33 0 0.66 0 1 0 C0.6083965 5.95507399 -0.37124595 10.62819824 -3 16 C-1.35 16.33 0.3 16.66 2 17 C2 15.68 2 14.36 2 13 C3.98 13 5.96 13 8 13 C8 13.66 8 14.32 8 15 C6.68 15 5.36 15 4 15 C4 16.32 4 17.64 4 19 C1.03 19 -1.94 19 -5 19 C-5.2578125 19.8559375 -5.515625 20.711875 -5.78125 21.59375 C-12.29635346 39.80262889 -26.45917511 55.64277951 -40 69 C-40.99 68.67 -41.98 68.34 -43 68 C-42.23816406 67.27296875 -41.47632813 66.5459375 -40.69140625 65.796875 C-27.17717455 53.42419476 -27.17717455 53.42419476 -21 37 C-19.35 37 -17.7 37 -16 37 C-16 34.03 -16 31.06 -16 28 C-14.35 28 -12.7 28 -11 28 C-11.061875 27.236875 -11.12375 26.47375 -11.1875 25.6875 C-11 23 -11 23 -9.6796875 21.79296875 C-7.20518842 19.15158484 -6.19577418 15.95894387 -4.9375 12.625 C-4.68162109 11.965 -4.42574219 11.305 -4.16210938 10.625 C-3.43639025 8.75193573 -2.71801228 6.87603208 -2 5 C-1.33673145 3.3319781 -0.67165036 1.66466453 0 0 Z " fill="#E8EFF3" transform="translate(297,196)"/>
<path d="M0 0 C4.62 0 9.24 0 14 0 C14 1.65 14 3.3 14 5 C15.65 5 17.3 5 19 5 C19 6.65 19 8.3 19 10 C16.03 10 13.06 10 10 10 C10 8.35 10 6.7 10 5 C8.35 5 6.7 5 5 5 C5 6.65 5 8.3 5 10 C1.7 10 -1.6 10 -5 10 C-5 11.32 -5 12.64 -5 14 C-7.97 14 -10.94 14 -14 14 C-14 12.68 -14 11.36 -14 10 C-12.68 10 -11.36 10 -10 10 C-10 8.35 -10 6.7 -10 5 C-6.7 5 -3.4 5 0 5 C0 3.35 0 1.7 0 0 Z " fill="#814830" transform="translate(162,71)"/>
<path d="M0 0 C4.62 0 9.24 0 14 0 C14 7.59 14 15.18 14 23 C12.68 23 11.36 23 10 23 C10 20.03 10 17.06 10 14 C8.35 14 6.7 14 5 14 C5 12.35 5 10.7 5 9 C3.35 9 1.7 9 0 9 C0 6.03 0 3.06 0 0 Z " fill="#673925" transform="translate(81,129)"/>
<path d="M0 0 C2.64 0 5.28 0 8 0 C8.33 3.3 8.66 6.6 9 10 C7.35 10 5.7 10 4 10 C4 11.32 4 12.64 4 14 C-0.62 14 -5.24 14 -10 14 C-10 12.35 -10 10.7 -10 9 C-12.97 9 -15.94 9 -19 9 C-18.67 7.68 -18.34 6.36 -18 5 C-18 5.99 -18 6.98 -18 8 C-15.36 8 -12.72 8 -10 8 C-10 7.01 -10 6.02 -10 5 C-5.545 4.505 -5.545 4.505 -1 4 C-0.67 2.68 -0.34 1.36 0 0 Z " fill="#77432C" transform="translate(196,119)"/>
<path d="M0 0 C0.99 0.33 1.98 0.66 3 1 C-5.20559409 8.19868053 -13.61019024 14.44017747 -23 20 C-23.58620117 20.34804688 -24.17240234 20.69609375 -24.77636719 21.0546875 C-38.30059652 28.9568182 -60.11611233 40.97097192 -76 37 C-73.31462507 35.5571232 -70.88033442 34.6257732 -67.90234375 33.9921875 C-43.03505003 28.41551724 -21.2272281 17.6865218 -1.828125 1.1484375 C-1.22484375 0.76945312 -0.6215625 0.39046875 0 0 Z " fill="#BCBCBE" transform="translate(253,265)"/>
<path d="M0 0 C1.65 0 3.3 0 5 0 C5.33 1.65 5.66 3.3 6 5 C8.64 4.67 11.28 4.34 14 4 C14 8.95 14 13.9 14 19 C11.03 19 8.06 19 5 19 C4.67 16.03 4.34 13.06 4 10 C2.68 9.67 1.36 9.34 0 9 C0 6.03 0 3.06 0 0 Z " fill="#B5A8A3" transform="translate(148,86)"/>
<path d="M0 0 C1.65 0 3.3 0 5 0 C5 2.97 5 5.94 5 9 C7.97 9 10.94 9 14 9 C14 10.32 14 11.64 14 13 C12.35 13 10.7 13 9 13 C9 14.65 9 16.3 9 18 C4.38 18 -0.24 18 -5 18 C-5 16.35 -5 14.7 -5 13 C-2.03 13 0.94 13 4 13 C4 11.68 4 10.36 4 9 C2.68 9 1.36 9 0 9 C0 6.03 0 3.06 0 0 Z " fill="#A1816F" transform="translate(148,96)"/>
<path d="M0 0 C2.97 0 5.94 0 9 0 C9 1.32 9 2.64 9 4 C10.65 4 12.3 4 14 4 C14 5.98 14 7.96 14 10 C15.32 10 16.64 10 18 10 C18 12.97 18 15.94 18 19 C16.68 19 15.36 19 14 19 C14 17.35 14 15.7 14 14 C12.35 14 10.7 14 9 14 C9 12.35 9 10.7 9 9 C7.35 9 5.7 9 4 9 C4 7.68 4 6.36 4 5 C2.68 5 1.36 5 0 5 C0 3.35 0 1.7 0 0 Z " fill="#AD9D96" transform="translate(258,105)"/>
<path d="M0 0 C4.95 0 9.9 0 15 0 C15 1.65 15 3.3 15 5 C13.35 5 11.7 5 10 5 C10 6.65 10 8.3 10 10 C5.05 10 0.1 10 -5 10 C-5 8.35 -5 6.7 -5 5 C-3.35 5 -1.7 5 0 5 C0 3.35 0 1.7 0 0 Z " fill="#EBF1F3" transform="translate(257,224)"/>
<path d="M0 0 C0.33 0 0.66 0 1 0 C1 1.65 1 3.3 1 5 C2.32 5 3.64 5 5 5 C5 6.65 5 8.3 5 10 C3.68 10 2.36 10 1 10 C1 14.62 1 19.24 1 24 C-0.65 24 -2.3 24 -4 24 C-4 22.68 -4 21.36 -4 20 C-2.68 20 -1.36 20 0 20 C0 18.02 0 16.04 0 14 C-1.32 14 -2.64 14 -4 14 C-4 12.68 -4 11.36 -4 10 C-7.3 10 -10.6 10 -14 10 C-14 8.35 -14 6.7 -14 5 C-9.38 5 -4.76 5 0 5 C0 3.35 0 1.7 0 0 Z " fill="#9F8477" transform="translate(252,95)"/>
<path d="M0 0 C1.65 0 3.3 0 5 0 C5 1.65 5 3.3 5 5 C7.97 5 10.94 5 14 5 C14 6.32 14 7.64 14 9 C6.74 9 -0.52 9 -8 9 C-8.66 10.65 -9.32 12.3 -10 14 C-11.32 14 -12.64 14 -14 14 C-14 12.68 -14 11.36 -14 10 C-15.65 10 -17.3 10 -19 10 C-19 9.67 -19 9.34 -19 9 C-16.03 9 -13.06 9 -10 9 C-10 7.68 -10 6.36 -10 5 C-6.7 5 -3.4 5 0 5 C0 3.35 0 1.7 0 0 Z " fill="#A1816E" transform="translate(167,76)"/>
<path d="M0 0 C3.3 0 6.6 0 10 0 C10 1.32 10 2.64 10 4 C11.32 4 12.64 4 14 4 C14 5.98 14 7.96 14 10 C12.68 10 11.36 10 10 10 C10 11.32 10 12.64 10 14 C6.7 14 3.4 14 0 14 C0.33 12.35 0.66 10.7 1 9 C2.32 9 3.64 9 5 9 C5 7.68 5 6.36 5 5 C3.35 5 1.7 5 0 5 C0 3.35 0 1.7 0 0 Z " fill="#844A32" transform="translate(238,105)"/>
<path d="M0 0 C2.97 0 5.94 0 9 0 C9 3.3 9 6.6 9 10 C7.35 10 5.7 10 4 10 C4 12.97 4 15.94 4 19 C2.68 19 1.36 19 0 19 C0 17.35 0 15.7 0 14 C-1.32 14 -2.64 14 -4 14 C-4 12.68 -4 11.36 -4 10 C-2.68 10 -1.36 10 0 10 C0 6.7 0 3.4 0 0 Z " fill="#B8ADA9" transform="translate(205,119)"/>
<path d="M0 0 C3.3 0 6.6 0 10 0 C10 1.32 10 2.64 10 4 C11.32 4 12.64 4 14 4 C14 5.65 14 7.3 14 9 C6.08 9 -1.84 9 -10 9 C-9.67 8.01 -9.34 7.02 -9 6 C-6.03 6 -3.06 6 0 6 C0 4.02 0 2.04 0 0 Z " fill="#844930" transform="translate(238,91)"/>
<path d="M0 0 C2.97858048 4.46787071 3.17317577 7.43655853 3.203125 12.69140625 C3.20882507 13.46951157 3.21452515 14.24761688 3.22039795 15.04930115 C3.22986498 16.70790242 3.23638866 18.36652265 3.24023438 20.02514648 C3.24976274 22.50085416 3.28068946 24.9756657 3.3125 27.45117188 C3.36708114 35.51169369 3.05160372 43.32348107 1.671875 51.27734375 C1.55515442 51.95438858 1.43843384 52.63143341 1.31817627 53.32899475 C0.43367752 57.89965528 -1.05896484 61.80313968 -3 66 C-4.50297286 62.03215165 -3.51868941 58.80029878 -2.625 54.75 C-0.78591259 46.32801093 0.15243894 38.30393534 0.09765625 29.6875 C0.0962413 28.83317383 0.09482635 27.97884766 0.09336853 27.09863281 C0.08781962 24.39905127 0.07527697 21.69955601 0.0625 19 C0.05747839 17.15755329 0.05291664 15.31510527 0.04882812 13.47265625 C0.03786699 8.98173814 0.02063825 4.49088364 0 0 Z " fill="#E1ECF4" transform="translate(302,129)"/>
<path d="M0 0 C2.97 0 5.94 0 9 0 C9 1.32 9 2.64 9 4 C7.35 4 5.7 4 4 4 C4 5.65 4 7.3 4 9 C-0.62 9 -5.24 9 -10 9 C-10 10.65 -10 12.3 -10 14 C-11.65 14 -13.3 14 -15 14 C-15 12.35 -15 10.7 -15 9 C-13.68 9 -12.36 9 -11 9 C-11 7.35 -11 5.7 -11 4 C-7.37 4 -3.74 4 0 4 C0 2.68 0 1.36 0 0 Z " fill="#B8ABA5" transform="translate(120,96)"/>
<path d="M0 0 C4.29 0.33 8.58 0.66 13 1 C13 1.33 13 1.66 13 2 C10.69 2.33 8.38 2.66 6 3 C8.31 3.33 10.62 3.66 13 4 C13 4.33 13 4.66 13 5 C10.36 5 7.72 5 5 5 C5 6.65 5 8.3 5 10 C0.05 10 -4.9 10 -10 10 C-10 8.35 -10 6.7 -10 5 C-6.7 5 -3.4 5 0 5 C0 3.35 0 1.7 0 0 Z " fill="#505C64" transform="translate(153,14)"/>
<path d="M0 0 C1.32 0 2.64 0 4 0 C4 1.32 4 2.64 4 4 C7.3 4 10.6 4 14 4 C14 5.65 14 7.3 14 9 C7.73 9 1.46 9 -5 9 C-5 7.35 -5 5.7 -5 4 C-3.35 4 -1.7 4 0 4 C0 2.68 0 1.36 0 0 Z " fill="#BAACA6" transform="translate(91,153)"/>
<path d="M0 0 C1.65 0 3.3 0 5 0 C5 3.63 5 7.26 5 11 C6.32 11 7.64 11 9 11 C9 12.32 9 13.64 9 15 C6.03 15 3.06 15 0 15 C0 13.35 0 11.7 0 10 C-1.32 10 -2.64 10 -4 10 C-4 8.35 -4 6.7 -4 5 C-2.68 5 -1.36 5 0 5 C0 3.35 0 1.7 0 0 Z " fill="#B8ADA8" transform="translate(157,109)"/>
<path d="M0 0 C1.65 0 3.3 0 5 0 C5 10.89 5 21.78 5 33 C4.67 33 4.34 33 4 33 C4 28.38 4 23.76 4 19 C2.68 19 1.36 19 0 19 C0 12.73 0 6.46 0 0 Z " fill="#B7ACA6" transform="translate(105,186)"/>
<path d="M0 0 C2.97 0 5.94 0 9 0 C9 1.32 9 2.64 9 4 C10.65 4 12.3 4 14 4 C14 7.3 14 10.6 14 14 C12.35 14 10.7 14 9 14 C9 12.35 9 10.7 9 9 C7.68 9 6.36 9 5 9 C5 7.35 5 5.7 5 4 C3.35 4 1.7 4 0 4 C0 2.68 0 1.36 0 0 Z " fill="#94C5ED" transform="translate(229,29)"/>
<path d="M0 0 C1.65 0 3.3 0 5 0 C5 10.89 5 21.78 5 33 C6.32 33 7.64 33 9 33 C9 36.3 9 39.6 9 43 C7.35 43 5.7 43 4 43 C4 30.46 4 17.92 4 5 C2.68 5 1.36 5 0 5 C0 3.35 0 1.7 0 0 Z " fill="#9A7360" transform="translate(110,219)"/>
<path d="M0 0 C2.97 0 5.94 0 9 0 C9 1.65 9 3.3 9 5 C12.3 5 15.6 5 19 5 C19 6.32 19 7.64 19 9 C14.38 9 9.76 9 5 9 C5 7.68 5 6.36 5 5 C3.35 5 1.7 5 0 5 C0 3.35 0 1.7 0 0 Z " fill="#25262E" transform="translate(181,86)"/>
<path d="M0 0 C5.40024883 0.51829014 9.03245508 2.47735417 13.625 5.125 C23.00243994 10.33795402 32.81327864 13.72381557 43 17 C43 17.66 43 18.32 43 19 C37.07529542 18.4274111 32.06225902 16.73314508 26.5625 14.5 C25.2626416 13.97792969 25.2626416 13.97792969 23.93652344 13.4453125 C15.55156382 9.98202636 7.75735741 5.68041676 0 1 C0 0.67 0 0.34 0 0 Z " fill="#C3C7CA" transform="translate(70,281)"/>
<path d="M0 0 C1.65 0 3.3 0 5 0 C5 0.66 5 1.32 5 2 C7.97 2.33 10.94 2.66 14 3 C14 3.33 14 3.66 14 4 C11.03 4 8.06 4 5 4 C5 5.98 5 7.96 5 10 C3.35 10 1.7 10 0 10 C0 11.32 0 12.64 0 14 C-1.32 14 -2.64 14 -4 14 C-4 11.03 -4 8.06 -4 5 C-2.68 5 -1.36 5 0 5 C0 3.35 0 1.7 0 0 Z " fill="#B7ACA7" transform="translate(124,105)"/>
<path d="M0 0 C1.65 0 3.3 0 5 0 C5 1.32 5 2.64 5 4 C5.99 3.34 6.98 2.68 8 2 C11.1875 1.875 11.1875 1.875 14 2 C14 2.66 14 3.32 14 4 C15.65 4 17.3 4 19 4 C19 5.65 19 7.3 19 9 C15.7 9 12.4 9 9 9 C9 7.68 9 6.36 9 5 C6.03 5 3.06 5 0 5 C0 3.35 0 1.7 0 0 Z " fill="#87503A" transform="translate(86,162)"/>
<path d="M0 0 C1.65 0 3.3 0 5 0 C3.68 0.33 2.36 0.66 1 1 C1 11.56 1 22.12 1 33 C2.32 33.33 3.64 33.66 5 34 C3.35 34 1.7 34 0 34 C0 29.05 0 24.1 0 19 C-1.65 19 -3.3 19 -5 19 C-4.505 14.545 -4.505 14.545 -4 10 C-2.68 10 -1.36 10 0 10 C0 6.7 0 3.4 0 0 Z " fill="#836660" transform="translate(76,119)"/>
<path d="M0 0 C1.32 0 2.64 0 4 0 C4 6.27 4 12.54 4 19 C2.68 19 1.36 19 0 19 C0 12.73 0 6.46 0 0 Z " fill="#B8ABA6" transform="translate(105,133)"/>
<path d="M0 0 C1.32 0 2.64 0 4 0 C4 3.3 4 6.6 4 10 C6.31 10 8.62 10 11 10 C11 10.33 11 10.66 11 11 C5.26157749 11.20413361 0.39460953 11.27141454 -5 9 C-5 7.68 -5 6.36 -5 5 C-3.35 5 -1.7 5 0 5 C0 3.35 0 1.7 0 0 Z " fill="#22232C" transform="translate(129,291)"/>
<path d="M0 0 C0.33 0 0.66 0 1 0 C1 1.65 1 3.3 1 5 C2.32 5 3.64 5 5 5 C5.93087909 8.93288364 6.11608885 12.57654163 6.09765625 16.61328125 C6.09443359 17.86044922 6.09121094 19.10761719 6.08789062 20.39257812 C6.07951172 21.68615234 6.07113281 22.97972656 6.0625 24.3125 C6.05798828 25.62541016 6.05347656 26.93832031 6.04882812 28.29101562 C6.03705949 31.5273901 6.0206176 34.76367178 6 38 C5.67 38 5.34 38 5 38 C5 30.08 5 22.16 5 14 C3.68 14 2.36 14 1 14 C0.06380187 10.84493858 -0.1057123 8.03413498 -0.0625 4.75 C-0.05347656 3.85796875 -0.04445312 2.9659375 -0.03515625 2.046875 C-0.02355469 1.37140625 -0.01195312 0.6959375 0 0 Z " fill="#617588" transform="translate(252,57)"/>
<path d="M0 0 C3.3 0 6.6 0 10 0 C10 1.65 10 3.3 10 5 C8.35 5 6.7 5 5 5 C5 6.32 5 7.64 5 9 C3.35 9 1.7 9 0 9 C0 6.03 0 3.06 0 0 Z " fill="#A28676" transform="translate(224,205)"/>
<path d="M0 0 C2.97 0 5.94 0 9 0 C9 1.32 9 2.64 9 4 C10.65 4 12.3 4 14 4 C14 5.65 14 7.3 14 9 C12.35 9 10.7 9 9 9 C9 7.68 9 6.36 9 5 C6.03 5 3.06 5 0 5 C0 3.35 0 1.7 0 0 Z " fill="#B69F93" transform="translate(191,86)"/>
<path d="M0 0 C3.3 0 6.6 0 10 0 C10 2.97 10 5.94 10 9 C8.35 9 6.7 9 5 9 C5 7.68 5 6.36 5 5 C3.35 5 1.7 5 0 5 C0 3.35 0 1.7 0 0 Z " fill="#505A5F" transform="translate(95,24)"/>
<path d="M0 0 C4.62 0 9.24 0 14 0 C14 1.65 14 3.3 14 5 C9.38 5 4.76 5 0 5 C0 3.35 0 1.7 0 0 Z " fill="#6B6766" transform="translate(195,19)"/>
<path d="M0 0 C4.62 0 9.24 0 14 0 C14 1.65 14 3.3 14 5 C9.38 5 4.76 5 0 5 C0 3.35 0 1.7 0 0 Z " fill="#B4A6A1" transform="translate(181,14)"/>
<path d="M0 0 C2.97 0 5.94 0 9 0 C9 3.3 9 6.6 9 10 C7.00045254 10.04254356 4.99958364 10.04080783 3 10 C2.67 9.67 2.34 9.34 2 9 C2.020625 7.865625 2.04125 6.73125 2.0625 5.5625 C2.41164028 1.94857727 2.41164028 1.94857727 0 0 Z " fill="#B4A6A1" transform="translate(205,119)"/>
<path d="M0 0 C2.4375 0.375 2.4375 0.375 5 1 C5.33 1.66 5.66 2.32 6 3 C5.67 3.66 5.34 4.32 5 5 C11.27 5 17.54 5 24 5 C24 5.66 24 6.32 24 7 C17.4 7 10.8 7 4 7 C3.67 5.68 3.34 4.36 3 3 C1.68 3 0.36 3 -1 3 C-0.67 2.01 -0.34 1.02 0 0 Z " fill="#95C5EB" transform="translate(281,237)"/>
<path d="M0 0 C4.62 0 9.24 0 14 0 C14 1.65 14 3.3 14 5 C8.12 6.56 8.12 6.56 4.9765625 4.98828125 C3.21710163 3.73511422 1.56281507 2.4915621 0 1 C0 0.67 0 0.34 0 0 Z " fill="#B3A8A4" transform="translate(67,276)"/>
<path d="M0 0 C0.33 0 0.66 0 1 0 C1 5.94 1 11.88 1 18 C2.32 18 3.64 18 5 18 C5 19.98 5 21.96 5 24 C3.35 24 1.7 24 0 24 C0 22.35 0 20.7 0 19 C-1.65 19 -3.3 19 -5 19 C-5 17.35 -5 15.7 -5 14 C-4.67 15.32 -4.34 16.64 -4 18 C-2.68 18 -1.36 18 0 18 C0 12.06 0 6.12 0 0 Z " fill="#8F604A" transform="translate(119,129)"/>
<path d="M0 0 C1.32 0 2.64 0 4 0 C4 4.62 4 9.24 4 14 C2.68 14 1.36 14 0 14 C0 9.38 0 4.76 0 0 Z " fill="#643420" transform="translate(205,105)"/>
<path d="M0 0 C4.62 0 9.24 0 14 0 C14 1.65 14 3.3 14 5 C12.35 5 10.7 5 9 5 C9 3.68 9 2.36 9 1 C7.68 1 6.36 1 5 1 C5 2.32 5 3.64 5 5 C3.35 5 1.7 5 0 5 C0 3.35 0 1.7 0 0 Z " fill="#997A6A" transform="translate(81,114)"/>
<path d="M0 0 C1.65 0 3.3 0 5 0 C5 10.89 5 21.78 5 33 C4.67 33 4.34 33 4 33 C4 23.76 4 14.52 4 5 C2.68 5 1.36 5 0 5 C0 3.35 0 1.7 0 0 Z " fill="#937C75" transform="translate(105,186)"/>
<path d="M0 0 C1.98 0 3.96 0 6 0 C6 1.98 6 3.96 6 6 C4.35 6 2.7 6 1 6 C1 10.29 1 14.58 1 19 C0.67 19 0.34 19 0 19 C0 14.71 0 10.42 0 6 C-1.32 5.67 -2.64 5.34 -4 5 C-2.68 5 -1.36 5 0 5 C0 3.35 0 1.7 0 0 Z " fill="#525154" transform="translate(109,114)"/>
<path d="M0 0 C1.65 0 3.3 0 5 0 C5 2.97 5 5.94 5 9 C-0.94 9 -6.88 9 -13 9 C-13 8.67 -13 8.34 -13 8 C-7.72 8 -2.44 8 3 8 C3 7.34 3 6.68 3 6 C2.01 6 1.02 6 0 6 C0 4.02 0 2.04 0 0 Z " fill="#BDACA5" transform="translate(100,267)"/>
<path d="M0 0 C1.65 0 3.3 0 5 0 C5 1.65 5 3.3 5 5 C-4.24 5 -13.48 5 -23 5 C-22.67 3.68 -22.34 2.36 -22 1 C-22 1.99 -22 2.98 -22 4 C-14.74 4 -7.48 4 0 4 C0 2.68 0 1.36 0 0 Z " fill="#AB978D" transform="translate(181,81)"/>
<path d="M0 0 C1.65 0 3.3 0 5 0 C5 3.3 5 6.6 5 10 C3.35 10 1.7 10 0 10 C0 6.7 0 3.4 0 0 Z " fill="#77ACE2" transform="translate(243,181)"/>
<path d="M0 0 C1.65 0 3.3 0 5 0 C5 3.3 5 6.6 5 10 C3.35 10 1.7 10 0 10 C0 6.7 0 3.4 0 0 Z " fill="#393841" transform="translate(100,176)"/>
<path d="M0 0 C1.65 0 3.3 0 5 0 C5 1.65 5 3.3 5 5 C6.32 5 7.64 5 9 5 C9 6.65 9 8.3 9 10 C7.35 10 5.7 10 4 10 C4 8.35 4 6.7 4 5 C2.68 5 1.36 5 0 5 C0 3.35 0 1.7 0 0 Z " fill="#596268" transform="translate(267,119)"/>
<path d="M0 0 C1.65 0 3.3 0 5 0 C5 3.63 5 7.26 5 11 C6.32 11 7.64 11 9 11 C9 12.32 9 13.64 9 15 C6.03 15 3.06 15 0 15 C0 13.35 0 11.7 0 10 C0.33 11.32 0.66 12.64 1 14 C1.33 13.01 1.66 12.02 2 11 C2.66 11 3.32 11 4 11 C4 7.7 4 4.4 4 1 C3.01 1 2.02 1 1 1 C0.67 2.32 0.34 3.64 0 5 C0 3.35 0 1.7 0 0 Z " fill="#B2A099" transform="translate(157,109)"/>
<path d="M0 0 C1.65 0 3.3 0 5 0 C5 1.65 5 3.3 5 5 C3.68 5 2.36 5 1 5 C1 6.65 1 8.3 1 10 C-0.65 10 -2.3 10 -4 10 C-4 8.35 -4 6.7 -4 5 C-2.68 5 -1.36 5 0 5 C0 3.35 0 1.7 0 0 Z " fill="#8F776B" transform="translate(109,100)"/>
<path d="M0 0 C3.3 0 6.6 0 10 0 C10 1.65 10 3.3 10 5 C6.7 5 3.4 5 0 5 C0 3.35 0 1.7 0 0 Z " fill="#536068" transform="translate(171,14)"/>
<path d="M0 0 C2.27076842 -0.02699725 4.54162821 -0.04639453 6.8125 -0.0625 C8.07707031 -0.07410156 9.34164062 -0.08570313 10.64453125 -0.09765625 C14 0 14 0 17 1 C17 1.66 17 2.32 17 3 C8.585 3.495 8.585 3.495 0 4 C0 2.68 0 1.36 0 0 Z " fill="#B7A69E" transform="translate(86,272)"/>
<path d="M0 0 C0.66 0 1.32 0 2 0 C2 3.3 2 6.6 2 10 C0.35 10.33 -1.3 10.66 -3 11 C-3 13.64 -3 16.28 -3 19 C-3.99 19 -4.98 19 -6 19 C-5.67 15.7 -5.34 12.4 -5 9 C-3.35 9 -1.7 9 0 9 C0 6.03 0 3.06 0 0 Z " fill="#D8E7F1" transform="translate(233,0)"/>
<path d="M0 0 C1.32 0 2.64 0 4 0 C4 1.32 4 2.64 4 4 C7.63 4 11.26 4 15 4 C14.67 5.65 14.34 7.3 14 9 C12.68 9 11.36 9 10 9 C10 7.68 10 6.36 10 5 C6.7 5 3.4 5 0 5 C0 3.35 0 1.7 0 0 Z " fill="#A3897B" transform="translate(181,129)"/>
<path d="M0 0 C0.33 0 0.66 0 1 0 C1.05534912 0.70608398 1.11069824 1.41216797 1.16772461 2.13964844 C1.42083142 5.34338537 1.67910904 8.54668511 1.9375 11.75 C2.02451172 12.86117187 2.11152344 13.97234375 2.20117188 15.1171875 C2.28818359 16.18710938 2.37519531 17.25703125 2.46484375 18.359375 C2.543396 19.34389648 2.62194824 20.32841797 2.70288086 21.34277344 C2.96123909 23.6533494 3.3677328 25.76737883 4 28 C3.01 28.33 2.02 28.66 1 29 C0.1589522 25.3535194 -0.11764968 22.00049093 -0.09765625 18.26171875 C-0.09443359 17.19501953 -0.09121094 16.12832031 -0.08789062 15.02929688 C-0.07951172 13.92650391 -0.07113281 12.82371094 -0.0625 11.6875 C-0.05798828 10.56537109 -0.05347656 9.44324219 -0.04882812 8.28710938 C-0.03707313 5.5246849 -0.02064077 2.76237002 0 0 Z " fill="#F3F6F8" transform="translate(0,147)"/>
<path d="M0 0 C1.65 0 3.3 0 5 0 C5 2.97 5 5.94 5 9 C3.35 9 1.7 9 0 9 C0 6.03 0 3.06 0 0 Z " fill="#A58877" transform="translate(114,253)"/>
<path d="M0 0 C1.65 0 3.3 0 5 0 C5 2.97 5 5.94 5 9 C3.35 9 1.7 9 0 9 C0 6.03 0 3.06 0 0 Z " fill="#A3816E" transform="translate(238,186)"/>
<path d="M0 0 C2.97 0 5.94 0 9 0 C9 1.65 9 3.3 9 5 C6.03 5 3.06 5 0 5 C0 3.35 0 1.7 0 0 Z " fill="#B6AAA5" transform="translate(220,119)"/>
<path d="M0 0 C0 1.65 0 3.3 0 5 C-3.3 5 -6.6 5 -10 5 C-10 3.68 -10 2.36 -10 1 C-6.59437148 0.22157062 -3.49234244 -0.09978121 0 0 Z " fill="#2C2A31" transform="translate(234,114)"/>
<path d="M0 0 C3.3 0.33 6.6 0.66 10 1 C10 2.32 10 3.64 10 5 C6.7 5 3.4 5 0 5 C0 3.35 0 1.7 0 0 Z " fill="#B6AAA5" transform="translate(143,109)"/>
<path d="M0 0 C2.97 0 5.94 0 9 0 C9 1.65 9 3.3 9 5 C6.03 5 3.06 5 0 5 C0 3.35 0 1.7 0 0 Z " fill="#505E68" transform="translate(229,100)"/>
<path d="M0 0 C1.65 0 3.3 0 5 0 C5 2.97 5 5.94 5 9 C3.35 9 1.7 9 0 9 C0 6.03 0 3.06 0 0 Z " fill="#D1CCCA" transform="translate(148,86)"/>
<path d="M0 0 C2.64 0 5.28 0 8 0 C8.66 1.32 9.32 2.64 10 4 C9 5 9 5 6.93359375 5.09765625 C6.10988281 5.08605469 5.28617187 5.07445313 4.4375 5.0625 C3.61121094 5.05347656 2.78492188 5.04445313 1.93359375 5.03515625 C1.29550781 5.02355469 0.65742188 5.01195313 0 5 C0 3.35 0 1.7 0 0 Z " fill="#96C4EB" transform="translate(272,71)"/>
<path d="M0 0 C2.97 0 5.94 0 9 0 C9 1.65 9 3.3 9 5 C6.03 5 3.06 5 0 5 C0 3.35 0 1.7 0 0 Z " fill="#93C3EB" transform="translate(124,14)"/>
<path d="M0 0 C1.32 0.66 2.64 1.32 4 2 C4 3.98 4 5.96 4 8 C1.03 8 -1.94 8 -5 8 C-4.67 6.68 -4.34 5.36 -4 4 C-4 4.99 -4 5.98 -4 7 C-3.01 7 -2.02 7 -1 7 C-1.020625 6.030625 -1.04125 5.06125 -1.0625 4.0625 C-1 1 -1 1 0 0 Z " fill="#95C7F0" transform="translate(225,20)"/>
<path d="M0 0 C-3.0296652 2.44814179 -6.07549599 4.09452853 -9.625 5.6875 C-10.58664063 6.12449219 -11.54828125 6.56148438 -12.5390625 7.01171875 C-15 8 -15 8 -17 8 C-17 7.01 -17 6.02 -17 5 C-14.73392948 3.96724659 -12.46318061 2.94866449 -10.1875 1.9375 C-9.22360352 1.49567383 -9.22360352 1.49567383 -8.24023438 1.04492188 C-3.33984375 -1.11328125 -3.33984375 -1.11328125 0 0 Z " fill="#B4B4B6" transform="translate(223,288)"/>
<path d="M0 0 C1.32 0 2.64 0 4 0 C4 2.97 4 5.94 4 9 C2.35 9 0.7 9 -1 9 C-0.67 6.03 -0.34 3.06 0 0 Z " fill="#AC9588" transform="translate(72,129)"/>
<path d="M0 0 C1.32 0 2.64 0 4 0 C4 1.32 4 2.64 4 4 C5.65 4 7.3 4 9 4 C9 4.33 9 4.66 9 5 C7.35 5 5.7 5 4 5 C4 6.32 4 7.64 4 9 C2.68 9 1.36 9 0 9 C0 6.03 0 3.06 0 0 Z " fill="#A68573" transform="translate(120,110)"/>
<path d="M0 0 C4.78642607 0.5746621 8.53788787 1.98245643 12.875 4.0625 C14.60363281 4.88427734 14.60363281 4.88427734 16.3671875 5.72265625 C17.67042969 6.35494141 17.67042969 6.35494141 19 7 C18.01 7.66 17.02 8.32 16 9 C10.72 6.36 5.44 3.72 0 1 C0 0.67 0 0.34 0 0 Z " fill="#E7F0F7" transform="translate(208,11)"/>
<path d="M0 0 C3.3 0 6.6 0 10 0 C10 1.32 10 2.64 10 4 C6.7 4 3.4 4 0 4 C0 2.68 0 1.36 0 0 Z " fill="#F1F3F3" transform="translate(95,158)"/>
<path d="M0 0 C1.65 0 3.3 0 5 0 C5 6.27 5 12.54 5 19 C4.67 19 4.34 19 4 19 C4 14.38 4 9.76 4 5 C2.68 5 1.36 5 0 5 C0 3.35 0 1.7 0 0 Z " fill="#85543E" transform="translate(205,100)"/>
<path d="M0 0 C-3.25396534 1.74067543 -6.56535032 2.95494992 -10.0625 4.125 C-11.10535156 4.47820313 -12.14820312 4.83140625 -13.22265625 5.1953125 C-16 6 -16 6 -19 6 C-19 5.34 -19 4.68 -19 4 C-12.44995746 1.30292366 -7.11513755 -0.53699151 0 0 Z " fill="#D7E5F2" transform="translate(117,5)"/>
<path d="M0 0 C0.99 0.33 1.98 0.66 3 1 C1.07254909 2.70034041 -0.86541739 4.38490979 -2.8125 6.0625 C-3.63331055 6.79049805 -3.63331055 6.79049805 -4.47070312 7.53320312 C-5.91610309 8.76836309 -7.45427799 9.89295679 -9 11 C-9.99 10.67 -10.98 10.34 -12 10 C-9.50878577 7.30118458 -6.81416955 4.96022787 -3.9375 2.6875 C-3.26589844 2.15511719 -2.59429687 1.62273437 -1.90234375 1.07421875 C-1.27457031 0.71972656 -0.64679688 0.36523438 0 0 Z " fill="#B3B4B6" transform="translate(253,265)"/>
<path d="M0 0 C1.32 0 2.64 0 4 0 C4.33 2.97 4.66 5.94 5 9 C3.35 9 1.7 9 0 9 C0 6.03 0 3.06 0 0 Z " fill="#663521" transform="translate(200,119)"/>
<path d="M0 0 C1.32 0 2.64 0 4 0 C4 2.97 4 5.94 4 9 C2.68 9 1.36 9 0 9 C0 6.03 0 3.06 0 0 Z " fill="#AF9A8E" transform="translate(234,196)"/>
<path d="M0 0 C2.97 0 5.94 0 9 0 C9 1.32 9 2.64 9 4 C6.03 4 3.06 4 0 4 C0 2.68 0 1.36 0 0 Z " fill="#B7ABA7" transform="translate(134,148)"/>
<path d="M0 0 C1.32 0 2.64 0 4 0 C4 2.97 4 5.94 4 9 C2.68 9 1.36 9 0 9 C0 6.03 0 3.06 0 0 Z " fill="#B9A89F" transform="translate(272,115)"/>
<path d="M0 0 C2.97 0 5.94 0 9 0 C9 1.32 9 2.64 9 4 C6.03 4 3.06 4 0 4 C0 2.68 0 1.36 0 0 Z " fill="#91634D" transform="translate(143,105)"/>
<path d="M0 0 C2.97 0 5.94 0 9 0 C9 1.32 9 2.64 9 4 C6.03 4 3.06 4 0 4 C0 2.68 0 1.36 0 0 Z " fill="#814328" transform="translate(138,86)"/>
<path d="M0 0 C2.97 0 5.94 0 9 0 C9 1.32 9 2.64 9 4 C6.03 4 3.06 4 0 4 C0 2.68 0 1.36 0 0 Z " fill="#7D736C" transform="translate(124,29)"/>
<path d="M0 0 C2.97 0 5.94 0 9 0 C9 1.32 9 2.64 9 4 C6.03 4 3.06 4 0 4 C0 2.68 0 1.36 0 0 Z " fill="#16151A" transform="translate(148,29)"/>
<path d="M0 0 C2.97 0 5.94 0 9 0 C9 1.32 9 2.64 9 4 C6.03 4 3.06 4 0 4 C0 2.68 0 1.36 0 0 Z " fill="#1D1F28" transform="translate(191,91)"/>
<path d="M0 0 C0.33 1.32 0.66 2.64 1 4 C3.97 4 6.94 4 10 4 C10 4.33 10 4.66 10 5 C7.03 5 4.06 5 1 5 C0.67 6.32 0.34 7.64 0 9 C0 7.68 0 6.36 0 5 C-5.61 5 -11.22 5 -17 5 C-17 4.67 -17 4.34 -17 4 C-11.39 4 -5.78 4 0 4 C0 2.68 0 1.36 0 0 Z " fill="#1F2026" transform="translate(209,29)"/>
<path d="M0 0 C1.65 0 3.3 0 5 0 C5 2.97 5 5.94 5 9 C6.32 9.33 7.64 9.66 9 10 C7.35 10 5.7 10 4 10 C4 8.35 4 6.7 4 5 C2.68 5 1.36 5 0 5 C0 3.35 0 1.7 0 0 Z " fill="#9D8E8A" transform="translate(210,238)"/>
<path d="M0 0 C1.98 0 3.96 0 6 0 C6 0.66 6 1.32 6 2 C4.68 2 3.36 2 2 2 C2 3.32 2 4.64 2 6 C-0.97 6 -3.94 6 -7 6 C-7 5.34 -7 4.68 -7 4 C-4.69 4 -2.38 4 0 4 C0 2.68 0 1.36 0 0 Z " fill="#B8D6EE" transform="translate(299,209)"/>
<path d="M0 0 C1.65 0 3.3 0 5 0 C5 3.3 5 6.6 5 10 C3.35 10 1.7 10 0 10 C0 8.35 0 6.7 0 5 C1.32 5 2.64 5 4 5 C4 3.68 4 2.36 4 1 C2.68 0.67 1.36 0.34 0 0 Z " fill="#988D89" transform="translate(162,119)"/>
<path d="M0 0 C1.65 0 3.3 0 5 0 C5 1.65 5 3.3 5 5 C3.68 5 2.36 5 1 5 C1 7.97 1 10.94 1 14 C0.67 14 0.34 14 0 14 C0 9.38 0 4.76 0 0 Z " fill="#835542" transform="translate(119,105)"/>
<path d="M0 0 C4.62 0 9.24 0 14 0 C14 1.65 14 3.3 14 5 C12.35 5 10.7 5 9 5 C9 3.68 9 2.36 9 1 C6.03 1 3.06 1 0 1 C0 0.67 0 0.34 0 0 Z " fill="#95796B" transform="translate(191,90)"/>
<path d="M0 0 C0.33 1.32 0.66 2.64 1 4 C1.33 3.01 1.66 2.02 2 1 C3.98 1 5.96 1 8 1 C8 3.31 8 5.62 8 8 C7.01 8.33 6.02 8.66 5 9 C5 7.68 5 6.36 5 5 C3.35 5 1.7 5 0 5 C0 3.35 0 1.7 0 0 Z " fill="#556571" transform="translate(95,24)"/>
<path d="M0 0 C0.33 0 0.66 0 1 0 C0.6083965 5.95507399 -0.37124595 10.62819824 -3 16 C-3.66 15.67 -4.32 15.34 -5 15 C-1.92482916 4.44191344 -1.92482916 4.44191344 0 0 Z " fill="#E0EBF4" transform="translate(297,196)"/>
<path d="M0 0 C0.33 0 0.66 0 1 0 C0.67 2.97 0.34 5.94 0 9 C-1.32 9 -2.64 9 -4 9 C-4 7.68 -4 6.36 -4 5 C-5.65 5 -7.3 5 -9 5 C-9 4.67 -9 4.34 -9 4 C-6.03 4 -3.06 4 0 4 C0 2.68 0 1.36 0 0 Z " fill="#9B7461" transform="translate(157,81)"/>
<path d="M0 0 C0.33 0 0.66 0 1 0 C1 1.65 1 3.3 1 5 C2.32 5 3.64 5 5 5 C5 6.65 5 8.3 5 10 C3.35 10 1.7 10 0 10 C0 6.7 0 3.4 0 0 Z " fill="#85ACC9" transform="translate(252,57)"/>
<path d="M0 0 C1.60332791 -0.08121924 3.20784026 -0.13929134 4.8125 -0.1875 C6.15248047 -0.23970703 6.15248047 -0.23970703 7.51953125 -0.29296875 C10 0 10 0 13 3 C8.71 3 4.42 3 0 3 C0 2.01 0 1.02 0 0 Z " fill="#34333A" transform="translate(157,300)"/>
<path d="M0 0 C1.65 0 3.3 0 5 0 C5 1.32 5 2.64 5 4 C0.38 4 -4.24 4 -9 4 C-9 3.67 -9 3.34 -9 3 C-6.03 3 -3.06 3 0 3 C0 2.01 0 1.02 0 0 Z " fill="#693620" transform="translate(195,129)"/>
<path d="M0 0 C0.79921875 0.00902344 1.5984375 0.01804687 2.421875 0.02734375 C3.02515625 0.03894531 3.6284375 0.05054688 4.25 0.0625 C3.92 0.7225 3.59 1.3825 3.25 2.0625 C0.30859375 2.4765625 0.30859375 2.4765625 -3.3125 2.6875 C-4.51003906 2.76226562 -5.70757812 2.83703125 -6.94140625 2.9140625 C-7.86824219 2.96304687 -8.79507813 3.01203125 -9.75 3.0625 C-8.75 1.0625 -8.75 1.0625 -6.984375 0.44140625 C-4.60849677 0.03850382 -2.40820483 -0.03541478 0 0 Z " fill="#D6D6D8" transform="translate(174.75,301.9375)"/>
<path d="M0 0 C1.8133922 3.20010388 2.52213974 6.13283843 3.125 9.75 C3.29257813 10.73484375 3.46015625 11.7196875 3.6328125 12.734375 C3.81457031 13.85585937 3.81457031 13.85585937 4 15 C3.01 14.67 2.02 14.34 1 14 C-0.19493974 10.96826719 -0.10493955 7.97540573 -0.0625 4.75 C-0.05347656 3.85796875 -0.04445312 2.9659375 -0.03515625 2.046875 C-0.02355469 1.37140625 -0.01195312 0.6959375 0 0 Z " fill="#E5EFF5" transform="translate(3,178)"/>
<path d="M0 0 C3.24298429 1.08099476 3.81612526 1.65626616 5.75 4.3125 C6.19859375 4.90675781 6.6471875 5.50101562 7.109375 6.11328125 C8 8 8 8 7.640625 10.23046875 C7.42921875 10.81441406 7.2178125 11.39835937 7 12 C5.82767315 10.3790787 4.6622923 8.75313167 3.5 7.125 C2.8503125 6.22007813 2.200625 5.31515625 1.53125 4.3828125 C0 2 0 2 0 0 Z " fill="#F7F7F7" transform="translate(273,60)"/>
<path d="M0 0 C5.28137429 0.51525603 8.57221156 2.25477117 13 5 C13 5.33 13 5.66 13 6 C8.21193122 6.74813575 5.43289751 4.69491132 1.57421875 2.19140625 C1.05472656 1.79824219 0.53523438 1.40507812 0 1 C0 0.67 0 0.34 0 0 Z " fill="#CBD0D4" transform="translate(70,281)"/>
<path d="M0 0 C8 0.92307692 8 0.92307692 11 3 C11.33 3.99 11.66 4.98 12 6 C7.76570244 4.68938409 3.92592596 3.05643741 0 1 C0 0.67 0 0.34 0 0 Z " fill="#B9BEC1" transform="translate(80,287)"/>
<path d="M0 0 C1.65 0 3.3 0 5 0 C5 1.65 5 3.3 5 5 C3.35 5 1.7 5 0 5 C0 3.35 0 1.7 0 0 Z " fill="#2D2D34" transform="translate(100,267)"/>
<path d="M0 0 C1.65 0 3.3 0 5 0 C5 1.65 5 3.3 5 5 C3.35 5 1.7 5 0 5 C0 3.35 0 1.7 0 0 Z " fill="#282A33" transform="translate(229,262)"/>
<path d="M0 0 C1.65 0 3.3 0 5 0 C5 1.65 5 3.3 5 5 C3.35 5 1.7 5 0 5 C0 3.35 0 1.7 0 0 Z " fill="#A07E6B" transform="translate(219,214)"/>
<path d="M0 0 C1.65 0 3.3 0 5 0 C5 1.65 5 3.3 5 5 C3.35 5 1.7 5 0 5 C0 3.35 0 1.7 0 0 Z " fill="#78AFE8" transform="translate(100,186)"/>
<path d="M0 0 C0.99 0 1.98 0 3 0 C3.33 2.64 3.66 5.28 4 8 C2.68 8 1.36 8 0 8 C0 5.36 0 2.72 0 0 Z " fill="#23232A" transform="translate(101,177)"/>
<path d="M0 0 C1.65 0 3.3 0 5 0 C5 1.65 5 3.3 5 5 C3.35 5 1.7 5 0 5 C0 3.35 0 1.7 0 0 Z " fill="#73A9DF" transform="translate(95,176)"/>
<path d="M0 0 C1.65 0 3.3 0 5 0 C5 1.65 5 3.3 5 5 C3.35 5 1.7 5 0 5 C0 3.35 0 1.7 0 0 Z " fill="#2E2B31" transform="translate(95,171)"/>
<path d="M0 0 C1.65 0 3.3 0 5 0 C5 1.65 5 3.3 5 5 C3.35 5 1.7 5 0 5 C0 3.35 0 1.7 0 0 Z " fill="#B4A59F" transform="translate(124,157)"/>
<path d="M0 0 C1.65 0 3.3 0 5 0 C5 1.65 5 3.3 5 5 C3.35 5 1.7 5 0 5 C0 3.35 0 1.7 0 0 Z " fill="#B5A7A1" transform="translate(133,138)"/>
<path d="M0 0 C1.65 0 3.3 0 5 0 C5 1.65 5 3.3 5 5 C3.35 5 1.7 5 0 5 C0 3.35 0 1.7 0 0 Z " fill="#93C5ED" transform="translate(71,138)"/>
<path d="M0 0 C1.65 0 3.3 0 5 0 C5 1.65 5 3.3 5 5 C3.35 5 1.7 5 0 5 C0 3.35 0 1.7 0 0 Z " fill="#EDF0F1" transform="translate(262,138)"/>
<path d="M0 0 C1.65 0 3.3 0 5 0 C5 1.65 5 3.3 5 5 C3.35 5 1.7 5 0 5 C0 3.35 0 1.7 0 0 Z " fill="#2B2930" transform="translate(162,114)"/>
<path d="M0 0 C1.65 0 3.3 0 5 0 C5 1.65 5 3.3 5 5 C3.35 5 1.7 5 0 5 C0 3.35 0 1.7 0 0 Z " fill="#A68674" transform="translate(267,114)"/>
<path d="M0 0 C1.65 0 3.3 0 5 0 C5 1.65 5 3.3 5 5 C3.35 5 1.7 5 0 5 C0 3.35 0 1.7 0 0 Z " fill="#B3A49E" transform="translate(219,105)"/>
<path d="M0 0 C1.65 0 3.3 0 5 0 C5 1.65 5 3.3 5 5 C3.35 5 1.7 5 0 5 C0 3.35 0 1.7 0 0 Z " fill="#2D2D35" transform="translate(124,100)"/>
<path d="M0 0 C1.65 0 3.3 0 5 0 C5 1.65 5 3.3 5 5 C3.35 5 1.7 5 0 5 C0 3.35 0 1.7 0 0 Z " fill="#EBECED" transform="translate(114,100)"/>
<path d="M0 0 C1.65 0 3.3 0 5 0 C5 1.65 5 3.3 5 5 C3.35 5 1.7 5 0 5 C0 3.35 0 1.7 0 0 Z " fill="#9D8070" transform="translate(81,71)"/>
<path d="M0 0 C1.65 0 3.3 0 5 0 C5 1.65 5 3.3 5 5 C3.35 5 1.7 5 0 5 C0 3.35 0 1.7 0 0 Z " fill="#505B64" transform="translate(138,24)"/>
<path d="M0 0 C1.65 0 3.3 0 5 0 C5 1.65 5 3.3 5 5 C3.35 5 1.7 5 0 5 C0 3.35 0 1.7 0 0 Z " fill="#4F5C65" transform="translate(186,19)"/>
<path d="M0 0 C1.65 0 3.3 0 5 0 C5 1.65 5 3.3 5 5 C3.35 5 1.7 5 0 5 C0 3.35 0 1.7 0 0 Z " fill="#A18373" transform="translate(181,14)"/>
<path d="M0 0 C2.64 0 5.28 0 8 0 C8 0.99 8 1.98 8 3 C5.36 3 2.72 3 0 3 C0 2.01 0 1.02 0 0 Z " fill="#834931" transform="translate(235,129)"/>
<path d="M0 0 C1.32 0 2.64 0 4 0 C4 1.65 4 3.3 4 5 C2.35 5 0.7 5 -1 5 C-0.67 3.35 -0.34 1.7 0 0 Z " fill="#EAEAEA" transform="translate(158,90)"/>
<path d="M0 0 C0.99 0.33 1.98 0.66 3 1 C2.01 1.495 2.01 1.495 1 2 C1.33 2.99 1.66 3.98 2 5 C-0.475 6.485 -0.475 6.485 -3 8 C-3.33 7.01 -3.66 6.02 -4 5 C-3.01 4.67 -2.02 4.34 -1 4 C-0.26676204 1.98491642 -0.26676204 1.98491642 0 0 Z " fill="#E0EBF2" transform="translate(285,61)"/>
<path d="M0 0 C6.93 0.495 6.93 0.495 14 1 C14 1.33 14 1.66 14 2 C12.98679687 2.09087891 12.98679687 2.09087891 11.953125 2.18359375 C11.06109375 2.26738281 10.1690625 2.35117188 9.25 2.4375 C8.36828125 2.51871094 7.4865625 2.59992188 6.578125 2.68359375 C4.30649548 2.96238465 2.20148177 3.38790577 0 4 C0 2.68 0 1.36 0 0 Z " fill="#7F4025" transform="translate(91,162)"/>
<path d="M0 0 C1.65 0 3.3 0 5 0 C4.67 1.65 4.34 3.3 4 5 C2.68 5 1.36 5 0 5 C0 3.35 0 1.7 0 0 Z " fill="#2D2D35" transform="translate(229,276)"/>
<path d="M0 0 C1.65 0 3.3 0 5 0 C4.67 1.65 4.34 3.3 4 5 C2.68 5 1.36 5 0 5 C0 3.35 0 1.7 0 0 Z " fill="#9E7D6C" transform="translate(81,157)"/>
<path d="M0 0 C1.65 0 3.3 0 5 0 C4.67 1.65 4.34 3.3 4 5 C2.68 5 1.36 5 0 5 C0 3.35 0 1.7 0 0 Z " fill="#A07F6D" transform="translate(191,133)"/>
<path d="M0 0 C-2.91708924 1.98362069 -4.12380904 1.9876191 -7.75 1.625 C-8.8225 1.41875 -9.895 1.2125 -11 1 C-7.2297564 -1.56376565 -4.32597804 -0.83191885 0 0 Z " fill="#B0B0B3" transform="translate(188,301)"/>
<path d="M0 0 C1.32 0 2.64 0 4 0 C4 1.65 4 3.3 4 5 C2.68 5 1.36 5 0 5 C0 3.35 0 1.7 0 0 Z " fill="#78B4EF" transform="translate(234,257)"/>
<path d="M0 0 C1.32 0 2.64 0 4 0 C4 1.65 4 3.3 4 5 C2.68 5 1.36 5 0 5 C0 3.35 0 1.7 0 0 Z " fill="#73B1EC" transform="translate(210,224)"/>
<path d="M0 0 C1.32 0 2.64 0 4 0 C4 1.65 4 3.3 4 5 C2.68 5 1.36 5 0 5 C0 3.35 0 1.7 0 0 Z " fill="#A68977" transform="translate(105,186)"/>
<path d="M0 0 C1.65 0 3.3 0 5 0 C5 1.32 5 2.64 5 4 C3.35 4 1.7 4 0 4 C0 2.68 0 1.36 0 0 Z " fill="#A48776" transform="translate(100,167)"/>
<path d="M0 0 C1.32 0 2.64 0 4 0 C4 1.65 4 3.3 4 5 C2.68 5 1.36 5 0 5 C0 3.35 0 1.7 0 0 Z " fill="#A48472" transform="translate(86,162)"/>
<path d="M0 0 C1.65 0 3.3 0 5 0 C5 1.32 5 2.64 5 4 C3.35 4 1.7 4 0 4 C0 2.68 0 1.36 0 0 Z " fill="#F1F2F2" transform="translate(86,158)"/>
<path d="M0 0 C1.65 0 3.3 0 5 0 C5 1.32 5 2.64 5 4 C3.35 4 1.7 4 0 4 C0 2.68 0 1.36 0 0 Z " fill="#B8ABA6" transform="translate(195,134)"/>
<path d="M0 0 C1.65 0 3.3 0 5 0 C5 1.32 5 2.64 5 4 C3.35 4 1.7 4 0 4 C0 2.68 0 1.36 0 0 Z " fill="#B8ACA7" transform="translate(186,134)"/>
<path d="M0 0 C1.32 0 2.64 0 4 0 C4 1.65 4 3.3 4 5 C2.68 5 1.36 5 0 5 C0 3.35 0 1.7 0 0 Z " fill="#A38574" transform="translate(172,124)"/>
<path d="M0 0 C1.32 0 2.64 0 4 0 C4 1.65 4 3.3 4 5 C2.68 5 1.36 5 0 5 C0 3.35 0 1.7 0 0 Z " fill="#B8ABA6" transform="translate(167,124)"/>
<path d="M0 0 C1.65 0 3.3 0 5 0 C5 1.32 5 2.64 5 4 C3.35 4 1.7 4 0 4 C0 2.68 0 1.36 0 0 Z " fill="#7E432A" transform="translate(224,115)"/>
<path d="M0 0 C1.65 0 3.3 0 5 0 C5 1.32 5 2.64 5 4 C3.35 4 1.7 4 0 4 C0 2.68 0 1.36 0 0 Z " fill="#A4816B" transform="translate(262,110)"/>
<path d="M0 0 C1.32 0 2.64 0 4 0 C4 1.65 4 3.3 4 5 C2.68 5 1.36 5 0 5 C0 3.35 0 1.7 0 0 Z " fill="#B8A9A1" transform="translate(253,100)"/>
<path d="M0 0 C1.32 0 2.64 0 4 0 C4 1.65 4 3.3 4 5 C2.68 5 1.36 5 0 5 C0 3.35 0 1.7 0 0 Z " fill="#B8AAA3" transform="translate(110,100)"/>
<path d="M0 0 C1.65 0 3.3 0 5 0 C5 1.32 5 2.64 5 4 C3.35 4 1.7 4 0 4 C0 2.68 0 1.36 0 0 Z " fill="#F3F5F5" transform="translate(124,96)"/>
<path d="M0 0 C1.65 0 3.3 0 5 0 C5 1.32 5 2.64 5 4 C3.35 4 1.7 4 0 4 C0 2.68 0 1.36 0 0 Z " fill="#F3F7F8" transform="translate(138,91)"/>
<path d="M0 0 C1.32 0 2.64 0 4 0 C4 1.65 4 3.3 4 5 C2.68 5 1.36 5 0 5 C0 3.35 0 1.7 0 0 Z " fill="#79B3EA" transform="translate(105,38)"/>
<path d="M0 0 C1.65 0 3.3 0 5 0 C5 1.32 5 2.64 5 4 C3.35 4 1.7 4 0 4 C0 2.68 0 1.36 0 0 Z " fill="#29272E" transform="translate(119,29)"/>
<path d="M0 0 C1.65 0 3.3 0 5 0 C5 1.32 5 2.64 5 4 C3.35 4 1.7 4 0 4 C0 2.68 0 1.36 0 0 Z " fill="#97C9F0" transform="translate(133,19)"/>
<path d="M0 0 C1.32 0 2.64 0 4 0 C4 1.65 4 3.3 4 5 C2.68 5 1.36 5 0 5 C0 3.35 0 1.7 0 0 Z " fill="#A78572" transform="translate(167,14)"/>
<path d="M0 0 C1.32 0 2.64 0 4 0 C4 1.65 4 3.3 4 5 C2.68 5 1.36 5 0 5 C0 3.35 0 1.7 0 0 Z " fill="#A3806A" transform="translate(191,14)"/>
<path d="M0 0 C1.32 0.33 2.64 0.66 4 1 C3.01 1 2.02 1 1 1 C1 1.66 1 2.32 1 3 C1.99 3.33 2.98 3.66 4 4 C3.34 5.32 2.68 6.64 2 8 C0 6 0 6 -0.125 2.875 C-0.08375 1.92625 -0.0425 0.9775 0 0 Z " fill="#D0E2EF" transform="translate(276,233)"/>
<path d="M0 0 C2.64 0.99 5.28 1.98 8 3 C8 3.33 8 3.66 8 4 C5.36 4 2.72 4 0 4 C0 2.68 0 1.36 0 0 Z " fill="#8DBFE8" transform="translate(214,15)"/>
<path d="M0 0 C-2 2 -2 2 -5.625 2.125 C-6.73875 2.08375 -7.8525 2.0425 -9 2 C-8 0 -8 0 -6.1875 -0.6875 C-3.81180233 -1.02688538 -2.26664171 -0.72856341 0 0 Z " fill="#CACACC" transform="translate(194,299)"/>
<path d="M0 0 C2.97 0 5.94 0 9 0 C8.01 1.485 8.01 1.485 7 3 C3.875 3.1875 3.875 3.1875 1 3 C0.67 2.01 0.34 1.02 0 0 Z " fill="#B0A098" transform="translate(220,119)"/>
<path d="M0 0 C0.99 0.33 1.98 0.66 3 1 C1.35 2.65 -0.3 4.3 -2 6 C-2.99 5.34 -3.98 4.68 -5 4 C-2.6875 1.9375 -2.6875 1.9375 0 0 Z " fill="#C6D9EE" transform="translate(61,29)"/>
<path d="M0 0 C3.3 0.99 6.6 1.98 10 3 C10 3.33 10 3.66 10 4 C7.25 4.25 7.25 4.25 4 4 C1.625 2 1.625 2 0 0 Z " fill="#D9DCDE" transform="translate(91,291)"/>
<path d="M0 0 C4.29 0 8.58 0 13 0 C11.515 1.485 11.515 1.485 10 3 C9.67 2.67 9.34 2.34 9 2 C7.48530552 1.76807135 5.96245438 1.58784762 4.4375 1.4375 C3.61121094 1.35371094 2.78492188 1.26992188 1.93359375 1.18359375 C1.29550781 1.12300781 0.65742188 1.06242187 0 1 C0 0.67 0 0.34 0 0 Z " fill="#394047" transform="translate(243,262)"/>
<path d="M0 0 C0.66 0 1.32 0 2 0 C2 0.99 2 1.98 2 3 C1.34 3 0.68 3 0 3 C0 2.01 0 1.02 0 0 Z " fill="#222229" transform="translate(114,302)"/>
</svg>
