<?xml version="1.0" encoding="UTF-8"?>
<svg version="1.1" xmlns="http://www.w3.org/2000/svg" width="305" height="305">
<path d="M0 0 C3.31336636 0.01384009 6.62388281 -0.02030434 9.93701172 -0.05834961 C40.29930934 -0.16838352 69.70340323 9.31465542 94.08154297 27.57641602 C94.71833984 28.03274414 95.35513672 28.48907227 96.01123047 28.95922852 C106.76950806 36.77125581 115.99653972 44.99725231 124.08154297 55.57641602 C125.00651218 56.71851415 125.93507534 57.85770841 126.86669922 58.99438477 C131.82026709 65.08024437 136.24583574 71.01574948 139.76513672 78.07641602 C141.08272114 80.69555259 141.08272114 80.69555259 143.02685547 83.41625977 C155.58655552 102.73336497 157.94706522 126.42168959 157.78833008 148.82299805 C157.7690962 152.4414022 157.80867684 156.05595294 157.85302734 159.67407227 C157.92228219 179.41229017 154.61590827 197.66417257 146.08154297 215.57641602 C145.52730911 216.80722072 144.97537682 218.03906345 144.42529297 219.27172852 C126.69865914 258.6478619 92.14420632 286.31368074 52.24951172 301.66625977 C38.48380311 306.1362233 24.14247684 306.00882298 9.83007812 306.05688477 C6.38033669 306.07614362 2.93306381 306.13826415 -0.51611328 306.20141602 C-27.86242864 306.46128463 -53.87912956 299.53478534 -76.91845703 284.57641602 C-77.74087891 284.04661133 -78.56330078 283.51680664 -79.41064453 282.97094727 C-89.81084284 275.9765647 -99.24765431 267.60070469 -107.91845703 258.57641602 C-108.76408203 257.75141602 -109.60970703 256.92641602 -110.48095703 256.07641602 C-136.52439284 229.3651998 -148.91208832 195.06521346 -148.62524414 158.07324219 C-148.60602313 154.77525658 -148.64560665 151.48151101 -148.68994141 148.18383789 C-148.79614232 121.2354493 -141.66669151 95.24907499 -126.91845703 72.57641602 C-126.24169922 71.53356445 -125.56494141 70.49071289 -124.86767578 69.41625977 C-104.40028417 38.91512023 -74.59019599 14.70907502 -38.91845703 4.57641602 C-37.78698242 4.23441162 -36.65550781 3.89240723 -35.48974609 3.54003906 C-23.71704812 0.22203371 -12.17556428 -0.0707153 0 0 Z " fill="#824931" transform="translate(147.91845703125,-0.576416015625)"/>
<path d="M0 0 C3.31336636 0.01384009 6.62388281 -0.02030434 9.93701172 -0.05834961 C40.29930934 -0.16838352 69.70340323 9.31465542 94.08154297 27.57641602 C94.71833984 28.03274414 95.35513672 28.48907227 96.01123047 28.95922852 C106.76950806 36.77125581 115.99653972 44.99725231 124.08154297 55.57641602 C125.00651218 56.71851415 125.93507534 57.85770841 126.86669922 58.99438477 C131.82026709 65.08024437 136.24583574 71.01574948 139.76513672 78.07641602 C141.08272114 80.69555259 141.08272114 80.69555259 143.02685547 83.41625977 C155.58655552 102.73336497 157.94706522 126.42168959 157.78833008 148.82299805 C157.7690962 152.4414022 157.80867684 156.05595294 157.85302734 159.67407227 C157.92228219 179.41229017 154.61590827 197.66417257 146.08154297 215.57641602 C145.52730911 216.80722072 144.97537682 218.03906345 144.42529297 219.27172852 C126.69865914 258.6478619 92.14420632 286.31368074 52.24951172 301.66625977 C38.48380311 306.1362233 24.14247684 306.00882298 9.83007812 306.05688477 C6.38033669 306.07614362 2.93306381 306.13826415 -0.51611328 306.20141602 C-27.86242864 306.46128463 -53.87912956 299.53478534 -76.91845703 284.57641602 C-77.74087891 284.04661133 -78.56330078 283.51680664 -79.41064453 282.97094727 C-89.81084284 275.9765647 -99.24765431 267.60070469 -107.91845703 258.57641602 C-108.76408203 257.75141602 -109.60970703 256.92641602 -110.48095703 256.07641602 C-136.52439284 229.3651998 -148.91208832 195.06521346 -148.62524414 158.07324219 C-148.60602313 154.77525658 -148.64560665 151.48151101 -148.68994141 148.18383789 C-148.79614232 121.2354493 -141.66669151 95.24907499 -126.91845703 72.57641602 C-126.24169922 71.53356445 -125.56494141 70.49071289 -124.86767578 69.41625977 C-104.40028417 38.91512023 -74.59019599 14.70907502 -38.91845703 4.57641602 C-37.78698242 4.23441162 -36.65550781 3.89240723 -35.48974609 3.54003906 C-23.71704812 0.22203371 -12.17556428 -0.0707153 0 0 Z M5.08154297 14.57641602 C5.08154297 16.22641602 5.08154297 17.87641602 5.08154297 19.57641602 C1.78154297 19.57641602 -1.51845703 19.57641602 -4.91845703 19.57641602 C-4.91845703 21.22641602 -4.91845703 22.87641602 -4.91845703 24.57641602 C-8.21845703 24.57641602 -11.51845703 24.57641602 -14.91845703 24.57641602 C-14.91845703 26.22641602 -14.91845703 27.87641602 -14.91845703 29.57641602 C-22.83845703 29.57641602 -30.75845703 29.57641602 -38.91845703 29.57641602 C-38.91845703 30.89641602 -38.91845703 32.21641602 -38.91845703 33.57641602 C-40.23845703 33.57641602 -41.55845703 33.57641602 -42.91845703 33.57641602 C-42.91845703 35.22641602 -42.91845703 36.87641602 -42.91845703 38.57641602 C-44.56845703 38.57641602 -46.21845703 38.57641602 -47.91845703 38.57641602 C-47.91845703 40.22641602 -47.91845703 41.87641602 -47.91845703 43.57641602 C-49.56845703 43.57641602 -51.21845703 43.57641602 -52.91845703 43.57641602 C-52.91845703 48.19641602 -52.91845703 52.81641602 -52.91845703 57.57641602 C-54.23845703 57.57641602 -55.55845703 57.57641602 -56.91845703 57.57641602 C-56.91845703 59.22641602 -56.91845703 60.87641602 -56.91845703 62.57641602 C-58.56845703 62.57641602 -60.21845703 62.57641602 -61.91845703 62.57641602 C-61.91845703 64.22641602 -61.91845703 65.87641602 -61.91845703 67.57641602 C-63.56845703 67.57641602 -65.21845703 67.57641602 -66.91845703 67.57641602 C-66.91845703 68.89641602 -66.91845703 70.21641602 -66.91845703 71.57641602 C-65.26845703 71.57641602 -63.61845703 71.57641602 -61.91845703 71.57641602 C-61.91845703 73.22641602 -61.91845703 74.87641602 -61.91845703 76.57641602 C-63.56845703 76.57641602 -65.21845703 76.57641602 -66.91845703 76.57641602 C-66.91845703 79.87641602 -66.91845703 83.17641602 -66.91845703 86.57641602 C-68.56845703 86.57641602 -70.21845703 86.57641602 -71.91845703 86.57641602 C-71.91845703 92.84641602 -71.91845703 99.11641602 -71.91845703 105.57641602 C-70.26845703 105.57641602 -68.61845703 105.57641602 -66.91845703 105.57641602 C-66.91845703 110.19641602 -66.91845703 114.81641602 -66.91845703 119.57641602 C-68.56845703 119.57641602 -70.21845703 119.57641602 -71.91845703 119.57641602 C-71.91845703 122.87641602 -71.91845703 126.17641602 -71.91845703 129.57641602 C-73.23845703 129.57641602 -74.55845703 129.57641602 -75.91845703 129.57641602 C-75.91845703 132.54641602 -75.91845703 135.51641602 -75.91845703 138.57641602 C-74.59845703 138.57641602 -73.27845703 138.57641602 -71.91845703 138.57641602 C-71.91845703 143.52641602 -71.91845703 148.47641602 -71.91845703 153.57641602 C-70.26845703 153.57641602 -68.61845703 153.57641602 -66.91845703 153.57641602 C-66.91845703 156.54641602 -66.91845703 159.51641602 -66.91845703 162.57641602 C-65.59845703 162.57641602 -64.27845703 162.57641602 -62.91845703 162.57641602 C-62.58845703 160.92641602 -62.25845703 159.27641602 -61.91845703 157.57641602 C-60.26845703 157.57641602 -58.61845703 157.57641602 -56.91845703 157.57641602 C-56.91845703 156.25641602 -56.91845703 154.93641602 -56.91845703 153.57641602 C-55.59845703 153.57641602 -54.27845703 153.57641602 -52.91845703 153.57641602 C-52.91845703 154.89641602 -52.91845703 156.21641602 -52.91845703 157.57641602 C-49.61845703 157.57641602 -46.31845703 157.57641602 -42.91845703 157.57641602 C-42.91845703 159.22641602 -42.91845703 160.87641602 -42.91845703 162.57641602 C-49.18845703 162.57641602 -55.45845703 162.57641602 -61.91845703 162.57641602 C-61.91845703 164.22641602 -61.91845703 165.87641602 -61.91845703 167.57641602 C-58.94845703 167.57641602 -55.97845703 167.57641602 -52.91845703 167.57641602 C-52.91845703 170.54641602 -52.91845703 173.51641602 -52.91845703 176.57641602 C-51.26845703 176.57641602 -49.61845703 176.57641602 -47.91845703 176.57641602 C-47.91845703 179.87641602 -47.91845703 183.17641602 -47.91845703 186.57641602 C-46.26845703 186.57641602 -44.61845703 186.57641602 -42.91845703 186.57641602 C-42.91845703 192.84641602 -42.91845703 199.11641602 -42.91845703 205.57641602 C-41.59845703 205.57641602 -40.27845703 205.57641602 -38.91845703 205.57641602 C-38.91845703 227.35641602 -38.91845703 249.13641602 -38.91845703 271.57641602 C-40.23845703 271.90641602 -41.55845703 272.23641602 -42.91845703 272.57641602 C-42.91845703 270.92641602 -42.91845703 269.27641602 -42.91845703 267.57641602 C-44.56845703 267.57641602 -46.21845703 267.57641602 -47.91845703 267.57641602 C-47.91845703 269.22641602 -47.91845703 270.87641602 -47.91845703 272.57641602 C-52.53845703 272.57641602 -57.15845703 272.57641602 -61.91845703 272.57641602 C-61.91845703 273.89641602 -61.91845703 275.21641602 -61.91845703 276.57641602 C-63.56845703 276.57641602 -65.21845703 276.57641602 -66.91845703 276.57641602 C-66.91845703 278.22641602 -66.91845703 279.87641602 -66.91845703 281.57641602 C-68.56845703 281.57641602 -70.21845703 281.57641602 -71.91845703 281.57641602 C-69.49813809 285.20689442 -66.7814176 286.46673248 -62.98095703 288.32641602 C-62.28309082 288.6720459 -61.58522461 289.01767578 -60.86621094 289.3737793 C-53.10216839 293.11987426 -45.04842119 296.07384112 -36.90771484 298.88842773 C-35.20995248 299.47560181 -33.52029559 300.0861255 -31.83251953 300.70141602 C-20.30873597 304.16164057 -7.56904457 303.77788421 4.33154297 303.82641602 C5.57355469 303.83560059 6.81556641 303.84478516 8.09521484 303.85424805 C18.68649827 303.81920542 29.03495222 303.10377523 39.08154297 299.57641602 C40.49750955 299.16765585 41.91664249 298.7696317 43.33935547 298.38500977 C58.00249661 294.29040248 71.51625974 288.44629418 85.08154297 281.57641602 C85.08154297 280.91641602 85.08154297 280.25641602 85.08154297 279.57641602 C85.81888672 279.3121582 86.55623047 279.04790039 87.31591797 278.77563477 C90.07149545 277.58077278 92.00584604 276.27100779 94.33154297 274.38891602 C95.09853516 273.7740332 95.86552734 273.15915039 96.65576172 272.52563477 C97.85652344 271.56077148 97.85652344 271.56077148 99.08154297 270.57641602 C101.52779278 268.7000943 103.97748325 266.82840001 106.42919922 264.95922852 C106.97447266 264.50290039 107.51974609 264.04657227 108.08154297 263.57641602 C108.08154297 263.24641602 108.08154297 262.91641602 108.08154297 262.57641602 C103.79154297 262.57641602 99.50154297 262.57641602 95.08154297 262.57641602 C95.08154297 260.92641602 95.08154297 259.27641602 95.08154297 257.57641602 C93.43154297 257.57641602 91.78154297 257.57641602 90.08154297 257.57641602 C90.08154297 259.22641602 90.08154297 260.87641602 90.08154297 262.57641602 C88.76154297 262.57641602 87.44154297 262.57641602 86.08154297 262.57641602 C86.08154297 260.92641602 86.08154297 259.27641602 86.08154297 257.57641602 C82.78154297 257.57641602 79.48154297 257.57641602 76.08154297 257.57641602 C76.08154297 256.25641602 76.08154297 254.93641602 76.08154297 253.57641602 C74.43154297 253.57641602 72.78154297 253.57641602 71.08154297 253.57641602 C71.08154297 251.92641602 71.08154297 250.27641602 71.08154297 248.57641602 C69.43154297 248.57641602 67.78154297 248.57641602 66.08154297 248.57641602 C66.08154297 246.92641602 66.08154297 245.27641602 66.08154297 243.57641602 C64.76154297 243.57641602 63.44154297 243.57641602 62.08154297 243.57641602 C62.08154297 237.30641602 62.08154297 231.03641602 62.08154297 224.57641602 C65.05154297 224.57641602 68.02154297 224.57641602 71.08154297 224.57641602 C71.08154297 222.92641602 71.08154297 221.27641602 71.08154297 219.57641602 C72.73154297 219.57641602 74.38154297 219.57641602 76.08154297 219.57641602 C76.08154297 217.92641602 76.08154297 216.27641602 76.08154297 214.57641602 C77.73154297 214.57641602 79.38154297 214.57641602 81.08154297 214.57641602 C81.08154297 213.25641602 81.08154297 211.93641602 81.08154297 210.57641602 C82.73154297 210.57641602 84.38154297 210.57641602 86.08154297 210.57641602 C86.08154297 205.95641602 86.08154297 201.33641602 86.08154297 196.57641602 C89.05154297 196.24641602 92.02154297 195.91641602 95.08154297 195.57641602 C95.08154297 180.06641602 95.08154297 164.55641602 95.08154297 148.57641602 C91.78154297 148.57641602 88.48154297 148.57641602 85.08154297 148.57641602 C85.41154297 145.27641602 85.74154297 141.97641602 86.08154297 138.57641602 C82.78154297 138.57641602 79.48154297 138.57641602 76.08154297 138.57641602 C76.08154297 133.95641602 76.08154297 129.33641602 76.08154297 124.57641602 C74.43154297 124.57641602 72.78154297 124.57641602 71.08154297 124.57641602 C71.08154297 122.92641602 71.08154297 121.27641602 71.08154297 119.57641602 C69.76154297 119.57641602 68.44154297 119.57641602 67.08154297 119.57641602 C67.08154297 122.87641602 67.08154297 126.17641602 67.08154297 129.57641602 C65.10154297 129.57641602 63.12154297 129.57641602 61.08154297 129.57641602 C61.08154297 132.54641602 61.08154297 135.51641602 61.08154297 138.57641602 C48.54154297 138.57641602 36.00154297 138.57641602 23.08154297 138.57641602 C23.08154297 136.92641602 23.08154297 135.27641602 23.08154297 133.57641602 C21.76154297 133.57641602 20.44154297 133.57641602 19.08154297 133.57641602 C19.08154297 132.25641602 19.08154297 130.93641602 19.08154297 129.57641602 C17.43154297 129.57641602 15.78154297 129.57641602 14.08154297 129.57641602 C14.08154297 127.92641602 14.08154297 126.27641602 14.08154297 124.57641602 C12.43154297 124.57641602 10.78154297 124.57641602 9.08154297 124.57641602 C9.08154297 122.92641602 9.08154297 121.27641602 9.08154297 119.57641602 C7.76154297 119.57641602 6.44154297 119.57641602 5.08154297 119.57641602 C5.08154297 117.92641602 5.08154297 116.27641602 5.08154297 114.57641602 C1.78154297 114.57641602 -1.51845703 114.57641602 -4.91845703 114.57641602 C-4.91845703 112.92641602 -4.91845703 111.27641602 -4.91845703 109.57641602 C-1.94845703 109.57641602 1.02154297 109.57641602 4.08154297 109.57641602 C4.08154297 108.25641602 4.08154297 106.93641602 4.08154297 105.57641602 C-0.53845703 105.57641602 -5.15845703 105.57641602 -9.91845703 105.57641602 C-9.91845703 106.89641602 -9.91845703 108.21641602 -9.91845703 109.57641602 C-12.88845703 109.57641602 -15.85845703 109.57641602 -18.91845703 109.57641602 C-18.91845703 111.55641602 -18.91845703 113.53641602 -18.91845703 115.57641602 C-20.56845703 115.57641602 -22.21845703 115.57641602 -23.91845703 115.57641602 C-23.91845703 116.89641602 -23.91845703 118.21641602 -23.91845703 119.57641602 C-25.23845703 119.57641602 -26.55845703 119.57641602 -27.91845703 119.57641602 C-27.91845703 116.60641602 -27.91845703 113.63641602 -27.91845703 110.57641602 C-26.59845703 110.57641602 -25.27845703 110.57641602 -23.91845703 110.57641602 C-23.91845703 108.92641602 -23.91845703 107.27641602 -23.91845703 105.57641602 C-27.21845703 105.57641602 -30.51845703 105.57641602 -33.91845703 105.57641602 C-33.91845703 103.92641602 -33.91845703 102.27641602 -33.91845703 100.57641602 C-32.26845703 100.57641602 -30.61845703 100.57641602 -28.91845703 100.57641602 C-28.91845703 98.92641602 -28.91845703 97.27641602 -28.91845703 95.57641602 C-24.29845703 95.57641602 -19.67845703 95.57641602 -14.91845703 95.57641602 C-14.42345703 93.59641602 -14.42345703 93.59641602 -13.91845703 91.57641602 C-9.62845703 91.24641602 -5.33845703 90.91641602 -0.91845703 90.57641602 C-0.42345703 88.59641602 -0.42345703 88.59641602 0.08154297 86.57641602 C1.73154297 86.57641602 3.38154297 86.57641602 5.08154297 86.57641602 C5.08154297 87.89641602 5.08154297 89.21641602 5.08154297 90.57641602 C6.73154297 90.24641602 8.38154297 89.91641602 10.08154297 89.57641602 C10.57654297 87.59641602 10.57654297 87.59641602 11.08154297 85.57641602 C18.34154297 85.57641602 25.60154297 85.57641602 33.08154297 85.57641602 C33.08154297 84.58641602 33.08154297 83.59641602 33.08154297 82.57641602 C34.73154297 82.57641602 36.38154297 82.57641602 38.08154297 82.57641602 C38.08154297 83.89641602 38.08154297 85.21641602 38.08154297 86.57641602 C36.43154297 86.57641602 34.78154297 86.57641602 33.08154297 86.57641602 C33.08154297 88.22641602 33.08154297 89.87641602 33.08154297 91.57641602 C26.81154297 91.57641602 20.54154297 91.57641602 14.08154297 91.57641602 C14.08154297 101.14641602 14.08154297 110.71641602 14.08154297 120.57641602 C15.73154297 120.57641602 17.38154297 120.57641602 19.08154297 120.57641602 C19.08154297 121.89641602 19.08154297 123.21641602 19.08154297 124.57641602 C22.05154297 124.57641602 25.02154297 124.57641602 28.08154297 124.57641602 C28.08154297 126.22641602 28.08154297 127.87641602 28.08154297 129.57641602 C31.05154297 129.57641602 34.02154297 129.57641602 37.08154297 129.57641602 C37.08154297 130.89641602 37.08154297 132.21641602 37.08154297 133.57641602 C42.03154297 133.57641602 46.98154297 133.57641602 52.08154297 133.57641602 C52.08154297 132.25641602 52.08154297 130.93641602 52.08154297 129.57641602 C53.73154297 129.57641602 55.38154297 129.57641602 57.08154297 129.57641602 C57.08154297 126.27641602 57.08154297 122.97641602 57.08154297 119.57641602 C58.73154297 119.57641602 60.38154297 119.57641602 62.08154297 119.57641602 C62.08154297 113.30641602 62.08154297 107.03641602 62.08154297 100.57641602 C60.43154297 100.57641602 58.78154297 100.57641602 57.08154297 100.57641602 C57.08154297 98.92641602 57.08154297 97.27641602 57.08154297 95.57641602 C60.05154297 95.57641602 63.02154297 95.57641602 66.08154297 95.57641602 C66.08154297 97.22641602 66.08154297 98.87641602 66.08154297 100.57641602 C71.03154297 100.57641602 75.98154297 100.57641602 81.08154297 100.57641602 C81.08154297 105.19641602 81.08154297 109.81641602 81.08154297 114.57641602 C78.60654297 115.07141602 78.60654297 115.07141602 76.08154297 115.57641602 C76.08154297 116.89641602 76.08154297 118.21641602 76.08154297 119.57641602 C79.38154297 119.57641602 82.68154297 119.57641602 86.08154297 119.57641602 C86.08154297 124.19641602 86.08154297 128.81641602 86.08154297 133.57641602 C89.05154297 133.57641602 92.02154297 133.57641602 95.08154297 133.57641602 C95.08154297 128.95641602 95.08154297 124.33641602 95.08154297 119.57641602 C98.38154297 119.57641602 101.68154297 119.57641602 105.08154297 119.57641602 C105.08154297 114.95641602 105.08154297 110.33641602 105.08154297 105.57641602 C106.40154297 105.57641602 107.72154297 105.57641602 109.08154297 105.57641602 C109.08154297 103.92641602 109.08154297 102.27641602 109.08154297 100.57641602 C107.76154297 100.57641602 106.44154297 100.57641602 105.08154297 100.57641602 C105.08154297 98.92641602 105.08154297 97.27641602 105.08154297 95.57641602 C106.40154297 95.57641602 107.72154297 95.57641602 109.08154297 95.57641602 C109.08154297 87.65641602 109.08154297 79.73641602 109.08154297 71.57641602 C107.76154297 71.57641602 106.44154297 71.57641602 105.08154297 71.57641602 C104.75154297 66.95641602 104.42154297 62.33641602 104.08154297 57.57641602 C102.76154297 57.57641602 101.44154297 57.57641602 100.08154297 57.57641602 C100.08154297 54.27641602 100.08154297 50.97641602 100.08154297 47.57641602 C98.43154297 47.57641602 96.78154297 47.57641602 95.08154297 47.57641602 C95.08154297 46.25641602 95.08154297 44.93641602 95.08154297 43.57641602 C93.43154297 43.57641602 91.78154297 43.57641602 90.08154297 43.57641602 C90.08154297 41.92641602 90.08154297 40.27641602 90.08154297 38.57641602 C88.76154297 38.57641602 87.44154297 38.57641602 86.08154297 38.57641602 C86.08154297 36.92641602 86.08154297 35.27641602 86.08154297 33.57641602 C84.43154297 33.57641602 82.78154297 33.57641602 81.08154297 33.57641602 C81.08154297 32.25641602 81.08154297 30.93641602 81.08154297 29.57641602 C77.78154297 29.57641602 74.48154297 29.57641602 71.08154297 29.57641602 C71.08154297 27.92641602 71.08154297 26.27641602 71.08154297 24.57641602 C67.78154297 24.57641602 64.48154297 24.57641602 61.08154297 24.57641602 C61.08154297 22.92641602 61.08154297 21.27641602 61.08154297 19.57641602 C56.46154297 19.57641602 51.84154297 19.57641602 47.08154297 19.57641602 C47.08154297 17.92641602 47.08154297 16.27641602 47.08154297 14.57641602 C33.22154297 14.57641602 19.36154297 14.57641602 5.08154297 14.57641602 Z " fill="#92C2EA" transform="translate(147.91845703125,-0.576416015625)"/>
<path d="M0 0 C13.86 0 27.72 0 42 0 C42 1.65 42 3.3 42 5 C46.62 5 51.24 5 56 5 C56 6.65 56 8.3 56 10 C59.3 10 62.6 10 66 10 C66 11.65 66 13.3 66 15 C69.3 15 72.6 15 76 15 C76 16.32 76 17.64 76 19 C77.65 19 79.3 19 81 19 C81 20.65 81 22.3 81 24 C82.32 24 83.64 24 85 24 C85 25.65 85 27.3 85 29 C86.65 29 88.3 29 90 29 C90 30.32 90 31.64 90 33 C91.65 33 93.3 33 95 33 C95 36.3 95 39.6 95 43 C96.32 43 97.64 43 99 43 C99.33 47.62 99.66 52.24 100 57 C101.32 57 102.64 57 104 57 C104 64.92 104 72.84 104 81 C102.68 81 101.36 81 100 81 C100 82.65 100 84.3 100 86 C101.32 86 102.64 86 104 86 C104 87.65 104 89.3 104 91 C102.68 91 101.36 91 100 91 C100 95.62 100 100.24 100 105 C96.7 105 93.4 105 90 105 C90 109.62 90 114.24 90 119 C87.03 119 84.06 119 81 119 C81 114.38 81 109.76 81 105 C77.7 105 74.4 105 71 105 C71.33 103.35 71.66 101.7 72 100 C73.32 100 74.64 100 76 100 C76 95.38 76 90.76 76 86 C71.05 86 66.1 86 61 86 C61 84.35 61 82.7 61 81 C58.03 81 55.06 81 52 81 C52 82.65 52 84.3 52 86 C53.65 86 55.3 86 57 86 C57 92.27 57 98.54 57 105 C55.35 105 53.7 105 52 105 C52 108.3 52 111.6 52 115 C50.35 115 48.7 115 47 115 C47 116.32 47 117.64 47 119 C42.05 119 37.1 119 32 119 C32 117.68 32 116.36 32 115 C29.03 115 26.06 115 23 115 C23 113.35 23 111.7 23 110 C20.03 110 17.06 110 14 110 C14 108.68 14 107.36 14 106 C12.35 106 10.7 106 9 106 C9 96.43 9 86.86 9 77 C15.27 77 21.54 77 28 77 C28 75.35 28 73.7 28 72 C29.65 72 31.3 72 33 72 C33 70.68 33 69.36 33 68 C31.35 68 29.7 68 28 68 C28 68.99 28 69.98 28 71 C20.74 71 13.48 71 6 71 C5.34 72.65 4.68 74.3 4 76 C2.68 76 1.36 76 0 76 C0 74.68 0 73.36 0 72 C-1.65 72 -3.3 72 -5 72 C-5.495 73.98 -5.495 73.98 -6 76 C-10.29 76.33 -14.58 76.66 -19 77 C-19.495 78.98 -19.495 78.98 -20 81 C-24.62 81 -29.24 81 -34 81 C-34 82.65 -34 84.3 -34 86 C-37.3 86 -40.6 86 -44 86 C-44 87.65 -44 89.3 -44 91 C-45.32 91 -46.64 91 -48 91 C-48 92.65 -48 94.3 -48 96 C-46.35 96 -44.7 96 -43 96 C-43 94.68 -43 93.36 -43 92 C-40.03 92 -37.06 92 -34 92 C-34 97.94 -34 103.88 -34 110 C-35.65 110 -37.3 110 -39 110 C-39 114.62 -39 119.24 -39 124 C-40.32 124 -41.64 124 -43 124 C-43 122.35 -43 120.7 -43 119 C-44.65 119 -46.3 119 -48 119 C-48 126.92 -48 134.84 -48 143 C-51.3 143 -54.6 143 -58 143 C-58 141.68 -58 140.36 -58 139 C-59.32 139 -60.64 139 -62 139 C-62 140.32 -62 141.64 -62 143 C-63.65 143 -65.3 143 -67 143 C-67.33 144.65 -67.66 146.3 -68 148 C-69.32 148 -70.64 148 -72 148 C-72 145.03 -72 142.06 -72 139 C-73.65 139 -75.3 139 -77 139 C-77 134.05 -77 129.1 -77 124 C-78.32 124 -79.64 124 -81 124 C-81 121.03 -81 118.06 -81 115 C-79.68 115 -78.36 115 -77 115 C-77 111.7 -77 108.4 -77 105 C-75.35 105 -73.7 105 -72 105 C-72 100.38 -72 95.76 -72 91 C-73.65 91 -75.3 91 -77 91 C-77 84.73 -77 78.46 -77 72 C-75.35 72 -73.7 72 -72 72 C-72 68.7 -72 65.4 -72 62 C-70.35 62 -68.7 62 -67 62 C-67 60.35 -67 58.7 -67 57 C-68.65 57 -70.3 57 -72 57 C-72 55.68 -72 54.36 -72 53 C-70.35 53 -68.7 53 -67 53 C-67 51.35 -67 49.7 -67 48 C-65.35 48 -63.7 48 -62 48 C-62 46.35 -62 44.7 -62 43 C-60.68 43 -59.36 43 -58 43 C-58 38.38 -58 33.76 -58 29 C-56.35 29 -54.7 29 -53 29 C-53 27.35 -53 25.7 -53 24 C-51.35 24 -49.7 24 -48 24 C-48 22.35 -48 20.7 -48 19 C-46.68 19 -45.36 19 -44 19 C-44 17.68 -44 16.36 -44 15 C-36.08 15 -28.16 15 -20 15 C-20 13.35 -20 11.7 -20 10 C-16.7 10 -13.4 10 -10 10 C-10 8.35 -10 6.7 -10 5 C-6.7 5 -3.4 5 0 5 C0 3.35 0 1.7 0 0 Z " fill="#272730" transform="translate(153,14)"/>
<path d="M0 0 C1.82955674 0.69557176 3.68381823 1.32674137 5.54760742 1.92456055 C9.72455295 3.37324476 13.72243707 5.18342815 17.75463867 6.9909668 C18.57770508 7.35512695 19.40077148 7.71928711 20.2487793 8.09448242 C26.31265113 10.79897926 26.31265113 10.79897926 27.44213867 11.9284668 C27.48306805 14.26144113 27.4845559 16.59551904 27.44213867 18.9284668 C24.14213867 18.9284668 20.84213867 18.9284668 17.44213867 18.9284668 C17.44213867 17.2784668 17.44213867 15.6284668 17.44213867 13.9284668 C14.14213867 13.9284668 10.84213867 13.9284668 7.44213867 13.9284668 C7.44213867 12.2784668 7.44213867 10.6284668 7.44213867 8.9284668 C2.82213867 8.9284668 -1.79786133 8.9284668 -6.55786133 8.9284668 C-6.55786133 7.2784668 -6.55786133 5.6284668 -6.55786133 3.9284668 C-20.41786133 3.9284668 -34.27786133 3.9284668 -48.55786133 3.9284668 C-48.55786133 5.5784668 -48.55786133 7.2284668 -48.55786133 8.9284668 C-51.85786133 8.9284668 -55.15786133 8.9284668 -58.55786133 8.9284668 C-58.55786133 10.5784668 -58.55786133 12.2284668 -58.55786133 13.9284668 C-61.85786133 13.9284668 -65.15786133 13.9284668 -68.55786133 13.9284668 C-68.55786133 15.5784668 -68.55786133 17.2284668 -68.55786133 18.9284668 C-76.47786133 18.9284668 -84.39786133 18.9284668 -92.55786133 18.9284668 C-92.55786133 20.2484668 -92.55786133 21.5684668 -92.55786133 22.9284668 C-93.87786133 22.9284668 -95.19786133 22.9284668 -96.55786133 22.9284668 C-96.55786133 24.5784668 -96.55786133 26.2284668 -96.55786133 27.9284668 C-98.20786133 27.9284668 -99.85786133 27.9284668 -101.55786133 27.9284668 C-101.55786133 29.5784668 -101.55786133 31.2284668 -101.55786133 32.9284668 C-103.20786133 32.9284668 -104.85786133 32.9284668 -106.55786133 32.9284668 C-106.55786133 37.5484668 -106.55786133 42.1684668 -106.55786133 46.9284668 C-107.87786133 46.9284668 -109.19786133 46.9284668 -110.55786133 46.9284668 C-110.55786133 48.5784668 -110.55786133 50.2284668 -110.55786133 51.9284668 C-112.20786133 51.9284668 -113.85786133 51.9284668 -115.55786133 51.9284668 C-115.55786133 53.5784668 -115.55786133 55.2284668 -115.55786133 56.9284668 C-117.20786133 56.9284668 -118.85786133 56.9284668 -120.55786133 56.9284668 C-120.55786133 58.2484668 -120.55786133 59.5684668 -120.55786133 60.9284668 C-118.90786133 60.9284668 -117.25786133 60.9284668 -115.55786133 60.9284668 C-115.55786133 62.5784668 -115.55786133 64.2284668 -115.55786133 65.9284668 C-117.20786133 65.9284668 -118.85786133 65.9284668 -120.55786133 65.9284668 C-120.55786133 69.2284668 -120.55786133 72.5284668 -120.55786133 75.9284668 C-122.20786133 75.9284668 -123.85786133 75.9284668 -125.55786133 75.9284668 C-125.55786133 82.1984668 -125.55786133 88.4684668 -125.55786133 94.9284668 C-123.90786133 94.9284668 -122.25786133 94.9284668 -120.55786133 94.9284668 C-120.55786133 99.5484668 -120.55786133 104.1684668 -120.55786133 108.9284668 C-122.20786133 108.9284668 -123.85786133 108.9284668 -125.55786133 108.9284668 C-125.55786133 112.2284668 -125.55786133 115.5284668 -125.55786133 118.9284668 C-126.87786133 118.9284668 -128.19786133 118.9284668 -129.55786133 118.9284668 C-129.55786133 121.8984668 -129.55786133 124.8684668 -129.55786133 127.9284668 C-128.23786133 127.9284668 -126.91786133 127.9284668 -125.55786133 127.9284668 C-125.55786133 132.8784668 -125.55786133 137.8284668 -125.55786133 142.9284668 C-123.90786133 142.9284668 -122.25786133 142.9284668 -120.55786133 142.9284668 C-120.55786133 145.8984668 -120.55786133 148.8684668 -120.55786133 151.9284668 C-119.23786133 151.9284668 -117.91786133 151.9284668 -116.55786133 151.9284668 C-116.22786133 150.2784668 -115.89786133 148.6284668 -115.55786133 146.9284668 C-113.90786133 146.9284668 -112.25786133 146.9284668 -110.55786133 146.9284668 C-110.55786133 145.6084668 -110.55786133 144.2884668 -110.55786133 142.9284668 C-109.23786133 142.9284668 -107.91786133 142.9284668 -106.55786133 142.9284668 C-106.55786133 144.2484668 -106.55786133 145.5684668 -106.55786133 146.9284668 C-103.25786133 146.9284668 -99.95786133 146.9284668 -96.55786133 146.9284668 C-96.55786133 148.5784668 -96.55786133 150.2284668 -96.55786133 151.9284668 C-102.82786133 151.9284668 -109.09786133 151.9284668 -115.55786133 151.9284668 C-115.55786133 153.5784668 -115.55786133 155.2284668 -115.55786133 156.9284668 C-112.58786133 156.9284668 -109.61786133 156.9284668 -106.55786133 156.9284668 C-106.55786133 158.2484668 -106.55786133 159.5684668 -106.55786133 160.9284668 C-107.87786133 160.9284668 -109.19786133 160.9284668 -110.55786133 160.9284668 C-110.55786133 162.9084668 -110.55786133 164.8884668 -110.55786133 166.9284668 C-112.20786133 166.9284668 -113.85786133 166.9284668 -115.55786133 166.9284668 C-115.55786133 168.2484668 -115.55786133 169.5684668 -115.55786133 170.9284668 C-117.20786133 170.9284668 -118.85786133 170.9284668 -120.55786133 170.9284668 C-120.55786133 172.5784668 -120.55786133 174.2284668 -120.55786133 175.9284668 C-123.52786133 175.9284668 -126.49786133 175.9284668 -129.55786133 175.9284668 C-129.55786133 177.5784668 -129.55786133 179.2284668 -129.55786133 180.9284668 C-134.50786133 180.9284668 -139.45786133 180.9284668 -144.55786133 180.9284668 C-144.55786133 179.2784668 -144.55786133 177.6284668 -144.55786133 175.9284668 C-146.20786133 175.9284668 -147.85786133 175.9284668 -149.55786133 175.9284668 C-149.55786133 172.6284668 -149.55786133 169.3284668 -149.55786133 165.9284668 C-152.52786133 165.9284668 -155.49786133 165.9284668 -158.55786133 165.9284668 C-158.55786133 164.2784668 -158.55786133 162.6284668 -158.55786133 160.9284668 C-163.50786133 160.9284668 -168.45786133 160.9284668 -173.55786133 160.9284668 C-173.55786133 162.5784668 -173.55786133 164.2284668 -173.55786133 165.9284668 C-170.25786133 165.9284668 -166.95786133 165.9284668 -163.55786133 165.9284668 C-163.55786133 167.5784668 -163.55786133 169.2284668 -163.55786133 170.9284668 C-171.47786133 170.9284668 -179.39786133 170.9284668 -187.55786133 170.9284668 C-187.55786133 169.2784668 -187.55786133 167.6284668 -187.55786133 165.9284668 C-189.20786133 165.9284668 -190.85786133 165.9284668 -192.55786133 165.9284668 C-192.55786133 161.3084668 -192.55786133 156.6884668 -192.55786133 151.9284668 C-193.87786133 151.9284668 -195.19786133 151.9284668 -196.55786133 151.9284668 C-196.55786133 144.0084668 -196.55786133 136.0884668 -196.55786133 127.9284668 C-197.21786133 127.9284668 -197.87786133 127.9284668 -198.55786133 127.9284668 C-199.08084276 119.91724057 -197.589232 113.14054234 -195.30786133 105.4909668 C-195.00750977 104.43586914 -194.7071582 103.38077148 -194.39770508 102.29370117 C-187.27109109 77.65381237 -175.83142814 56.10312391 -157.55786133 37.9284668 C-156.82792969 37.19466797 -156.82792969 37.19466797 -156.08325195 36.44604492 C-136.34924034 16.81414979 -112.3718648 3.15339741 -85.55786133 -4.0715332 C-84.5453833 -4.34489502 -84.5453833 -4.34489502 -83.51245117 -4.6237793 C-57.87644738 -11.09881921 -24.55452376 -9.33775743 0 0 Z " fill="#74ABE3" transform="translate(201.557861328125,10.071533203125)"/>
<path d="M0 0 C0.66 0 1.32 0 2 0 C2 7.92 2 15.84 2 24 C3.32 24 4.64 24 6 24 C6 28.62 6 33.24 6 38 C7.65 38 9.3 38 11 38 C11 39.65 11 41.3 11 43 C18.92 43 26.84 43 35 43 C35 41.35 35 39.7 35 38 C31.7 38 28.4 38 25 38 C25 36.35 25 34.7 25 33 C29.95 33 34.9 33 40 33 C40 34.65 40 36.3 40 38 C42.97 38 45.94 38 49 38 C49 41.3 49 44.6 49 48 C50.65 48 52.3 48 54 48 C54 49.65 54 51.3 54 53 C58.95 53 63.9 53 69 53 C69 51.35 69 49.7 69 48 C71.97 48 74.94 48 78 48 C78 46.35 78 44.7 78 43 C79.65 43 81.3 43 83 43 C83 41.68 83 40.36 83 39 C84.65 39 86.3 39 88 39 C88 37.02 88 35.04 88 33 C89.32 33 90.64 33 92 33 C92 34.65 92 36.3 92 38 C93.65 38 95.3 38 97 38 C97 41.3 97 44.6 97 48 C98.65 48 100.3 48 102 48 C102 54.27 102 60.54 102 67 C103.32 67 104.64 67 106 67 C106 88.78 106 110.56 106 133 C104.68 133.33 103.36 133.66 102 134 C102 132.35 102 130.7 102 129 C100.35 129 98.7 129 97 129 C97 130.65 97 132.3 97 134 C92.38 134 87.76 134 83 134 C83 135.32 83 136.64 83 138 C63.60149209 139.66761604 63.60149209 139.66761604 57 134.1875 C55.30312198 132.48797061 53.63703035 130.75724977 52 129 C50.51701328 127.69252633 49.03369683 126.38531178 47.53662109 125.09399414 C22.54439532 103.2347309 8.81139881 73.76635514 1 42 C0.67 44.64 0.34 47.28 0 50 C-2.76248869 44.84335444 -3.1129027 40.87094034 -3 35 C-1.68 35.66 -0.36 36.32 1 37 C0.67 36.34 0.34 35.68 0 35 C-0.08667255 32.37372867 -0.11560135 29.77437517 -0.09765625 27.1484375 C-0.09553383 25.98738998 -0.09553383 25.98738998 -0.09336853 24.80288696 C-0.08776403 22.32688558 -0.07521083 19.85097412 -0.0625 17.375 C-0.05748558 15.69791797 -0.05292257 14.02083453 -0.04882812 12.34375 C-0.03779315 8.22913194 -0.02052554 4.11458122 0 0 Z " fill="#92C4EB" transform="translate(3,138)"/>
<path d="M0 0 C0.33 0 0.66 0 1 0 C1 1.65 1 3.3 1 5 C2.65 5.33 4.3 5.66 6 6 C6 10.29 6 14.58 6 19 C10.62 19 15.24 19 20 19 C20 17.35 20 15.7 20 14 C22.64 14 25.28 14 28 14 C40.34725618 36.70301942 50.54351775 59.60919382 50 86 C49.34 86 48.68 86 48 86 C48 87.65 48 89.3 48 91 C46.35 91 44.7 91 43 91 C43 92.32 43 93.64 43 95 C41.68 95 40.36 95 39 95 C39 96.98 39 98.96 39 101 C37.35 101 35.7 101 34 101 C34 105.29 34 109.58 34 114 C32.35 114 30.7 114 29 114 C29 115.65 29 117.3 29 119 C27.35 119 25.7 119 24 119 C24 120.65 24 122.3 24 124 C22.68 124 21.36 124 20 124 C20 122.35 20 120.7 20 119 C12.08 119 4.16 119 -4 119 C-4 120.65 -4 122.3 -4 124 C-5.65 124 -7.3 124 -9 124 C-9 113.11 -9 102.22 -9 91 C-12.3 91 -15.6 91 -19 91 C-18.67 87.7 -18.34 84.4 -18 81 C-21.3 81 -24.6 81 -28 81 C-28 76.38 -28 71.76 -28 67 C-29.65 67 -31.3 67 -33 67 C-33 65.35 -33 63.7 -33 62 C-34.32 62 -35.64 62 -37 62 C-37 65.3 -37 68.6 -37 72 C-38.98 72 -40.96 72 -43 72 C-43 74.97 -43 77.94 -43 81 C-55.54 81 -68.08 81 -81 81 C-81 79.35 -81 77.7 -81 76 C-82.32 76 -83.64 76 -85 76 C-85 74.68 -85 73.36 -85 72 C-86.65 72 -88.3 72 -90 72 C-90 70.35 -90 68.7 -90 67 C-91.65 67 -93.3 67 -95 67 C-95 65.35 -95 63.7 -95 62 C-96.32 62 -97.64 62 -99 62 C-99 60.35 -99 58.7 -99 57 C-102.3 57 -105.6 57 -109 57 C-109 55.35 -109 53.7 -109 52 C-106.03 52 -103.06 52 -100 52 C-100 50.68 -100 49.36 -100 48 C-104.62 48 -109.24 48 -114 48 C-114 49.32 -114 50.64 -114 52 C-116.97 52 -119.94 52 -123 52 C-123 53.98 -123 55.96 -123 58 C-124.65 58 -126.3 58 -128 58 C-128 59.32 -128 60.64 -128 62 C-129.32 62 -130.64 62 -132 62 C-132 59.03 -132 56.06 -132 53 C-130.68 53 -129.36 53 -128 53 C-128 51.35 -128 49.7 -128 48 C-131.3 48 -134.6 48 -138 48 C-138 46.35 -138 44.7 -138 43 C-136.35 43 -134.7 43 -133 43 C-133 41.35 -133 39.7 -133 38 C-128.38 38 -123.76 38 -119 38 C-118.67 36.35 -118.34 34.7 -118 33 C-113.71 33 -109.42 33 -105 33 C-104.67 31.68 -104.34 30.36 -104 29 C-102.35 29 -100.7 29 -99 29 C-99 30.32 -99 31.64 -99 33 C-97.02 32.505 -97.02 32.505 -95 32 C-94.67 30.35 -94.34 28.7 -94 27 C-86.41 27.33 -78.82 27.66 -71 28 C-71 27.01 -71 26.02 -71 25 C-69.35 25 -67.7 25 -66 25 C-66 26.32 -66 27.64 -66 29 C-67.65 29 -69.3 29 -71 29 C-71 30.65 -71 32.3 -71 34 C-77.27 34 -83.54 34 -90 34 C-90 43.57 -90 53.14 -90 63 C-88.35 63 -86.7 63 -85 63 C-85 64.32 -85 65.64 -85 67 C-82.03 67 -79.06 67 -76 67 C-76 68.65 -76 70.3 -76 72 C-73.03 72 -70.06 72 -67 72 C-67 73.32 -67 74.64 -67 76 C-62.05 76 -57.1 76 -52 76 C-52 74.68 -52 73.36 -52 72 C-50.35 72 -48.7 72 -47 72 C-47 68.7 -47 65.4 -47 62 C-45.35 62 -43.7 62 -42 62 C-42 55.73 -42 49.46 -42 43 C-43.65 43 -45.3 43 -47 43 C-47 41.35 -47 39.7 -47 38 C-44.03 38 -41.06 38 -38 38 C-38 39.65 -38 41.3 -38 43 C-33.05 43 -28.1 43 -23 43 C-23 47.62 -23 52.24 -23 57 C-24.32 57.33 -25.64 57.66 -27 58 C-27.33 59.32 -27.66 60.64 -28 62 C-24.7 62 -21.4 62 -18 62 C-18 66.62 -18 71.24 -18 76 C-15.03 76 -12.06 76 -9 76 C-9 71.38 -9 66.76 -9 62 C-5.7 62 -2.4 62 1 62 C1 57.38 1 52.76 1 48 C2.32 48 3.64 48 5 48 C5 46.35 5 44.7 5 43 C3.68 43 2.36 43 1 43 C1 41.35 1 39.7 1 38 C2.32 38 3.64 38 5 38 C5 30.08 5 22.16 5 14 C3.68 14 2.36 14 1 14 C0.06380187 10.84493858 -0.1057123 8.03413498 -0.0625 4.75 C-0.05347656 3.85796875 -0.04445312 2.9659375 -0.03515625 2.046875 C-0.01775391 1.03367188 -0.01775391 1.03367188 0 0 Z " fill="#75ACE3" transform="translate(252,57)"/>
<path d="M0 0 C4.62 0 9.24 0 14 0 C14 1.65 14 3.3 14 5 C15.65 5 17.3 5 19 5 C19 6.65 19 8.3 19 10 C20.65 10 22.3 10 24 10 C24 8.35 24 6.7 24 5 C30.27 5 36.54 5 43 5 C43 6.65 43 8.3 43 10 C44.32 10 45.64 10 47 10 C47 11.65 47 13.3 47 15 C48.65 15 50.3 15 52 15 C52 16.65 52 18.3 52 20 C53.65 20 55.3 20 57 20 C57 21.32 57 22.64 57 24 C63.27 24 69.54 24 76 24 C76 22.68 76 21.36 76 20 C79.3 20 82.6 20 86 20 C86 21.32 86 22.64 86 24 C87.65 24 89.3 24 91 24 C91 25.65 91 27.3 91 29 C92.32 29 93.64 29 95 29 C95 30.65 95 32.3 95 34 C93.68 34 92.36 34 91 34 C91 38.62 91 43.24 91 48 C87.7 48 84.4 48 81 48 C81 52.62 81 57.24 81 62 C78.03 62 75.06 62 72 62 C72 57.38 72 52.76 72 48 C68.7 48 65.4 48 62 48 C62.33 46.35 62.66 44.7 63 43 C64.32 43 65.64 43 67 43 C67 38.38 67 33.76 67 29 C62.05 29 57.1 29 52 29 C52 27.35 52 25.7 52 24 C49.03 24 46.06 24 43 24 C43 25.65 43 27.3 43 29 C44.65 29 46.3 29 48 29 C48 35.27 48 41.54 48 48 C46.35 48 44.7 48 43 48 C43 51.3 43 54.6 43 58 C41.35 58 39.7 58 38 58 C38 59.32 38 60.64 38 62 C33.05 62 28.1 62 23 62 C23 60.68 23 59.36 23 58 C20.03 58 17.06 58 14 58 C14 56.35 14 54.7 14 53 C11.03 53 8.06 53 5 53 C5 51.68 5 50.36 5 49 C3.35 49 1.7 49 0 49 C0 39.43 0 29.86 0 20 C6.27 20 12.54 20 19 20 C19 18.35 19 16.7 19 15 C20.65 15 22.3 15 24 15 C24 13.68 24 12.36 24 11 C22.35 11 20.7 11 19 11 C19 11.99 19 12.98 19 14 C11.74 14 4.48 14 -3 14 C-3.66 15.65 -4.32 17.3 -5 19 C-6.32 19 -7.64 19 -9 19 C-9 17.68 -9 16.36 -9 15 C-10.65 15 -12.3 15 -14 15 C-14 13.35 -14 11.7 -14 10 C-12.68 10 -11.36 10 -10 10 C-10 8.35 -10 6.7 -10 5 C-6.7 5 -3.4 5 0 5 C0 3.35 0 1.7 0 0 Z " fill="#814932" transform="translate(162,71)"/>
<path d="M0 0 C1.65 0 3.3 0 5 0 C5 1.32 5 2.64 5 4 C3.35 4 1.7 4 0 4 C0 5.65 0 7.3 0 9 C-6.27 9 -12.54 9 -19 9 C-19 18.57 -19 28.14 -19 38 C-17.35 38 -15.7 38 -14 38 C-14 39.32 -14 40.64 -14 42 C-11.03 42 -8.06 42 -5 42 C-5 43.65 -5 45.3 -5 47 C-2.03 47 0.94 47 4 47 C4 48.32 4 49.64 4 51 C8.95 51 13.9 51 19 51 C19 49.68 19 48.36 19 47 C20.65 47 22.3 47 24 47 C24 43.7 24 40.4 24 37 C25.65 37 27.3 37 29 37 C29 30.73 29 24.46 29 18 C27.35 18 25.7 18 24 18 C24 16.35 24 14.7 24 13 C26.97 13 29.94 13 33 13 C33 14.65 33 16.3 33 18 C37.95 18 42.9 18 48 18 C48 22.62 48 27.24 48 32 C46.68 32.33 45.36 32.66 44 33 C43.67 34.32 43.34 35.64 43 37 C46.3 37 49.6 37 53 37 C53 41.62 53 46.24 53 51 C55.97 51 58.94 51 62 51 C62 46.38 62 41.76 62 37 C63.65 37 65.3 37 67 37 C67 44.92 67 52.84 67 61 C68.65 61 70.3 61 72 61 C72 59.35 72 57.7 72 56 C73.32 56 74.64 56 76 56 C76 54.35 76 52.7 76 51 C77.65 51 79.3 51 81 51 C81 49.68 81 48.36 81 47 C82.65 47 84.3 47 86 47 C86 42.05 86 37.1 86 32 C84.35 32 82.7 32 81 32 C81 30.68 81 29.36 81 28 C79.68 28 78.36 28 77 28 C77 26.35 77 24.7 77 23 C79.97 23 82.94 23 86 23 C86 24.32 86 25.64 86 27 C87.65 27 89.3 27 91 27 C91 28.98 91 30.96 91 33 C92.32 33 93.64 33 95 33 C95 37.62 95 42.24 95 47 C93.68 47 92.36 47 91 47 C91 49.97 91 52.94 91 56 C87.7 56 84.4 56 81 56 C81 59.3 81 62.6 81 66 C76.38 66 71.76 66 67 66 C67 76.89 67 87.78 67 99 C65.35 99 63.7 99 62 99 C62 88.11 62 77.22 62 66 C58.7 66 55.4 66 52 66 C52.495 61.05 52.495 61.05 53 56 C49.7 56 46.4 56 43 56 C43 51.38 43 46.76 43 42 C41.35 42 39.7 42 38 42 C38 40.35 38 38.7 38 37 C36.68 37 35.36 37 34 37 C34 40.3 34 43.6 34 47 C32.02 47 30.04 47 28 47 C28 49.97 28 52.94 28 56 C15.46 56 2.92 56 -10 56 C-10 54.35 -10 52.7 -10 51 C-11.32 51 -12.64 51 -14 51 C-14 49.68 -14 48.36 -14 47 C-15.65 47 -17.3 47 -19 47 C-19 45.35 -19 43.7 -19 42 C-20.65 42 -22.3 42 -24 42 C-24 40.35 -24 38.7 -24 37 C-25.32 37 -26.64 37 -28 37 C-28 35.35 -28 33.7 -28 32 C-31.3 32 -34.6 32 -38 32 C-38 30.35 -38 28.7 -38 27 C-35.03 27 -32.06 27 -29 27 C-29 25.68 -29 24.36 -29 23 C-33.62 23 -38.24 23 -43 23 C-43 24.32 -43 25.64 -43 27 C-45.97 27 -48.94 27 -52 27 C-52 28.98 -52 30.96 -52 33 C-53.65 33 -55.3 33 -57 33 C-57 34.32 -57 35.64 -57 37 C-58.32 37 -59.64 37 -61 37 C-61 34.03 -61 31.06 -61 28 C-59.68 28 -58.36 28 -57 28 C-57 26.35 -57 24.7 -57 23 C-60.3 23 -63.6 23 -67 23 C-67 21.35 -67 19.7 -67 18 C-65.35 18 -63.7 18 -62 18 C-62 16.35 -62 14.7 -62 13 C-57.38 13 -52.76 13 -48 13 C-47.67 11.35 -47.34 9.7 -47 8 C-42.71 8 -38.42 8 -34 8 C-33.67 6.68 -33.34 5.36 -33 4 C-31.35 4 -29.7 4 -28 4 C-28 5.32 -28 6.64 -28 8 C-26.68 7.67 -25.36 7.34 -24 7 C-23.67 5.35 -23.34 3.7 -23 2 C-15.41 2.33 -7.82 2.66 0 3 C0 2.01 0 1.02 0 0 Z " fill="#B0A29D" transform="translate(181,82)"/>
<path d="M0 0 C3.31336636 0.01384009 6.62388281 -0.02030434 9.93701172 -0.05834961 C40.29930934 -0.16838352 69.70340323 9.31465542 94.08154297 27.57641602 C94.71833984 28.03274414 95.35513672 28.48907227 96.01123047 28.95922852 C106.76950806 36.77125581 115.99653972 44.99725231 124.08154297 55.57641602 C125.00651218 56.71851415 125.93507534 57.85770841 126.86669922 58.99438477 C131.82026709 65.08024437 136.24583574 71.01574948 139.76513672 78.07641602 C141.08272114 80.69555259 141.08272114 80.69555259 143.02685547 83.41625977 C155.80720289 103.07272567 157.87619785 126.83306094 157.56860352 149.59204102 C157.5185547 153.36320694 157.50706845 157.13307029 157.50146484 160.90454102 C157.48739753 163.33163816 157.47119991 165.7587241 157.45263672 168.18579102 C157.44727402 169.29839294 157.44191132 170.41099487 157.43638611 171.55731201 C157.34073509 177.85551744 156.6801406 183.47929033 155.08154297 189.57641602 C154.42154297 189.57641602 153.76154297 189.57641602 153.08154297 189.57641602 C152.75154297 191.22641602 152.42154297 192.87641602 152.08154297 194.57641602 C151.42154297 194.57641602 150.76154297 194.57641602 150.08154297 194.57641602 C149.92886922 189.54383679 150.47261775 185.15619623 151.55810547 180.24829102 C153.35233166 171.41778476 153.55377286 162.81100641 153.45654297 153.82641602 C153.45122559 153.03860748 153.4459082 152.25079895 153.44042969 151.43911743 C153.23883957 125.9027539 148.61916632 102.95068456 135.74560547 80.53735352 C134.27663405 77.9235499 133.11525702 75.3851946 132.08154297 72.57641602 C128.12154297 72.08141602 128.12154297 72.08141602 124.08154297 71.57641602 C124.08154297 73.22641602 124.08154297 74.87641602 124.08154297 76.57641602 C119.46154297 76.57641602 114.84154297 76.57641602 110.08154297 76.57641602 C109.75154297 72.28641602 109.42154297 67.99641602 109.08154297 63.57641602 C107.76154297 63.24641602 106.44154297 62.91641602 105.08154297 62.57641602 C105.08154297 60.92641602 105.08154297 59.27641602 105.08154297 57.57641602 C103.43154297 57.57641602 101.78154297 57.57641602 100.08154297 57.57641602 C100.08154297 54.27641602 100.08154297 50.97641602 100.08154297 47.57641602 C98.43154297 47.57641602 96.78154297 47.57641602 95.08154297 47.57641602 C95.08154297 46.25641602 95.08154297 44.93641602 95.08154297 43.57641602 C93.43154297 43.57641602 91.78154297 43.57641602 90.08154297 43.57641602 C90.08154297 41.92641602 90.08154297 40.27641602 90.08154297 38.57641602 C88.76154297 38.57641602 87.44154297 38.57641602 86.08154297 38.57641602 C86.08154297 36.92641602 86.08154297 35.27641602 86.08154297 33.57641602 C84.43154297 33.57641602 82.78154297 33.57641602 81.08154297 33.57641602 C80.75154297 29.94641602 80.42154297 26.31641602 80.08154297 22.57641602 C77.24951452 21.30260835 74.41599481 20.032311 71.58154297 18.76391602 C70.79005859 18.40749023 69.99857422 18.05106445 69.18310547 17.68383789 C64.20863741 15.461637 59.20988007 13.41541434 54.08154297 11.57641602 C53.11732422 11.22579102 52.15310547 10.87516602 51.15966797 10.51391602 C24.75899081 1.76231033 -8.11180554 1.03058481 -34.91845703 8.57641602 C-35.69382812 8.79072266 -36.46919922 9.0050293 -37.26806641 9.22583008 C-73.6259868 19.59010033 -107.53633607 45.57523791 -126.07324219 78.63598633 C-127.17552391 80.68604685 -128.24454879 82.74857398 -129.29345703 84.82641602 C-129.6029126 85.43888184 -129.91236816 86.05134766 -130.23120117 86.68237305 C-132.46006816 91.2661207 -134.2231475 95.97253519 -135.91894531 100.77661133 C-136.54887494 102.54115283 -137.20294941 104.29743487 -137.890625 106.0402832 C-146.61501532 128.33345539 -144.58467608 152.08011472 -143.91845703 175.57641602 C-144.90845703 175.90641602 -145.89845703 176.23641602 -146.91845703 176.57641602 C-147.80993325 173.90198737 -148.06628287 172.25400432 -148.12719727 169.50170898 C-148.1462059 168.68081787 -148.16521454 167.85992676 -148.18479919 167.01416016 C-148.19874222 166.12462646 -148.21268524 165.23509277 -148.22705078 164.31860352 C-148.24240372 163.39120361 -148.25775665 162.46380371 -148.27357483 161.50830078 C-148.79872405 122.48908331 -148.79872405 122.48908331 -141.91845703 103.57641602 C-141.60279785 102.69937012 -141.28713867 101.82232422 -140.96191406 100.91870117 C-137.26303113 90.94225379 -132.72768536 81.50702075 -126.91845703 72.57641602 C-126.24169922 71.53356445 -125.56494141 70.49071289 -124.86767578 69.41625977 C-104.40028417 38.91512023 -74.59019599 14.70907502 -38.91845703 4.57641602 C-37.78698242 4.23441162 -36.65550781 3.89240723 -35.48974609 3.54003906 C-23.71704812 0.22203371 -12.17556428 -0.0707153 0 0 Z " fill="#D7E5F2" transform="translate(147.91845703125,-0.576416015625)"/>
<path d="M0 0 C1.32 0 2.64 0 4 0 C4 1.65 4 3.3 4 5 C5.65 5 7.3 5 9 5 C9 6.32 9 7.64 9 9 C10.65 9 12.3 9 14 9 C14 10.65 14 12.3 14 14 C15.65 14 17.3 14 19 14 C19.33 15.32 19.66 16.64 20 18 C25.94 18.33 31.88 18.66 38 19 C38 20.32 38 21.64 38 23 C44.27 23 50.54 23 57 23 C57 24.65 57 26.3 57 28 C63.27 28 69.54 28 76 28 C76 29.65 76 31.3 76 33 C77.32 33 78.64 33 80 33 C80.495 42.405 80.495 42.405 81 52 C82.32 52 83.64 52 85 52 C85 52.66 85 53.32 85 54 C84.360625 54.12375 83.72125 54.2475 83.0625 54.375 C82.381875 54.58125 81.70125 54.7875 81 55 C80.505 55.99 80.505 55.99 80 57 C78.68 57 77.36 57 76 57 C76 58.32 76 59.64 76 61 C68.08 61 60.16 61 52 61 C52 59.68 52 58.36 52 57 C51.36191406 57.01160156 50.72382813 57.02320313 50.06640625 57.03515625 C49.24011719 57.04417969 48.41382813 57.05320313 47.5625 57.0625 C46.73878906 57.07410156 45.91507813 57.08570313 45.06640625 57.09765625 C43 57 43 57 42 56 C41.85806663 52.99668982 41.95763622 50.00782866 42 47 C39.03 47 36.06 47 33 47 C33 45.68 33 44.36 33 43 C31.68 43 30.36 43 29 43 C28.505 40.525 28.505 40.525 28 38 C26.68 38 25.36 38 24 38 C24 34.7 24 31.4 24 28 C20.7 28 17.4 28 14 28 C14 24.7 14 21.4 14 18 C12.35 18 10.7 18 9 18 C9 16.68 9 15.36 9 14 C7.35 14 5.7 14 4 14 C4 12.35 4 10.7 4 9 C2.68 9 1.36 9 0 9 C0 6.03 0 3.06 0 0 Z " fill="#77412B" transform="translate(129,191)"/>
<path d="M0 0 C1.65 0 3.3 0 5 0 C5 10.89 5 21.78 5 33 C6.65 33 8.3 33 10 33 C10 43.89 10 54.78 10 66 C11.32 66 12.64 66 14 66 C14 69.3 14 72.6 14 76 C15.65 76 17.3 76 19 76 C19 77.65 19 79.3 19 81 C20.65 81 22.3 81 24 81 C24 83.97 24 86.94 24 90 C25.32 90 26.64 90 28 90 C28 93.3 28 96.6 28 100 C29.65 100 31.3 100 33 100 C33 102.97 33 105.94 33 109 C31.68 109 30.36 109 29 109 C28.67 108.01 28.34 107.02 28 106 C25.98491642 105.26676204 25.98491642 105.26676204 24 105 C24 106.65 24 108.3 24 110 C22.35 110 20.7 110 19 110 C19 111.32 19 112.64 19 114 C19.99 114.495 19.99 114.495 21 115 C15.31928405 115.31930822 11.10475757 114.31492683 5.8125 112.3125 C5.06709961 112.03849365 4.32169922 111.7644873 3.55371094 111.48217773 C1.36319549 110.66957477 -0.81935066 109.83867166 -3 109 C-4.09441406 108.58234375 -5.18882813 108.1646875 -6.31640625 107.734375 C-26.70512687 99.58974626 -26.70512687 99.58974626 -29 95 C-27.35 95 -25.7 95 -24 95 C-24 93.35 -24 91.7 -24 90 C-22.35 90 -20.7 90 -19 90 C-19 88.68 -19 87.36 -19 86 C-14.38 86 -9.76 86 -5 86 C-5 84.35 -5 82.7 -5 81 C-3.35 81 -1.7 81 0 81 C0 82.65 0 84.3 0 86 C1.98 85.505 1.98 85.505 4 85 C4 63.22 4 41.44 4 19 C2.68 19 1.36 19 0 19 C0 12.73 0 6.46 0 0 Z " fill="#535F68" transform="translate(105,186)"/>
<path d="M0 0 C4.62 0 9.24 0 14 0 C14 1.65 14 3.3 14 5 C15.65 5 17.3 5 19 5 C19 6.65 19 8.3 19 10 C20.65 10 22.3 10 24 10 C24 8.35 24 6.7 24 5 C30.27 5 36.54 5 43 5 C43 6.65 43 8.3 43 10 C44.32 10 45.64 10 47 10 C47 11.65 47 13.3 47 15 C48.65 15 50.3 15 52 15 C52 16.65 52 18.3 52 20 C53.65 20 55.3 20 57 20 C57 21.32 57 22.64 57 24 C63.27 24 69.54 24 76 24 C76 22.68 76 21.36 76 20 C79.3 20 82.6 20 86 20 C86 21.32 86 22.64 86 24 C87.65 24 89.3 24 91 24 C91 25.65 91 27.3 91 29 C92.32 29 93.64 29 95 29 C95 30.65 95 32.3 95 34 C93.68 34 92.36 34 91 34 C91 38.62 91 43.24 91 48 C87.7 48 84.4 48 81 48 C81 52.62 81 57.24 81 62 C78.03 62 75.06 62 72 62 C72 57.38 72 52.76 72 48 C68.7 48 65.4 48 62 48 C62.33 46.35 62.66 44.7 63 43 C64.32 43 65.64 43 67 43 C67 38.38 67 33.76 67 29 C62.05 29 57.1 29 52 29 C52 27.35 52 25.7 52 24 C47.38 24 42.76 24 38 24 C38 22.68 38 21.36 38 20 C34.7 20 31.4 20 28 20 C28 18.35 28 16.7 28 15 C26.68 15 25.36 15 24 15 C24 13.68 24 12.36 24 11 C22.35 11 20.7 11 19 11 C19 11.99 19 12.98 19 14 C11.74 14 4.48 14 -3 14 C-3.66 15.65 -4.32 17.3 -5 19 C-6.32 19 -7.64 19 -9 19 C-9 17.68 -9 16.36 -9 15 C-10.65 15 -12.3 15 -14 15 C-14 13.35 -14 11.7 -14 10 C-12.68 10 -11.36 10 -10 10 C-10 8.35 -10 6.7 -10 5 C-6.7 5 -3.4 5 0 5 C0 3.35 0 1.7 0 0 Z " fill="#824930" transform="translate(162,71)"/>
<path d="M0 0 C1.32 0 2.64 0 4 0 C4 1.32 4 2.64 4 4 C6.97 4 9.94 4 13 4 C13 5.65 13 7.3 13 9 C14.65 9 16.3 9 18 9 C18 10.65 18 12.3 18 14 C19.65 14 21.3 14 23 14 C23 15.32 23 16.64 23 18 C24.65 18 26.3 18 28 18 C28 21.3 28 24.6 28 28 C29.65 28 31.3 28 33 28 C33 29.65 33 31.3 33 33 C31.35 33 29.7 33 28 33 C28 34.65 28 36.3 28 38 C26.35 38 24.7 38 23 38 C23 39.32 23 40.64 23 42 C21.35 42 19.7 42 18 42 C18 43.65 18 45.3 18 47 C15.03 47 12.06 47 9 47 C9 50.3 9 53.6 9 57 C4.05 57 -0.9 57 -6 57 C-6 53.7 -6 50.4 -6 47 C-7.32 47 -8.64 47 -10 47 C-10 40.73 -10 34.46 -10 28 C-11.32 28 -12.64 28 -14 28 C-14 29.65 -14 31.3 -14 33 C-14.33 33 -14.66 33 -15 33 C-15 23.43 -15 13.86 -15 4 C-13.35 4 -11.7 4 -10 4 C-10 7.3 -10 10.6 -10 14 C-8.68 14 -7.36 14 -6 14 C-6 15.65 -6 17.3 -6 19 C-4.35 19 -2.7 19 -1 19 C-1 20.65 -1 22.3 -1 24 C0.65 24 2.3 24 4 24 C4 22.02 4 20.04 4 18 C2.68 18 1.36 18 0 18 C0 12.06 0 6.12 0 0 Z " fill="#A38473" transform="translate(120,129)"/>
<path d="M0 0 C2.97 0 5.94 0 9 0 C9 1.65 9 3.3 9 5 C13.95 5 18.9 5 24 5 C24 9.62 24 14.24 24 19 C22.68 19.33 21.36 19.66 20 20 C19.67 21.32 19.34 22.64 19 24 C22.3 24 25.6 24 29 24 C29 28.62 29 33.24 29 38 C31.97 38 34.94 38 38 38 C38 33.38 38 28.76 38 24 C39.65 24 41.3 24 43 24 C43 31.92 43 39.84 43 48 C44.65 48 46.3 48 48 48 C48 46.35 48 44.7 48 43 C49.32 43 50.64 43 52 43 C52 41.35 52 39.7 52 38 C53.65 38 55.3 38 57 38 C57 36.68 57 35.36 57 34 C58.65 34 60.3 34 62 34 C62 29.05 62 24.1 62 19 C60.35 19 58.7 19 57 19 C57 17.68 57 16.36 57 15 C55.68 15 54.36 15 53 15 C53 13.35 53 11.7 53 10 C55.97 10 58.94 10 62 10 C62 11.32 62 12.64 62 14 C63.65 14 65.3 14 67 14 C67 15.98 67 17.96 67 20 C68.32 20 69.64 20 71 20 C71 24.62 71 29.24 71 34 C69.68 34 68.36 34 67 34 C67 36.97 67 39.94 67 43 C63.7 43 60.4 43 57 43 C57 46.3 57 49.6 57 53 C52.38 53 47.76 53 43 53 C43 63.89 43 74.78 43 86 C41.35 86 39.7 86 38 86 C38 75.11 38 64.22 38 53 C34.7 53 31.4 53 28 53 C28.33 49.7 28.66 46.4 29 43 C25.7 43 22.4 43 19 43 C19 38.38 19 33.76 19 29 C17.35 29 15.7 29 14 29 C14 27.35 14 25.7 14 24 C12.68 24 11.36 24 10 24 C10 27.3 10 30.6 10 34 C9.67 34 9.34 34 9 34 C9 30.7 9 27.4 9 24 C7.68 24 6.36 24 5 24 C5 17.73 5 11.46 5 5 C3.35 5 1.7 5 0 5 C0 3.35 0 1.7 0 0 Z " fill="#A28372" transform="translate(205,95)"/>
<path d="M0 0 C3.75218955 2.10390628 6.82991477 4.47239071 10 7.375 C10.825 8.12523437 11.65 8.87546875 12.5 9.6484375 C24.62897304 21.05725277 36.01342695 33.50384753 43.61328125 48.4296875 C44.99794819 51.10509044 44.99794819 51.10509044 46.953125 53.84765625 C59.7212677 73.51157067 61.79468699 97.25426978 61.48706055 120.015625 C61.43701173 123.78679092 61.42552548 127.55665427 61.41992188 131.328125 C61.40585456 133.75522214 61.38965694 136.18230808 61.37109375 138.609375 C61.36573105 139.72197693 61.36036835 140.83457886 61.35484314 141.980896 C61.25919212 148.27910143 60.59859763 153.90287432 59 160 C58.34 160 57.68 160 57 160 C56.67 161.65 56.34 163.3 56 165 C55.34 165 54.68 165 54 165 C53.84732625 159.96742077 54.39107478 155.57978021 55.4765625 150.671875 C57.27078869 141.84136874 57.47222989 133.23459039 57.375 124.25 C57.36702393 123.0682872 57.36702393 123.0682872 57.35888672 121.86270142 C57.1572966 96.32633788 52.53762335 73.37426855 39.6640625 50.9609375 C38.19509108 48.34713389 37.03371405 45.80877858 36 43 C33.36 42.67 30.72 42.34 28 42 C28 43.65 28 45.3 28 47 C23.38 47 18.76 47 14 47 C13.67 42.71 13.34 38.42 13 34 C11.68 33.67 10.36 33.34 9 33 C9 31.35 9 29.7 9 28 C7.35 28 5.7 28 4 28 C4 24.7 4 21.4 4 18 C2.68 18 1.36 18 0 18 C0 13.71 0 9.42 0 5 C0.66 5 1.32 5 2 5 C1.34 4.34 0.68 3.68 0 3 C0 2.01 0 1.02 0 0 Z " fill="#F0F3F4" transform="translate(244,29)"/>
<path d="M0 0 C4.62 0 9.24 0 14 0 C14 3.3 14 6.6 14 10 C17.3 10 20.6 10 24 10 C24 8.35 24 6.7 24 5 C25.32 5 26.64 5 28 5 C28 3.35 28 1.7 28 0 C29.98 0 31.96 0 34 0 C34 1.98 34 3.96 34 6 C32.35 6 30.7 6 29 6 C29 10.29 29 14.58 29 19 C27.35 19 25.7 19 24 19 C24 26.92 24 34.84 24 43 C20.7 43 17.4 43 14 43 C14 41.68 14 40.36 14 39 C12.68 39 11.36 39 10 39 C10 40.32 10 41.64 10 43 C8.35 43 6.7 43 5 43 C4.505 45.475 4.505 45.475 4 48 C2.68 48 1.36 48 0 48 C0 45.03 0 42.06 0 39 C-1.65 39 -3.3 39 -5 39 C-5 34.05 -5 29.1 -5 24 C-6.32 24 -7.64 24 -9 24 C-9 21.03 -9 18.06 -9 15 C-7.68 15 -6.36 15 -5 15 C-5 11.7 -5 8.4 -5 5 C-3.35 5 -1.7 5 0 5 C0 3.35 0 1.7 0 0 Z " fill="#834930" transform="translate(81,114)"/>
<path d="M0 0 C1.65 0 3.3 0 5 0 C5 1.65 5 3.3 5 5 C9.29 5 13.58 5 18 5 C11.87627591 11.53197236 4.68219017 17.3906859 -3 22 C-3.66 22 -4.32 22 -5 22 C-5 22.66 -5 23.32 -5 24 C-20.97956202 32.07492774 -36.64059412 38.96400962 -54.23681641 42.55053711 C-56.01395985 42.84378392 -56.01395985 42.84378392 -57 44 C-66.74670763 45.96330685 -76.3339896 46.28323384 -86.25 46.1875 C-87.53390625 46.18685547 -88.8178125 46.18621094 -90.140625 46.18554688 C-109.35456297 46.09695802 -109.35456297 46.09695802 -114 43 C-114 41.68 -114 40.36 -114 39 C-112.35 39 -110.7 39 -109 39 C-109 37.35 -109 35.7 -109 34 C-107.68 34 -106.36 34 -105 34 C-105 36.97 -105 39.94 -105 43 C-101.7 43 -98.4 43 -95 43 C-95 41.68 -95 40.36 -95 39 C-91.7 39 -88.4 39 -85 39 C-85 40.32 -85 41.64 -85 43 C-80.38 43 -75.76 43 -71 43 C-71 41.68 -71 40.36 -71 39 C-66.38 39 -61.76 39 -57 39 C-57 37.35 -57 35.7 -57 34 C-53.7 34 -50.4 34 -47 34 C-47 32.35 -47 30.7 -47 29 C-44.03 29 -41.06 29 -38 29 C-38 27.35 -38 25.7 -38 24 C-35.03 24 -32.06 24 -29 24 C-29 22.35 -29 20.7 -29 19 C-27.35 19 -25.7 19 -24 19 C-24 17.68 -24 16.36 -24 15 C-20.7 15 -17.4 15 -14 15 C-14 13.35 -14 11.7 -14 10 C-12.35 10 -10.7 10 -9 10 C-9 8.35 -9 6.7 -9 5 C-6.03 5 -3.06 5 0 5 C0 3.35 0 1.7 0 0 Z " fill="#292931" transform="translate(238,257)"/>
<path d="M0 0 C2 1 2 1 2.7902832 3.1262207 C3.04124756 4.05007568 3.29221191 4.97393066 3.55078125 5.92578125 C3.83445557 6.94446289 4.11812988 7.96314453 4.41040039 9.01269531 C4.70809326 10.10163086 5.00578613 11.19056641 5.3125 12.3125 C7.72203463 20.83288393 10.1694775 28.99954162 14 37 C14.44859375 37.97453125 14.8971875 38.9490625 15.359375 39.953125 C21.00158084 51.7835566 28.45149234 62.10756164 37 72 C37.42684082 72.49532227 37.85368164 72.99064453 38.29345703 73.50097656 C44.64387008 80.81498062 51.28184825 87.10818562 59 93 C59.60457031 93.56203125 60.20914063 94.1240625 60.83203125 94.703125 C63.98846995 96.59130094 67.16645433 96.5689517 70.75 96.6875 C71.44738281 96.72166016 72.14476563 96.75582031 72.86328125 96.79101562 C74.57497108 96.87308295 76.2874576 96.93822919 78 97 C78 98.65 78 100.3 78 102 C76.68 102.33 75.36 102.66 74 103 C85.70636157 109.53261111 97.22283726 114.93765825 110 119 C111.41055664 119.50551392 111.41055664 119.50551392 112.84960938 120.02124023 C115.96741288 120.98987587 118.80144318 121.47073563 122.04296875 121.81640625 C123.19120117 121.94039795 124.33943359 122.06438965 125.52246094 122.19213867 C126.73192383 122.31435791 127.94138672 122.43657715 129.1875 122.5625 C130.42661133 122.69180908 131.66572266 122.82111816 132.94238281 122.9543457 C142.95144386 123.96678179 152.94768204 124.64098864 163 125 C163 125.33 163 125.66 163 126 C128.41835303 127.03434637 97.8563088 124.38431989 68 105 C67.17757812 104.47019531 66.35515625 103.94039063 65.5078125 103.39453125 C55.10761419 96.40014868 45.67080272 88.02428868 37 79 C35.7315625 77.7625 35.7315625 77.7625 34.4375 76.5 C16.91304593 58.52620095 -0.047613 32.18157426 -0.125 6.4375 C-0.09320737 4.29149766 -0.05493545 2.14553464 0 0 Z " fill="#D9E5F0" transform="translate(3,179)"/>
<path d="M0 0 C1.65 0 3.3 0 5 0 C5 10.89 5 21.78 5 33 C6.65 33 8.3 33 10 33 C10 43.89 10 54.78 10 66 C11.32 66 12.64 66 14 66 C14 69.3 14 72.6 14 76 C15.65 76 17.3 76 19 76 C19 77.65 19 79.3 19 81 C20.65 81 22.3 81 24 81 C24 83.97 24 86.94 24 90 C25.32 90 26.64 90 28 90 C28 93.3 28 96.6 28 100 C29.65 100 31.3 100 33 100 C33 102.97 33 105.94 33 109 C31.68 109 30.36 109 29 109 C28.67 108.01 28.34 107.02 28 106 C25.99983534 104.79117904 25.99983534 104.79117904 24 104 C24 102.68 24 101.36 24 100 C22.35 100 20.7 100 19 100 C19 98.35 19 96.7 19 95 C17.35 95 15.7 95 14 95 C14 93.68 14 92.36 14 91 C11.03 91 8.06 91 5 91 C5 89.35 5 87.7 5 86 C4.01 85.67 3.02 85.34 2 85 C2.66 85 3.32 85 4 85 C4 63.22 4 41.44 4 19 C2.68 19 1.36 19 0 19 C0 12.73 0 6.46 0 0 Z " fill="#B4AAA7" transform="translate(105,186)"/>
<path d="M0 0 C1.65 0 3.3 0 5 0 C5 2.97 5 5.94 5 9 C7.97 9 10.94 9 14 9 C14 13.95 14 18.9 14 24 C15.65 24 17.3 24 19 24 C19 25.32 19 26.64 19 28 C21.97 28 24.94 28 28 28 C28 29.65 28 31.3 28 33 C30.97 33 33.94 33 37 33 C37 34.32 37 35.64 37 37 C41.95 37 46.9 37 52 37 C52 35.68 52 34.36 52 33 C53.65 33 55.3 33 57 33 C57 29.7 57 26.4 57 23 C59.97 23 62.94 23 66 23 C66 26.3 66 29.6 66 33 C64.35 33 62.7 33 61 33 C61 35.97 61 38.94 61 42 C48.46 42 35.92 42 23 42 C23 40.35 23 38.7 23 37 C21.68 37 20.36 37 19 37 C19 35.68 19 34.36 19 33 C17.35 33 15.7 33 14 33 C14 31.35 14 29.7 14 28 C12.35 28 10.7 28 9 28 C9 26.35 9 24.7 9 23 C7.68 23 6.36 23 5 23 C5 21.35 5 19.7 5 18 C1.7 18 -1.6 18 -5 18 C-5 16.35 -5 14.7 -5 13 C-2.03 13 0.94 13 4 13 C4 11.68 4 10.36 4 9 C2.68 9 1.36 9 0 9 C0 6.03 0 3.06 0 0 Z " fill="#A3958E" transform="translate(148,96)"/>
<path d="M0 0 C2.97 0 5.94 0 9 0 C9 1.65 9 3.3 9 5 C12.3 5 15.6 5 19 5 C19 6.32 19 7.64 19 9 C20.65 9 22.3 9 24 9 C24 10.65 24 12.3 24 14 C25.65 14 27.3 14 29 14 C29 20.27 29 26.54 29 33 C27.35 33 25.7 33 24 33 C24 36.3 24 39.6 24 43 C22.35 43 20.7 43 19 43 C19 44.32 19 45.64 19 47 C14.05 47 9.1 47 4 47 C4 45.68 4 44.36 4 43 C1.36 43 -1.28 43 -4 43 C-4 41.35 -4 39.7 -4 38 C-3.67 38.99 -3.34 39.98 -3 41 C-0.36 41 2.28 41 5 41 C5 40.01 5 39.02 5 38 C5.63808594 37.89042969 6.27617187 37.78085938 6.93359375 37.66796875 C7.75988281 37.50941406 8.58617187 37.35085937 9.4375 37.1875 C10.26121094 37.03667969 11.08492187 36.88585937 11.93359375 36.73046875 C12.61550781 36.48941406 13.29742187 36.24835938 14 36 C14.33 35.01 14.66 34.02 15 33 C16.32 33 17.64 33 19 33 C19 28.38 19 23.76 19 19 C17.35 19 15.7 19 14 19 C14 17.35 14 15.7 14 14 C11.03 14 8.06 14 5 14 C5 11.03 5 8.06 5 5 C3.35 5 1.7 5 0 5 C0 3.35 0 1.7 0 0 Z " fill="#74412C" transform="translate(181,86)"/>
<path d="M0 0 C1.73046875 0.125 1.73046875 0.125 4 1 C5.63587538 2.98361229 6.96798333 4.83118757 8.3125 7 C8.70276367 7.62447021 9.09302734 8.24894043 9.49511719 8.89233398 C22.46349313 30.34308644 25.82114784 53.29642436 25.48706055 78.015625 C25.43701173 81.78679092 25.42552548 85.55665427 25.41992188 89.328125 C25.40585456 91.75522214 25.38965694 94.18230808 25.37109375 96.609375 C25.36573105 97.72197693 25.36036835 98.83457886 25.35484314 99.980896 C25.25919212 106.27910143 24.59859763 111.90287432 23 118 C22.34 118 21.68 118 21 118 C20.67 119.65 20.34 121.3 20 123 C19.34 123 18.68 123 18 123 C17.84732625 117.96742077 18.39107478 113.57978021 19.4765625 108.671875 C21.27078869 99.84136874 21.47222989 91.23459039 21.375 82.25 C21.36702393 81.0682872 21.36702393 81.0682872 21.35888672 79.86270142 C21.15778495 54.38819872 16.61531405 31.37499334 3.6640625 9.05859375 C2.04637696 6.08524216 0.96393145 3.23744652 0 0 Z " fill="#D4E3F2" transform="translate(280,71)"/>
<path d="M0 0 C2.97 0 5.94 0 9 0 C9 1.65 9 3.3 9 5 C12.3 5 15.6 5 19 5 C19 6.32 19 7.64 19 9 C20.32 9 21.64 9 23 9 C23 10.98 23 12.96 23 15 C21.68 15 20.36 15 19 15 C19 16.32 19 17.64 19 19 C17.35 19 15.7 19 14 19 C14 23.62 14 28.24 14 33 C11.03 33 8.06 33 5 33 C5 28.38 5 23.76 5 19 C1.7 19 -1.6 19 -5 19 C-4.67 17.35 -4.34 15.7 -4 14 C-2.68 14 -1.36 14 0 14 C0 9.38 0 4.76 0 0 Z " fill="#6F3E2B" transform="translate(229,100)"/>
<path d="M0 0 C1.32 0 2.64 0 4 0 C4 1.65 4 3.3 4 5 C5.65 5 7.3 5 9 5 C9 6.65 9 8.3 9 10 C12.3 10 15.6 10 19 10 C19 11.32 19 12.64 19 14 C21.97 14 24.94 14 28 14 C28 15.65 28 17.3 28 19 C31.3 19 34.6 19 38 19 C38 20.65 38 22.3 38 24 C39.65 24 41.3 24 43 24 C43 25.65 43 27.3 43 29 C41.35 29 39.7 29 38 29 C37.67 27.35 37.34 25.7 37 24 C32.38 24 27.76 24 23 24 C23 22.35 23 20.7 23 19 C21.35 19 19.7 19 18 19 C18 17.68 18 16.36 18 15 C12.39 15 6.78 15 1 15 C1 13.35 1 11.7 1 10 C-8.9 10 -18.8 10 -29 10 C-29 8.35 -29 6.7 -29 5 C-19.43 5 -9.86 5 0 5 C0 3.35 0 1.7 0 0 Z " fill="#17161C" transform="translate(191,19)"/>
<path d="M0 0 C1.65 0 3.3 0 5 0 C5 1.65 5 3.3 5 5 C9.29 5 13.58 5 18 5 C11.87627591 11.53197236 4.68219017 17.3906859 -3 22 C-3.66 22 -4.32 22 -5 22 C-5 22.66 -5 23.32 -5 24 C-6.98 24.66 -8.96 25.32 -11 26 C-11 25.34 -11 24.68 -11 24 C-13.64 24 -16.28 24 -19 24 C-19 21.03 -19 18.06 -19 15 C-17.35 15 -15.7 15 -14 15 C-14 13.35 -14 11.7 -14 10 C-12.35 10 -10.7 10 -9 10 C-9 8.35 -9 6.7 -9 5 C-6.03 5 -3.06 5 0 5 C0 3.35 0 1.7 0 0 Z " fill="#1C1D22" transform="translate(238,257)"/>
<path d="M0 0 C2.1875 0.34765625 2.1875 0.34765625 4 1 C2.89150021 4.32549937 2.29403347 4.80142816 -0.4375 6.78515625 C-1.15881104 7.31085205 -1.88012207 7.83654785 -2.62329102 8.37817383 C-3.40760498 8.93400146 -4.19191895 9.4898291 -5 10.0625 C-6.21417603 10.92814575 -6.21417603 10.92814575 -7.45288086 11.8112793 C-39.07118163 34.05072362 -66.43279228 41.30251986 -105 39 C-105 38.67 -105 38.34 -105 38 C-103.71867188 37.95101562 -102.43734375 37.90203125 -101.1171875 37.8515625 C-82.77876847 37.17497056 -82.77876847 37.17497056 -65 33 C-63.58293847 32.59505202 -62.16342854 32.19861957 -60.7421875 31.80859375 C-47.46747058 28.1014747 -33.56175092 23.70783395 -22 16 C-21.01 16 -20.02 16 -19 16 C-19 15.34 -19 14.68 -19 14 C-17.19307354 12.6826349 -15.3268295 11.44618898 -13.4375 10.25 C-9.69938653 7.8415806 -6.24926712 5.47346731 -3 2.4375 C-2.01 1.633125 -1.02 0.82875 0 0 Z " fill="#BABABC" transform="translate(252,265)"/>
<path d="M0 0 C1.65 0 3.3 0 5 0 C5 2.97 5 5.94 5 9 C6.32 9 7.64 9 9 9 C9.495 15.93 9.495 15.93 10 23 C11.32 23 12.64 23 14 23 C14 30.92 14 38.84 14 47 C13.67 47 13.34 47 13 47 C13 42.38 13 37.76 13 33 C10.36 33 7.72 33 5 33 C5 28.38 5 23.76 5 19 C1.7 19 -1.6 19 -5 19 C-5 17.35 -5 15.7 -5 14 C-7.97 14 -10.94 14 -14 14 C-14 10.7 -14 7.4 -14 4 C-11.03 4 -8.06 4 -5 4 C-5 5.65 -5 7.3 -5 9 C-2.36 9 0.28 9 3 9 C3 6.36 3 3.72 3 1 C2.01 0.67 1.02 0.34 0 0 Z " fill="#18171C" transform="translate(243,48)"/>
<path d="M0 0 C0.33 0 0.66 0 1 0 C1.47961017 7.43395764 0.11277021 12.29978495 -3 19 C-3.53238281 20.19367188 -4.06476563 21.38734375 -4.61328125 22.6171875 C-13.24423664 41.7862767 -24.92172604 56.50834476 -40 71 C-40.99 70.67 -41.98 70.34 -43 70 C-41.39284041 65.83328996 -38.30032625 63.23801235 -35.125 60.25 C-30.58298411 55.83838651 -27.24877767 51.99275327 -25 46 C-24.2557794 44.33074464 -23.50569892 42.66409042 -22.75 41 C-22.16477801 39.66749455 -21.58073946 38.33446515 -21 37 C-19.68 37 -18.36 37 -17 37 C-16.67 34.03 -16.34 31.06 -16 28 C-14.35 28 -12.7 28 -11 28 C-11.0825 27.29875 -11.165 26.5975 -11.25 25.875 C-11 23 -11 23 -9.18359375 20.33984375 C-6.72137617 16.57384011 -5.29105345 12.90809802 -3.8125 8.6875 C-1.10640496 1.10640496 -1.10640496 1.10640496 0 0 Z " fill="#DEE8F0" transform="translate(297,196)"/>
<path d="M0 0 C13.86 0 27.72 0 42 0 C42 1.65 42 3.3 42 5 C40.68 5 39.36 5 38 5 C38 6.65 38 8.3 38 10 C36.35 10 34.7 10 33 10 C33 8.68 33 7.36 33 6 C24.09 6 15.18 6 6 6 C6 7.32 6 8.64 6 10 C0.72 10 -4.56 10 -10 10 C-10 8.35 -10 6.7 -10 5 C-6.7 5 -3.4 5 0 5 C0 3.35 0 1.7 0 0 Z " fill="#515D65" transform="translate(153,14)"/>
<path d="M0 0 C1.65 0 3.3 0 5 0 C5 1.32 5 2.64 5 4 C3.35 4 1.7 4 0 4 C0 5.65 0 7.3 0 9 C-6.27 9 -12.54 9 -19 9 C-19 13.62 -19 18.24 -19 23 C-21.97 23 -24.94 23 -28 23 C-28 20.03 -28 17.06 -28 14 C-29.65 14 -31.3 14 -33 14 C-33 10.7 -33 7.4 -33 4 C-31.35 4 -29.7 4 -28 4 C-28 5.32 -28 6.64 -28 8 C-26.68 7.67 -25.36 7.34 -24 7 C-23.67 5.35 -23.34 3.7 -23 2 C-15.41 2.33 -7.82 2.66 0 3 C0 2.01 0 1.02 0 0 Z " fill="#B5A9A4" transform="translate(181,82)"/>
<path d="M0 0 C4.62 0 9.24 0 14 0 C14 1.65 14 3.3 14 5 C12.68 5.33 11.36 5.66 10 6 C21.70636157 12.53261111 33.22283726 17.93765825 46 22 C46.94037109 22.33700928 47.88074219 22.67401855 48.84960938 23.02124023 C51.96741288 23.98987587 54.80144318 24.47073563 58.04296875 24.81640625 C59.19120117 24.94039795 60.33943359 25.06438965 61.52246094 25.19213867 C62.73192383 25.31435791 63.94138672 25.43657715 65.1875 25.5625 C66.42661133 25.69180908 67.66572266 25.82111816 68.94238281 25.9543457 C78.95144386 26.96678179 88.94768204 27.64098864 99 28 C99 28.33 99 28.66 99 29 C66.85633246 29.96142575 30.53239937 29.42816283 4 8 C2.81640625 5.48046875 2.81640625 5.48046875 2 3 C1.34 2.01 0.68 1.02 0 0 Z " fill="#CED3D6" transform="translate(67,276)"/>
<path d="M0 0 C1.65 0 3.3 0 5 0 C5 4.62 5 9.24 5 14 C1.7 14 -1.6 14 -5 14 C-5 15.98 -5 17.96 -5 20 C-11.60512801 21.57711094 -15.45214857 20.83715304 -21.25 17.32421875 C-23 16 -23 16 -24 14 C-22.35 14 -20.7 14 -19 14 C-19 12.35 -19 10.7 -19 9 C-17.35 9 -15.7 9 -14 9 C-14 7.68 -14 6.36 -14 5 C-9.38 5 -4.76 5 0 5 C0 3.35 0 1.7 0 0 Z " fill="#758594" transform="translate(100,267)"/>
<path d="M0 0 C1.65 0 3.3 0 5 0 C5 1.65 5 3.3 5 5 C6.65 5 8.3 5 10 5 C10 7.97 10 10.94 10 14 C11.32 14 12.64 14 14 14 C14 17.3 14 20.6 14 24 C15.65 24 17.3 24 19 24 C19 26.97 19 29.94 19 33 C17.68 33 16.36 33 15 33 C14.67 32.01 14.34 31.02 14 30 C11.99983534 28.79117904 11.99983534 28.79117904 10 28 C10 26.68 10 25.36 10 24 C8.35 24 6.7 24 5 24 C5 22.35 5 20.7 5 19 C3.35 19 1.7 19 0 19 C0 17.68 0 16.36 0 15 C-2.97 15 -5.94 15 -9 15 C-9 14.67 -9 14.34 -9 14 C-6.03 14 -3.06 14 0 14 C0 9.38 0 4.76 0 0 Z " fill="#A28473" transform="translate(119,262)"/>
<path d="M0 0 C7.92 0 15.84 0 24 0 C24 1.32 24 2.64 24 4 C21.03 4 18.06 4 15 4 C15 5.65 15 7.3 15 9 C10.38 9 5.76 9 1 9 C1 12.3 1 15.6 1 19 C-0.65 19 -2.3 19 -4 19 C-4 14.05 -4 9.1 -4 4 C-2.68 4 -1.36 4 0 4 C0 2.68 0 1.36 0 0 Z " fill="#52606A" transform="translate(109,29)"/>
<path d="M0 0 C0.99 0 1.98 0 3 0 C3 12.21 3 24.42 3 37 C4.65 37 6.3 37 8 37 C8 41.62 8 46.24 8 51 C5.03 51 2.06 51 -1 51 C-0.67 34.17 -0.34 17.34 0 0 Z " fill="#B4ABA9" transform="translate(111,225)"/>
<path d="M0 0 C4.62 0 9.24 0 14 0 C14 1.65 14 3.3 14 5 C15.65 5 17.3 5 19 5 C19 6.65 19 8.3 19 10 C16.03 10 13.06 10 10 10 C10 8.35 10 6.7 10 5 C8.35 5 6.7 5 5 5 C5 6.65 5 8.3 5 10 C1.7 10 -1.6 10 -5 10 C-5 11.32 -5 12.64 -5 14 C-7.97 14 -10.94 14 -14 14 C-14 12.68 -14 11.36 -14 10 C-12.68 10 -11.36 10 -10 10 C-10 8.35 -10 6.7 -10 5 C-6.7 5 -3.4 5 0 5 C0 3.35 0 1.7 0 0 Z " fill="#80472F" transform="translate(162,71)"/>
<path d="M0 0 C2.64 0 5.28 0 8 0 C8.33 3.3 8.66 6.6 9 10 C7.35 10 5.7 10 4 10 C4 11.32 4 12.64 4 14 C-0.95 14 -5.9 14 -11 14 C-11 12.68 -11 11.36 -11 10 C-13.64 10 -16.28 10 -19 10 C-19 8.35 -19 6.7 -19 5 C-18.67 5.99 -18.34 6.98 -18 8 C-15.36 8 -12.72 8 -10 8 C-10 7.01 -10 6.02 -10 5 C-9.36191406 4.89042969 -8.72382813 4.78085938 -8.06640625 4.66796875 C-7.24011719 4.50941406 -6.41382813 4.35085937 -5.5625 4.1875 C-4.32693359 3.96126953 -4.32693359 3.96126953 -3.06640625 3.73046875 C-2.38449219 3.48941406 -1.70257813 3.24835938 -1 3 C-0.67 2.01 -0.34 1.02 0 0 Z " fill="#78432C" transform="translate(196,119)"/>
<path d="M0 0 C1.97801862 1.6314428 2.91371361 2.51936457 3.3742218 5.08450317 C3.37359238 5.88564545 3.37296295 6.68678772 3.37231445 7.51220703 C3.37854324 8.42390656 3.38477203 9.33560608 3.39118958 10.27493286 C3.38197983 11.25928314 3.37277008 12.24363342 3.36328125 13.2578125 C3.36377975 14.27543671 3.36427826 15.29306091 3.36479187 16.34152222 C3.36244956 18.49853462 3.35271184 20.65554966 3.33618164 22.8125 C3.31274022 26.09139919 3.31560107 29.36947664 3.32226562 32.6484375 C3.31668344 34.74740063 3.30957017 36.84636035 3.30078125 38.9453125 C3.30169266 39.9175174 3.30260406 40.88972229 3.30354309 41.89138794 C3.24219545 47.88077147 2.49506735 53.19605854 1 59 C0.34 59 -0.32 59 -1 59 C-1.495 61.475 -1.495 61.475 -2 64 C-2.66 64 -3.32 64 -4 64 C-4.14778756 59.03940936 -3.63046413 54.73899063 -2.54296875 49.90625 C-0.47338705 39.8282089 -0.4378415 29.75275421 -0.3125 19.5 C-0.27923051 17.59763424 -0.24473247 15.69528955 -0.20898438 13.79296875 C-0.12520546 9.19543157 -0.05788995 4.59793301 0 0 Z " fill="#DFEAF3" transform="translate(302,130)"/>
<path d="M0 0 C4.62 0 9.24 0 14 0 C14 7.59 14 15.18 14 23 C12.68 23 11.36 23 10 23 C10 20.03 10 17.06 10 14 C8.35 14 6.7 14 5 14 C5 12.35 5 10.7 5 9 C3.35 9 1.7 9 0 9 C0 6.03 0 3.06 0 0 Z " fill="#663824" transform="translate(81,129)"/>
<path d="M0 0 C1.65 0 3.3 0 5 0 C5 1.32 5 2.64 5 4 C3.35 4 1.7 4 0 4 C0 5.65 0 7.3 0 9 C-8.91 9 -17.82 9 -27 9 C-26.01 8.34 -25.02 7.68 -24 7 C-23.67 5.35 -23.34 3.7 -23 2 C-15.41 2.33 -7.82 2.66 0 3 C0 2.01 0 1.02 0 0 Z " fill="#B2A49E" transform="translate(181,82)"/>
<path d="M0 0 C0.66 0 1.32 0 2 0 C2 17.49 2 34.98 2 53 C0.515 53.495 0.515 53.495 -1 54 C-1.92986636 51.21040093 -2.13107546 49.50720949 -2.14526367 46.6237793 C-2.15164352 45.7424382 -2.15802338 44.86109711 -2.16459656 43.95304871 C-2.16570938 43.00303482 -2.1668222 42.05302094 -2.16796875 41.07421875 C-2.17129715 40.09387161 -2.17462555 39.11352448 -2.17805481 38.10346985 C-2.18311925 36.02805043 -2.18546328 33.95262286 -2.18530273 31.87719727 C-2.18748429 28.71031155 -2.2056316 25.54377697 -2.22460938 22.37695312 C-2.22754442 20.35937619 -2.22952847 18.3417976 -2.23046875 16.32421875 C-2.23765427 15.38027756 -2.24483978 14.43633636 -2.25224304 13.46379089 C-2.23533847 8.56929575 -1.92218445 4.59238767 0 0 Z " fill="#D5E4F2" transform="translate(2,122)"/>
<path d="M0 0 C1.65 0 3.3 0 5 0 C5 2.97 5 5.94 5 9 C7.97 9 10.94 9 14 9 C14 10.32 14 11.64 14 13 C12.35 13 10.7 13 9 13 C9 14.65 9 16.3 9 18 C4.38 18 -0.24 18 -5 18 C-5 16.35 -5 14.7 -5 13 C-2.03 13 0.94 13 4 13 C4 11.68 4 10.36 4 9 C2.68 9 1.36 9 0 9 C0 6.03 0 3.06 0 0 Z " fill="#A38474" transform="translate(148,96)"/>
<path d="M0 0 C1.65 0 3.3 0 5 0 C5 1.65 5 3.3 5 5 C9.62 5 14.24 5 19 5 C19 5.33 19 5.66 19 6 C17.35 6 15.7 6 14 6 C14 6.99 14 7.98 14 9 C6.74 9 -0.52 9 -8 9 C-8.66 10.65 -9.32 12.3 -10 14 C-11.32 14 -12.64 14 -14 14 C-14 12.68 -14 11.36 -14 10 C-15.65 10 -17.3 10 -19 10 C-19 9.67 -19 9.34 -19 9 C-16.03 9 -13.06 9 -10 9 C-10 7.68 -10 6.36 -10 5 C-6.7 5 -3.4 5 0 5 C0 3.35 0 1.7 0 0 Z " fill="#A0816F" transform="translate(167,76)"/>
<path d="M0 0 C2.97 0 5.94 0 9 0 C9 1.32 9 2.64 9 4 C10.65 4 12.3 4 14 4 C14 5.98 14 7.96 14 10 C15.32 10 16.64 10 18 10 C18 12.97 18 15.94 18 19 C16.68 19 15.36 19 14 19 C14 17.35 14 15.7 14 14 C12.35 14 10.7 14 9 14 C9 12.35 9 10.7 9 9 C7.35 9 5.7 9 4 9 C4 7.68 4 6.36 4 5 C2.68 5 1.36 5 0 5 C0 3.35 0 1.7 0 0 Z " fill="#AB968B" transform="translate(258,105)"/>
<path d="M0 0 C4.95 0 9.9 0 15 0 C15 1.65 15 3.3 15 5 C13.35 5 11.7 5 10 5 C10 6.65 10 8.3 10 10 C5.05 10 0.1 10 -5 10 C-5 8.35 -5 6.7 -5 5 C-3.35 5 -1.7 5 0 5 C0 3.35 0 1.7 0 0 Z " fill="#ECF1F3" transform="translate(257,224)"/>
<path d="M0 0 C0.33 0 0.66 0 1 0 C1 1.65 1 3.3 1 5 C2.32 5 3.64 5 5 5 C5 6.65 5 8.3 5 10 C3.68 10 2.36 10 1 10 C1 14.62 1 19.24 1 24 C-0.65 24 -2.3 24 -4 24 C-4 22.68 -4 21.36 -4 20 C-2.68 20 -1.36 20 0 20 C0 18.02 0 16.04 0 14 C-1.32 14 -2.64 14 -4 14 C-4 12.68 -4 11.36 -4 10 C-7.3 10 -10.6 10 -14 10 C-14 8.35 -14 6.7 -14 5 C-9.38 5 -4.76 5 0 5 C0 3.35 0 1.7 0 0 Z " fill="#9E8375" transform="translate(252,95)"/>
<path d="M0 0 C2.97 0 5.94 0 9 0 C9 3.3 9 6.6 9 10 C7.35 10 5.7 10 4 10 C4 12.97 4 15.94 4 19 C2.68 19 1.36 19 0 19 C0 17.35 0 15.7 0 14 C-1.32 14 -2.64 14 -4 14 C-4 12.68 -4 11.36 -4 10 C-2.68 10 -1.36 10 0 10 C0 6.7 0 3.4 0 0 Z " fill="#B3A5A0" transform="translate(205,119)"/>
<path d="M0 0 C3.3 0 6.6 0 10 0 C10 1.32 10 2.64 10 4 C11.32 4 12.64 4 14 4 C14 5.98 14 7.96 14 10 C12.68 10 11.36 10 10 10 C10 11.32 10 12.64 10 14 C6.7 14 3.4 14 0 14 C0.33 12.35 0.66 10.7 1 9 C2.32 9 3.64 9 5 9 C5 7.68 5 6.36 5 5 C3.35 5 1.7 5 0 5 C0 3.35 0 1.7 0 0 Z " fill="#834931" transform="translate(238,105)"/>
<path d="M0 0 C1.32 0 2.64 0 4 0 C4 1.32 4 2.64 4 4 C7.3 4 10.6 4 14 4 C14 5.65 14 7.3 14 9 C7.73 9 1.46 9 -5 9 C-5 7.35 -5 5.7 -5 4 C-3.35 4 -1.7 4 0 4 C0 2.68 0 1.36 0 0 Z " fill="#B9AAA4" transform="translate(91,153)"/>
<path d="M0 0 C7.91551181 -0.23323999 15.58331236 0.50926804 23.4375 1.4375 C34.62335553 2.70472842 45.75132262 3.59826152 57 4 C57 4.33 57 4.66 57 5 C51.77544457 5.10066581 46.55148223 5.17229274 41.32617188 5.21972656 C39.55751689 5.2395488 37.78892471 5.26661492 36.02050781 5.30175781 C23.4392688 5.54508098 12.15874145 4.27855409 0 1 C0 0.67 0 0.34 0 0 Z " fill="#EDEDEE" transform="translate(109,300)"/>
<path d="M0 0 C2.97 0 5.94 0 9 0 C9 1.32 9 2.64 9 4 C10.65 4 12.3 4 14 4 C14 7.3 14 10.6 14 14 C12.35 14 10.7 14 9 14 C9 12.35 9 10.7 9 9 C7.68 9 6.36 9 5 9 C5 7.35 5 5.7 5 4 C3.35 4 1.7 4 0 4 C0 2.68 0 1.36 0 0 Z " fill="#93C5ED" transform="translate(229,29)"/>
<path d="M0 0 C1.65 0 3.3 0 5 0 C5 10.89 5 21.78 5 33 C6.32 33 7.64 33 9 33 C9 36.3 9 39.6 9 43 C7.35 43 5.7 43 4 43 C4 30.46 4 17.92 4 5 C2.68 5 1.36 5 0 5 C0 3.35 0 1.7 0 0 Z " fill="#9A7360" transform="translate(110,219)"/>
<path d="M0 0 C1.65 0 3.3 0 5 0 C5 2.97 5 5.94 5 9 C-1.27 9 -7.54 9 -14 9 C-14 7.68 -14 6.36 -14 5 C-9.38 5 -4.76 5 0 5 C0 3.35 0 1.7 0 0 Z " fill="#B9A79F" transform="translate(100,267)"/>
<path d="M0 0 C2.97 0 5.94 0 9 0 C9 1.65 9 3.3 9 5 C12.3 5 15.6 5 19 5 C19 6.32 19 7.64 19 9 C14.38 9 9.76 9 5 9 C5 7.68 5 6.36 5 5 C3.35 5 1.7 5 0 5 C0 3.35 0 1.7 0 0 Z " fill="#23252D" transform="translate(181,86)"/>
<path d="M0 0 C3.01402727 1.21228272 6.01464949 2.45360214 9.01098633 3.70898438 C9.01098633 4.03898437 9.01098633 4.36898438 9.01098633 4.70898438 C-1.32590688 5.87605296 -9.67352102 1.6868418 -18.98901367 -2.29101562 C-12.73656154 -5.9509876 -6.22590219 -2.45300693 0 0 Z " fill="#CACDD0" transform="translate(105.989013671875,295.291015625)"/>
<path d="M0 0 C2.97 0 5.94 0 9 0 C9 1.32 9 2.64 9 4 C7.35 4 5.7 4 4 4 C4 5.65 4 7.3 4 9 C0.7 9 -2.6 9 -6 9 C-6 7.35 -6 5.7 -6 4 C-4.02 4 -2.04 4 0 4 C0 2.68 0 1.36 0 0 Z " fill="#BFB3AE" transform="translate(120,96)"/>
<path d="M0 0 C1.32 0 2.64 0 4 0 C4 3.3 4 6.6 4 10 C7.3 10 10.6 10 14 10 C14 10.33 14 10.66 14 11 C11.39555652 11.05394705 8.79223002 11.09364469 6.1875 11.125 C5.44951172 11.14175781 4.71152344 11.15851563 3.95117188 11.17578125 C0.08753574 11.21074628 -1.70903668 11.19397555 -5 9 C-5 7.68 -5 6.36 -5 5 C-3.35 5 -1.7 5 0 5 C0 3.35 0 1.7 0 0 Z " fill="#1F202A" transform="translate(129,291)"/>
<path d="M0 0 C0.33 0 0.66 0 1 0 C1 1.65 1 3.3 1 5 C2.65 5.33 4.3 5.66 6 6 C6 16.56 6 27.12 6 38 C5.67 38 5.34 38 5 38 C5 30.08 5 22.16 5 14 C3.68 14 2.36 14 1 14 C0.06380187 10.84493858 -0.1057123 8.03413498 -0.0625 4.75 C-0.05347656 3.85796875 -0.04445312 2.9659375 -0.03515625 2.046875 C-0.02355469 1.37140625 -0.01195312 0.6959375 0 0 Z " fill="#546474" transform="translate(252,57)"/>
<path d="M0 0 C2.97 0 5.94 0 9 0 C9 0.33 9 0.66 9 1 C6.69 1 4.38 1 2 1 C2 10.9 2 20.8 2 31 C2.66 31 3.32 31 4 31 C4 31.66 4 32.32 4 33 C2.68 33 1.36 33 0 33 C0 22.11 0 11.22 0 0 Z " fill="#83462B" transform="translate(77,120)"/>
<path d="M0 0 C1.32 0 2.64 0 4 0 C4 6.27 4 12.54 4 19 C2.68 19 1.36 19 0 19 C0 12.73 0 6.46 0 0 Z " fill="#B8ABA6" transform="translate(105,133)"/>
<path d="M0 0 C1.65 0 3.3 0 5 0 C3.68 0.33 2.36 0.66 1 1 C1 11.89 1 22.78 1 34 C0.67 34 0.34 34 0 34 C0 29.05 0 24.1 0 19 C-1.32 19 -2.64 19 -4 19 C-4 16.03 -4 13.06 -4 10 C-2.68 10 -1.36 10 0 10 C0 6.7 0 3.4 0 0 Z " fill="#847376" transform="translate(76,119)"/>
<path d="M0 0 C3.3 0 6.6 0 10 0 C10 1.65 10 3.3 10 5 C8.35 5 6.7 5 5 5 C5 6.32 5 7.64 5 9 C3.35 9 1.7 9 0 9 C0 6.03 0 3.06 0 0 Z " fill="#A28473" transform="translate(224,205)"/>
<path d="M0 0 C2.97 0 5.94 0 9 0 C9 1.32 9 2.64 9 4 C10.65 4 12.3 4 14 4 C14 5.65 14 7.3 14 9 C12.35 9 10.7 9 9 9 C9 7.68 9 6.36 9 5 C6.03 5 3.06 5 0 5 C0 3.35 0 1.7 0 0 Z " fill="#B9A194" transform="translate(191,86)"/>
<path d="M0 0 C3.3 0 6.6 0 10 0 C10 2.97 10 5.94 10 9 C8.35 9 6.7 9 5 9 C5 7.68 5 6.36 5 5 C3.35 5 1.7 5 0 5 C0 3.35 0 1.7 0 0 Z " fill="#505A5F" transform="translate(95,24)"/>
<path d="M0 0 C4.62 0 9.24 0 14 0 C14 1.65 14 3.3 14 5 C9.38 5 4.76 5 0 5 C0 3.35 0 1.7 0 0 Z " fill="#6B6664" transform="translate(195,19)"/>
<path d="M0 0 C4.62 0 9.24 0 14 0 C14 1.65 14 3.3 14 5 C9.38 5 4.76 5 0 5 C0 3.35 0 1.7 0 0 Z " fill="#B4A7A2" transform="translate(181,14)"/>
<path d="M0 0 C4.62 0 9.24 0 14 0 C14 1.65 14 3.3 14 5 C9.38 5 4.76 5 0 5 C0 3.35 0 1.7 0 0 Z " fill="#536068" transform="translate(167,14)"/>
<path d="M0 0 C0.66 0 1.32 0 2 0 C2.06058594 1.26714844 2.12117187 2.53429687 2.18359375 3.83984375 C2.26808565 5.53906964 2.35272919 7.238288 2.4375 8.9375 C2.47681641 9.76830078 2.51613281 10.59910156 2.55664062 11.45507812 C2.83730769 17.00365014 3.33760065 22.48371637 4 28 C3.01 28.33 2.02 28.66 1 29 C-0.07917226 25.76248322 -0.11425601 23.42248229 -0.09765625 20.01953125 C-0.09443359 18.85615234 -0.09121094 17.69277344 -0.08789062 16.49414062 C-0.07951172 15.27919922 -0.07113281 14.06425781 -0.0625 12.8125 C-0.05798828 11.58595703 -0.05347656 10.35941406 -0.04882812 9.09570312 C-0.03703065 6.06375332 -0.02056921 3.03190094 0 0 Z " fill="#F4F6F8" transform="translate(0,147)"/>
<path d="M0 0 C6.61016949 3.30508475 6.61016949 3.30508475 8.4375 6.5625 C9 9 9 9 9 12 C8.67 12 8.34 12 8 12 C7.67 15.63 7.34 19.26 7 23 C6.67 23 6.34 23 6 23 C6 18.38 6 13.76 6 9 C4.35 9 2.7 9 1 9 C1 7.68 1 6.36 1 5 C-1.31 5 -3.62 5 -6 5 C-6 4.67 -6 4.34 -6 4 C-3.36 4 -0.72 4 2 4 C2 3.34 2 2.68 2 2 C1.34 2 0.68 2 0 2 C0 1.34 0 0.68 0 0 Z " fill="#E1EAEF" transform="translate(237,24)"/>
<path d="M0 0 C0.33 0.99 0.66 1.98 1 3 C-2.62377284 7.04190048 -6.32720955 9.82568758 -11.875 10.1875 C-12.57625 10.125625 -13.2775 10.06375 -14 10 C-14 9.01 -14 8.02 -14 7 C-11.15497903 5.10331936 -8.42700115 3.76736522 -5.3125 2.375 C-4.31863281 1.92898438 -3.32476562 1.48296875 -2.30078125 1.0234375 C-1.54152344 0.68570312 -0.78226563 0.34796875 0 0 Z " fill="#B4B4B6" transform="translate(221,286)"/>
<path d="M0 0 C1.32 0.33 2.64 0.66 4 1 C3.01 1 2.02 1 1 1 C1 3.64 1 6.28 1 9 C1.66 9 2.32 9 3 9 C3 11.97 3 14.94 3 18 C1.68 18 0.36 18 -1 18 C-1 16.35 -1 14.7 -1 13 C-2.32 13 -3.64 13 -5 13 C-5 11.68 -5 10.36 -5 9 C-3.35 9 -1.7 9 0 9 C0 6.03 0 3.06 0 0 Z " fill="#BBB1AE" transform="translate(206,120)"/>
<path d="M0 0 C0.99 0 1.98 0 3 0 C3 3.3 3 6.6 3 10 C2.34 10 1.68 10 1 10 C1 11.32 1 12.64 1 14 C0.34 14 -0.32 14 -1 14 C-1 12.35 -1 10.7 -1 9 C-2.32 9 -3.64 9 -5 9 C-5 7.35 -5 5.7 -5 4 C-3.35 4 -1.7 4 0 4 C0 2.68 0 1.36 0 0 Z " fill="#B9AEA9" transform="translate(158,110)"/>
<path d="M0 0 C0 0.33 0 0.66 0 1 C-12.0848106 3.80938401 -25.7086501 1.73381193 -38 1 C-38 0.67 -38 0.34 -38 0 C-8.95958084 -1.59281437 -8.95958084 -1.59281437 0 0 Z " fill="#C8C8CA" transform="translate(185,303)"/>
<path d="M0 0 C0.66 0 1.32 0 2 0 C2 1.32 2 2.64 2 4 C3.65 4 5.3 4 7 4 C7 5.65 7 7.3 7 9 C5.35 9 3.7 9 2 9 C2 12.3 2 15.6 2 19 C1.34 19 0.68 19 0 19 C0 12.73 0 6.46 0 0 Z " fill="#76B0EB" transform="translate(79,67)"/>
<path d="M0 0 C4.62 0 9.24 0 14 0 C14 1.65 14 3.3 14 5 C7.77227723 6.34323432 7.77227723 6.34323432 4.1875 4.75 C2 3 2 3 0 0 Z " fill="#B3A7A2" transform="translate(67,276)"/>
<path d="M0 0 C1.134375 0.020625 2.26875 0.04125 3.4375 0.0625 C3.4375 0.7225 3.4375 1.3825 3.4375 2.0625 C5.0875 2.0625 6.7375 2.0625 8.4375 2.0625 C8.4375 3.3825 8.4375 4.7025 8.4375 6.0625 C5.4675 6.0625 2.4975 6.0625 -0.5625 6.0625 C-0.5625 7.7125 -0.5625 9.3625 -0.5625 11.0625 C-0.8925 11.0625 -1.2225 11.0625 -1.5625 11.0625 C-1.5625 8.0925 -1.5625 5.1225 -1.5625 2.0625 C-2.5525 1.7325 -3.5425 1.4025 -4.5625 1.0625 C-3.5625 0.0625 -3.5625 0.0625 0 0 Z " fill="#7F4E3C" transform="translate(96.5625,164.9375)"/>
<path d="M0 0 C10.89 0 21.78 0 33 0 C33 1.65 33 3.3 33 5 C31.35 5 29.7 5 28 5 C28 3.68 28 2.36 28 1 C19.09 1 10.18 1 1 1 C0.67 2.32 0.34 3.64 0 5 C0 3.35 0 1.7 0 0 Z " fill="#2E2F36" transform="translate(158,19)"/>
<path d="M0 0 C0.66 0 1.32 0 2 0 C2.3190184 7.01840491 2.3190184 7.01840491 0 10 C-2.625 10.75 -2.625 10.75 -5 11 C-5 8.03 -5 5.06 -5 2 C-3.35 2 -1.7 2 0 2 C0 1.34 0 0.68 0 0 Z " fill="#F0F3F3" transform="translate(286,222)"/>
<path d="M0 0 C1.32 0 2.64 0 4 0 C4 4.62 4 9.24 4 14 C2.68 14 1.36 14 0 14 C0 9.38 0 4.76 0 0 Z " fill="#B7ACA7" transform="translate(105,191)"/>
<path d="M0 0 C0.33 0 0.66 0 1 0 C1 5.94 1 11.88 1 18 C2.32 18 3.64 18 5 18 C5 19.98 5 21.96 5 24 C3.35 24 1.7 24 0 24 C0 22.35 0 20.7 0 19 C-1.65 19 -3.3 19 -5 19 C-4.67 17.68 -4.34 16.36 -4 15 C-4 15.99 -4 16.98 -4 18 C-2.68 18 -1.36 18 0 18 C0 12.06 0 6.12 0 0 Z " fill="#8D5D47" transform="translate(119,129)"/>
<path d="M0 0 C1.32 0 2.64 0 4 0 C4 4.62 4 9.24 4 14 C2.68 14 1.36 14 0 14 C0 9.38 0 4.76 0 0 Z " fill="#62311D" transform="translate(205,105)"/>
<path d="M0 0 C4.62 0 9.24 0 14 0 C14 1.65 14 3.3 14 5 C12.35 5 10.7 5 9 5 C9 3.68 9 2.36 9 1 C7.68 1 6.36 1 5 1 C5 2.32 5 3.64 5 5 C3.35 5 1.7 5 0 5 C0 3.35 0 1.7 0 0 Z " fill="#9A7C6C" transform="translate(81,114)"/>
<path d="M0 0 C1.65 0 3.3 0 5 0 C5 10.89 5 21.78 5 33 C4.67 33 4.34 33 4 33 C4 23.76 4 14.52 4 5 C2.68 5 1.36 5 0 5 C0 3.35 0 1.7 0 0 Z " fill="#94807A" transform="translate(105,186)"/>
<path d="M0 0 C0.33 1.32 0.66 2.64 1 4 C2.32 4 3.64 4 5 4 C5 5.65 5 7.3 5 9 C1.7 9 -1.6 9 -5 9 C-4.67 7.35 -4.34 5.7 -4 4 C-2.68 4 -1.36 4 0 4 C0 2.68 0 1.36 0 0 Z " fill="#9E9088" transform="translate(200,129)"/>
<path d="M0 0 C1.65 0 3.3 0 5 0 C5 3.63 5 7.26 5 11 C6.65 11 8.3 11 10 11 C10 12.32 10 13.64 10 15 C7.36 15 4.72 15 2 15 C2 13.68 2 12.36 2 11 C2.66 11 3.32 11 4 11 C4 7.7 4 4.4 4 1 C3.01 1 2.02 1 1 1 C0.67 2.32 0.34 3.64 0 5 C0 3.35 0 1.7 0 0 Z " fill="#B2A19B" transform="translate(157,109)"/>
<path d="M0 0 C4.29 0.33 8.58 0.66 13 1 C13 1.66 13 2.32 13 3 C10.03 3 7.06 3 4 3 C4 4.65 4 6.3 4 8 C2.68 8 1.36 8 0 8 C0 5.36 0 2.72 0 0 Z " fill="#BAB0AC" transform="translate(125,106)"/>
<path d="M0 0 C1.65 0 3.3 0 5 0 C5 3.3 5 6.6 5 10 C3.35 10 1.7 10 0 10 C0 6.7 0 3.4 0 0 Z " fill="#76AAE0" transform="translate(243,181)"/>
<path d="M0 0 C1.65 0 3.3 0 5 0 C5 1.65 5 3.3 5 5 C6.32 5 7.64 5 9 5 C9 6.65 9 8.3 9 10 C7.35 10 5.7 10 4 10 C4 8.35 4 6.7 4 5 C2.68 5 1.36 5 0 5 C0 3.35 0 1.7 0 0 Z " fill="#586167" transform="translate(267,119)"/>
<path d="M0 0 C1.98 0 3.96 0 6 0 C6 1.98 6 3.96 6 6 C4.35 6 2.7 6 1 6 C1 10.29 1 14.58 1 19 C0.67 19 0.34 19 0 19 C-0.19600577 16.77156512 -0.38146569 14.54220107 -0.5625 12.3125 C-0.66691406 11.07113281 -0.77132812 9.82976562 -0.87890625 8.55078125 C-0.98493841 5.44164467 -0.77228525 2.99189028 0 0 Z " fill="#535154" transform="translate(109,114)"/>
<path d="M0 0 C1.65 0 3.3 0 5 0 C5 1.65 5 3.3 5 5 C3.68 5 2.36 5 1 5 C1 6.65 1 8.3 1 10 C-0.65 10 -2.3 10 -4 10 C-4 8.35 -4 6.7 -4 5 C-2.68 5 -1.36 5 0 5 C0 3.35 0 1.7 0 0 Z " fill="#A08C82" transform="translate(109,100)"/>
<path d="M0 0 C1.65 0 3.3 0 5 0 C5.22151549 1.79008467 5.42682213 3.58218162 5.625 5.375 C5.74101562 6.37273437 5.85703125 7.37046875 5.9765625 8.3984375 C5.98429688 9.25695312 5.99203125 10.11546875 6 11 C5.34 11.66 4.68 12.32 4 13 C4 11.68 4 10.36 4 9 C2.68 9 1.36 9 0 9 C0 6.03 0 3.06 0 0 Z " fill="#A07F6D" transform="translate(148,96)"/>
<path d="M0 0 C1.65 0 3.3 0 5 0 C5 3.3 5 6.6 5 10 C3.35 10 1.7 10 0 10 C0 6.7 0 3.4 0 0 Z " fill="#53616C" transform="translate(105,38)"/>
<path d="M0 0 C2.97 0 5.94 0 9 0 C9 1.65 9 3.3 9 5 C5.7 5 2.4 5 -1 5 C-0.67 3.35 -0.34 1.7 0 0 Z " fill="#28272F" transform="translate(225,114)"/>
<path d="M0 0 C1.32 0.66 2.64 1.32 4 2 C4 4.31 4 6.62 4 9 C1.03 9 -1.94 9 -5 9 C-4.67 8.01 -4.34 7.02 -4 6 C-3.01 6.33 -2.02 6.66 -1 7 C-1.020625 6.030625 -1.04125 5.06125 -1.0625 4.0625 C-1 1 -1 1 0 0 Z " fill="#91C6F3" transform="translate(225,20)"/>
<path d="M0 0 C4.62 0 9.24 0 14 0 C14 1.65 14 3.3 14 5 C12.68 5 11.36 5 10 5 C10 9.62 10 14.24 10 19 C9.67 19 9.34 19 9 19 C9 13.06 9 7.12 9 1 C6.03 1 3.06 1 0 1 C0 0.67 0 0.34 0 0 Z " fill="#714E41" transform="translate(110,105)"/>
<path d="M0 0 C1.65 0 3.3 0 5 0 C5 2.97 5 5.94 5 9 C3.35 9.33 1.7 9.66 0 10 C0 6.7 0 3.4 0 0 Z " fill="#A27D68" transform="translate(238,186)"/>
<path d="M0 0 C2.64 0 5.28 0 8 0 C8.66 1.65 9.32 3.3 10 5 C6.7 5 3.4 5 0 5 C0 3.35 0 1.7 0 0 Z " fill="#97C4EB" transform="translate(272,71)"/>
<path d="M0 0 C1.65 0 3.3 0 5 0 C5 2.97 5 5.94 5 9 C3.35 9 1.7 9 0 9 C0 6.03 0 3.06 0 0 Z " fill="#A58978" transform="translate(114,253)"/>
<path d="M0 0 C2.97 0 5.94 0 9 0 C9 1.65 9 3.3 9 5 C6.03 5 3.06 5 0 5 C0 3.35 0 1.7 0 0 Z " fill="#B7ADA9" transform="translate(220,119)"/>
<path d="M0 0 C2.97 0 5.94 0 9 0 C9 1.65 9 3.3 9 5 C6.03 5 3.06 5 0 5 C0 3.35 0 1.7 0 0 Z " fill="#4E5D68" transform="translate(229,100)"/>
<path d="M0 0 C1.65 0 3.3 0 5 0 C5 2.97 5 5.94 5 9 C3.35 9 1.7 9 0 9 C0 6.03 0 3.06 0 0 Z " fill="#D2CECD" transform="translate(148,86)"/>
<path d="M0 0 C1.65 0 3.3 0 5 0 C5 1.32 5 2.64 5 4 C-4.24 4.33 -13.48 4.66 -23 5 C-22.67 4.01 -22.34 3.02 -22 2 C-14.74 2.33 -7.48 2.66 0 3 C0 2.01 0 1.02 0 0 Z " fill="#AA958A" transform="translate(181,82)"/>
<path d="M0 0 C2.97 0 5.94 0 9 0 C9 1.65 9 3.3 9 5 C6.03 5 3.06 5 0 5 C0 3.35 0 1.7 0 0 Z " fill="#93C3EB" transform="translate(124,14)"/>
<path d="M0 0 C1.32 0 2.64 0 4 0 C4.33 3.3 4.66 6.6 5 10 C3.35 10 1.7 10 0 10 C0 6.7 0 3.4 0 0 Z " fill="#65331E" transform="translate(200,119)"/>
<path d="M0 0 C3.3 0 6.6 0 10 0 C10 0.33 10 0.66 10 1 C7.03 1 4.06 1 1 1 C1 3.31 1 5.62 1 8 C-0.65 8.33 -2.3 8.66 -4 9 C-4 7.68 -4 6.36 -4 5 C-5.65 5 -7.3 5 -9 5 C-9 4.67 -9 4.34 -9 4 C-6.03 4 -3.06 4 0 4 C0 2.68 0 1.36 0 0 Z " fill="#9A7460" transform="translate(157,81)"/>
<path d="M0 0 C1.32 0 2.64 0 4 0 C4 1.32 4 2.64 4 4 C5.65 4 7.3 4 9 4 C9 4.33 9 4.66 9 5 C7.35 5 5.7 5 4 5 C4 6.32 4 7.64 4 9 C2.68 9 1.36 9 0 9 C0 6.03 0 3.06 0 0 Z " fill="#A98774" transform="translate(120,110)"/>
<path d="M0 0 C4.62 0 9.24 0 14 0 C14 1.32 14 2.64 14 4 C11.03 4 8.06 4 5 4 C5 3.01 5 2.02 5 1 C3.35 1 1.7 1 0 1 C0 0.67 0 0.34 0 0 Z " fill="#8F604A" transform="translate(138,105)"/>
<path d="M0 0 C3.3 0 6.6 0 10 0 C10 1.32 10 2.64 10 4 C6.7 4 3.4 4 0 4 C0 2.68 0 1.36 0 0 Z " fill="#F4F8F8" transform="translate(95,158)"/>
<path d="M0 0 C0.80824219 0.38027344 1.61648437 0.76054687 2.44921875 1.15234375 C3.06410156 1.45269531 3.67898437 1.75304687 4.3125 2.0625 C3.9825 2.7225 3.6525 3.3825 3.3125 4.0625 C-0.56290045 4.23865457 -3.44265269 4.34591107 -6.6875 2.0625 C-7.0175 1.0725 -7.3475 0.0825 -7.6875 -0.9375 C-4.04589192 -2.15136936 -3.35584531 -1.6049695 0 0 Z " fill="#C0C4C6" transform="translate(87.6875,287.9375)"/>
<path d="M0 0 C2 1 2 1 3.125 4.1875 C3.91680237 7.63749602 4.1714979 10.484293 4 14 C2.68 13.34 1.36 12.68 0 12 C0 8.04 0 4.08 0 0 Z " fill="#E5EEF4" transform="translate(3,179)"/>
<path d="M0 0 C1.65 0 3.3 0 5 0 C5 6.27 5 12.54 5 19 C4.67 19 4.34 19 4 19 C4 14.38 4 9.76 4 5 C2.68 5 1.36 5 0 5 C0 3.35 0 1.7 0 0 Z " fill="#82513B" transform="translate(205,100)"/>
<path d="M0 0 C1.65 0 3.3 0 5 0 C5 1.32 5 2.64 5 4 C0.38 4 -4.24 4 -9 4 C-9 3.34 -9 2.68 -9 2 C-6.03 2 -3.06 2 0 2 C0 1.34 0 0.68 0 0 Z " fill="#6A351F" transform="translate(195,129)"/>
<path d="M0 0 C3.3 0 6.6 0 10 0 C9.67 1.32 9.34 2.64 9 4 C6.03 4 3.06 4 0 4 C0 2.68 0 1.36 0 0 Z " fill="#7C3F25" transform="translate(138,86)"/>
<path d="M0 0 C0.99 0 1.98 0 3 0 C3 0.66 3 1.32 3 2 C6.96 2 10.92 2 15 2 C14.67 3.65 14.34 5.3 14 7 C12.68 7 11.36 7 10 7 C10 5.68 10 4.36 10 3 C6.7 3 3.4 3 0 3 C0 2.01 0 1.02 0 0 Z " fill="#A08272" transform="translate(181,131)"/>
<path d="M0 0 C1.32 0 2.64 0 4 0 C4 2.97 4 5.94 4 9 C2.68 9 1.36 9 0 9 C0 6.03 0 3.06 0 0 Z " fill="#B0998B" transform="translate(234,196)"/>
<path d="M0 0 C1.32 0 2.64 0 4 0 C4 2.97 4 5.94 4 9 C2.68 9 1.36 9 0 9 C0 6.03 0 3.06 0 0 Z " fill="#222127" transform="translate(101,176)"/>
<path d="M0 0 C2.97 0 5.94 0 9 0 C9 1.32 9 2.64 9 4 C6.03 4 3.06 4 0 4 C0 2.68 0 1.36 0 0 Z " fill="#B7ACA8" transform="translate(134,148)"/>
<path d="M0 0 C1.32 0 2.64 0 4 0 C4 2.97 4 5.94 4 9 C2.68 9 1.36 9 0 9 C0 6.03 0 3.06 0 0 Z " fill="#AE9586" transform="translate(72,129)"/>
<path d="M0 0 C1.32 0 2.64 0 4 0 C4 2.97 4 5.94 4 9 C2.68 9 1.36 9 0 9 C0 6.03 0 3.06 0 0 Z " fill="#BAA89E" transform="translate(272,115)"/>
<path d="M0 0 C2.97 0 5.94 0 9 0 C9 1.32 9 2.64 9 4 C6.03 4 3.06 4 0 4 C0 2.68 0 1.36 0 0 Z " fill="#B8AFAB" transform="translate(144,110)"/>
<path d="M0 0 C2.97 0 5.94 0 9 0 C9 1.32 9 2.64 9 4 C6.03 4 3.06 4 0 4 C0 2.68 0 1.36 0 0 Z " fill="#151419" transform="translate(148,29)"/>
<path d="M0 0 C2.97 0 5.94 0 9 0 C9 1.32 9 2.64 9 4 C6.03 4 3.06 4 0 4 C0 2.68 0 1.36 0 0 Z " fill="#7E756F" transform="translate(124,29)"/>
<path d="M0 0 C0.78761719 0.18046875 1.57523438 0.3609375 2.38671875 0.546875 C4.3125 1.25 4.3125 1.25 5.3125 3.25 C-0.6055497 4.57854177 -3.46479131 3.91464729 -8.6875 1.25 C-5.44562043 -0.73815498 -3.67334185 -0.89860263 0 0 Z " fill="#DADCDE" transform="translate(95.6875,291.75)"/>
<path d="M0 0 C-5.14285714 5.57142857 -5.14285714 5.57142857 -9 6 C-9 2 -9 2 -7.3125 0.1875 C-4.42050674 -1.29757762 -3.04794934 -0.93131785 0 0 Z " fill="#C4C4C6" transform="translate(244,276)"/>
<path d="M0 0 C4.62 0 9.24 0 14 0 C14 1.65 14 3.3 14 5 C12.35 5 10.7 5 9 5 C9 3.68 9 2.36 9 1 C6.03 1 3.06 1 0 1 C0 0.67 0 0.34 0 0 Z " fill="#967B6D" transform="translate(191,90)"/>
<path d="M0 0 C0.33 0 0.66 0 1 0 C1 1.65 1 3.3 1 5 C2.65 5.33 4.3 5.66 6 6 C6 7.32 6 8.64 6 10 C4.02 10 2.04 10 0 10 C0 6.7 0 3.4 0 0 Z " fill="#85AAC6" transform="translate(252,57)"/>
<path d="M0 0 C0.33 0.66 0.66 1.32 1 2 C3.97 2 6.94 2 10 2 C10 2.33 10 2.66 10 3 C7.03 3 4.06 3 1 3 C0.67 4.32 0.34 5.64 0 7 C0 5.68 0 4.36 0 3 C-5.61 3 -11.22 3 -17 3 C-17 2.67 -17 2.34 -17 2 C-11.39 2 -5.78 2 0 2 C0 1.34 0 0.68 0 0 Z " fill="#1E1E25" transform="translate(209,31)"/>
<path d="M0 0 C4.29 0 8.58 0 13 0 C8.25 4.875 8.25 4.875 6 6 C6 4.35 6 2.7 6 1 C4.02 1 2.04 1 0 1 C0 0.67 0 0.34 0 0 Z " fill="#353D46" transform="translate(243,262)"/>
<path d="M0 0 C1.65 0 3.3 0 5 0 C5 3.3 5 6.6 5 10 C4.67 10 4.34 10 4 10 C4 8.35 4 6.7 4 5 C2.68 5 1.36 5 0 5 C0 3.35 0 1.7 0 0 Z " fill="#9D8B86" transform="translate(210,238)"/>
<path d="M0 0 C2.97 0 5.94 0 9 0 C7.68 0.33 6.36 0.66 5 1 C5 2.32 5 3.64 5 5 C3.35 5 1.7 5 0 5 C0 3.35 0 1.7 0 0 Z " fill="#2B2E38" transform="translate(229,262)"/>
<path d="M0 0 C1.98 0 3.96 0 6 0 C6 1.98 6 3.96 6 6 C5.01 6.33 4.02 6.66 3 7 C3 5.68 3 4.36 3 3 C2.01 3 1.02 3 0 3 C0 2.01 0 1.02 0 0 Z " fill="#546570" transform="translate(97,26)"/>
<path d="M0 0 C1.65 0.33 3.3 0.66 5 1 C5 1.66 5 2.32 5 3 C5.66 3 6.32 3 7 3 C7 3.66 7 4.32 7 5 C2.545 5.495 2.545 5.495 -2 6 C-2 5.34 -2 4.68 -2 4 C-1.01 3.34 -0.02 2.68 1 2 C0.67 1.34 0.34 0.68 0 0 Z " fill="#F9F7F5" transform="translate(232,23)"/>
<path d="M0 0 C-0.33 0.99 -0.66 1.98 -1 3 C-4.3 3 -7.6 3 -11 3 C-11 2.34 -11 1.68 -11 1 C-7.26562152 0.12132271 -3.83225427 -0.08912219 0 0 Z " fill="#C0C0C2" transform="translate(193,298)"/>
<path d="M0 0 C2.97 0 5.94 0 9 0 C9 0.99 9 1.98 9 3 C6.03 3 3.06 3 0 3 C0 2.01 0 1.02 0 0 Z " fill="#141925" transform="translate(191,92)"/>
<path d="M0 0 C0.33 0 0.66 0 1 0 C1.05422947 1.4370809 1.09289723 2.87475462 1.125 4.3125 C1.14820313 5.11300781 1.17140625 5.91351563 1.1953125 6.73828125 C1 9 1 9 -1 12 C-2.1875 9.375 -2.1875 9.375 -3 6 C-1.625 2.625 -1.625 2.625 0 0 Z " fill="#D4E4F2" transform="translate(297,196)"/>
<path d="M0 0 C0.33 0 0.66 0 1 0 C1 3.3 1 6.6 1 10 C-0.65 10 -2.3 10 -4 10 C-4 8.68 -4 7.36 -4 6 C-2.68 6 -1.36 6 0 6 C0 4.02 0 2.04 0 0 Z " fill="#9F8070" transform="translate(252,109)"/>
<path d="M0 0 C1.65 0 3.3 0 5 0 C5 1.65 5 3.3 5 5 C3.35 5 1.7 5 0 5 C0 3.35 0 1.7 0 0 Z " fill="#2A2A31" transform="translate(100,267)"/>
<path d="M0 0 C0.598125 0.226875 1.19625 0.45375 1.8125 0.6875 C0.56703595 4.42389216 -0.82154953 4.87506513 -4.1875 6.6875 C-4.875 4.875 -4.875 4.875 -5.1875 2.6875 C-3.58493056 0.24147296 -2.95482043 -0.4221172 0 0 Z " fill="#BFC0C2" transform="translate(254.1875,265.3125)"/>
<path d="M0 0 C2.97 0 5.94 0 9 0 C9 0.33 9 0.66 9 1 C7.35 1 5.7 1 4 1 C4 2.32 4 3.64 4 5 C2.68 5 1.36 5 0 5 C0 3.35 0 1.7 0 0 Z " fill="#77B0E6" transform="translate(210,224)"/>
<path d="M0 0 C1.65 0 3.3 0 5 0 C5 1.65 5 3.3 5 5 C3.35 5 1.7 5 0 5 C0 3.35 0 1.7 0 0 Z " fill="#9F7A65" transform="translate(219,214)"/>
<path d="M0 0 C1.65 0 3.3 0 5 0 C5 1.65 5 3.3 5 5 C3.35 5 1.7 5 0 5 C0 3.35 0 1.7 0 0 Z " fill="#77B0EB" transform="translate(100,186)"/>
<path d="M0 0 C1.65 0 3.3 0 5 0 C5 1.65 5 3.3 5 5 C3.35 5 1.7 5 0 5 C0 3.35 0 1.7 0 0 Z " fill="#73AAE0" transform="translate(95,176)"/>
<path d="M0 0 C1.65 0 3.3 0 5 0 C5 1.65 5 3.3 5 5 C3.35 5 1.7 5 0 5 C0 3.35 0 1.7 0 0 Z " fill="#B4A59F" transform="translate(124,157)"/>
<path d="M0 0 C1.65 0 3.3 0 5 0 C5 1.65 5 3.3 5 5 C3.35 5 1.7 5 0 5 C0 3.35 0 1.7 0 0 Z " fill="#93C7F0" transform="translate(71,138)"/>
<path d="M0 0 C1.65 0 3.3 0 5 0 C5 1.65 5 3.3 5 5 C3.35 5 1.7 5 0 5 C0 3.35 0 1.7 0 0 Z " fill="#F1F1EF" transform="translate(262,138)"/>
<path d="M0 0 C1.65 0 3.3 0 5 0 C5 1.65 5 3.3 5 5 C3.35 5 1.7 5 0 5 C0 3.35 0 1.7 0 0 Z " fill="#B6A9A4" transform="translate(133,138)"/>
<path d="M0 0 C1.65 0 3.3 0 5 0 C5 1.65 5 3.3 5 5 C3.35 5 1.7 5 0 5 C0 3.35 0 1.7 0 0 Z " fill="#988E8A" transform="translate(162,124)"/>
<path d="M0 0 C1.65 0 3.3 0 5 0 C5 1.65 5 3.3 5 5 C3.35 5 1.7 5 0 5 C0 3.35 0 1.7 0 0 Z " fill="#24242C" transform="translate(162,114)"/>
<path d="M0 0 C1.65 0 3.3 0 5 0 C5 1.65 5 3.3 5 5 C3.35 5 1.7 5 0 5 C0 3.35 0 1.7 0 0 Z " fill="#B3A49E" transform="translate(219,105)"/>
<path d="M0 0 C1.65 0 3.3 0 5 0 C5 1.65 5 3.3 5 5 C3.35 5 1.7 5 0 5 C0 3.35 0 1.7 0 0 Z " fill="#2B2C34" transform="translate(124,100)"/>
<path d="M0 0 C1.65 0 3.3 0 5 0 C5 1.65 5 3.3 5 5 C3.35 5 1.7 5 0 5 C0 3.35 0 1.7 0 0 Z " fill="#9F8272" transform="translate(81,71)"/>
<path d="M0 0 C1.65 0 3.3 0 5 0 C5 1.65 5 3.3 5 5 C3.35 5 1.7 5 0 5 C0 3.35 0 1.7 0 0 Z " fill="#525D66" transform="translate(138,24)"/>
<path d="M0 0 C1.65 0 3.3 0 5 0 C5 1.65 5 3.3 5 5 C3.35 5 1.7 5 0 5 C0 3.35 0 1.7 0 0 Z " fill="#505E67" transform="translate(186,19)"/>
<path d="M0 0 C1.65 0 3.3 0 5 0 C5 1.65 5 3.3 5 5 C3.35 5 1.7 5 0 5 C0 3.35 0 1.7 0 0 Z " fill="#A18373" transform="translate(181,14)"/>
<path d="M0 0 C-0.33 0.99 -0.66 1.98 -1 3 C-6.94 2.01 -6.94 2.01 -13 1 C-13 0.67 -13 0.34 -13 0 C-8.34462607 -0.83796731 -4.62921525 -1.0161692 0 0 Z " fill="#B2B2B5" transform="translate(187,301)"/>
<path d="M0 0 C0.66 1.32 1.32 2.64 2 4 C-1.75 7 -1.75 7 -4 7 C-4.33 5.68 -4.66 4.36 -5 3 C-3.35 2.67 -1.7 2.34 0 2 C0 1.34 0 0.68 0 0 Z " fill="#B9B9BB" transform="translate(233,279)"/>
<path d="M0 0 C3.465 1.485 3.465 1.485 7 3 C6.67 3.99 6.34 4.98 6 6 C3.69 5.67 1.38 5.34 -1 5 C-0.67 3.35 -0.34 1.7 0 0 Z " fill="#CADFEE" transform="translate(275,234)"/>
<path d="M0 0 C1.32 0 2.64 0 4 0 C4 1.65 4 3.3 4 5 C2.35 5 0.7 5 -1 5 C-0.67 3.35 -0.34 1.7 0 0 Z " fill="#77422B" transform="translate(225,114)"/>
<path d="M0 0 C1.65 0 3.3 0 5 0 C4.67 1.65 4.34 3.3 4 5 C2.68 5 1.36 5 0 5 C0 3.35 0 1.7 0 0 Z " fill="#9C7B69" transform="translate(81,157)"/>
<path d="M0 0 C2.64 0 5.28 0 8 0 C8 0.99 8 1.98 8 3 C5.69 3 3.38 3 1 3 C0.67 2.01 0.34 1.02 0 0 Z " fill="#81462E" transform="translate(235,129)"/>
<path d="M0 0 C1.32 0 2.64 0 4 0 C4 1.65 4 3.3 4 5 C2.35 5 0.7 5 -1 5 C-0.67 3.35 -0.34 1.7 0 0 Z " fill="#EDEEEE" transform="translate(158,90)"/>
<path d="M0 0 C1.65 0 3.3 0 5 0 C5 1.65 5 3.3 5 5 C3.68 5 2.36 5 1 5 C0.67 3.35 0.34 1.7 0 0 Z " fill="#A28574" transform="translate(171,124)"/>
<path d="M0 0 C1.32 0.66 2.64 1.32 4 2 C1.64046906 4.35953094 0.22104383 4.49141413 -3 5 C-3 4.01 -3 3.02 -3 2 C-2.01 1.34 -1.02 0.68 0 0 Z " fill="#C4D8ED" transform="translate(60,29)"/>
<path d="M0 0 C1.32 0 2.64 0 4 0 C4 1.65 4 3.3 4 5 C2.68 5 1.36 5 0 5 C0 3.35 0 1.7 0 0 Z " fill="#7DBDF7" transform="translate(234,257)"/>
<path d="M0 0 C1.32 0 2.64 0 4 0 C4 1.65 4 3.3 4 5 C2.68 5 1.36 5 0 5 C0 3.35 0 1.7 0 0 Z " fill="#A58978" transform="translate(105,186)"/>
<path d="M0 0 C1.32 0 2.64 0 4 0 C4 1.65 4 3.3 4 5 C2.68 5 1.36 5 0 5 C0 3.35 0 1.7 0 0 Z " fill="#272328" transform="translate(96,171)"/>
<path d="M0 0 C1.65 0 3.3 0 5 0 C5 1.32 5 2.64 5 4 C3.35 4 1.7 4 0 4 C0 2.68 0 1.36 0 0 Z " fill="#A48877" transform="translate(100,167)"/>
<path d="M0 0 C1.32 0 2.64 0 4 0 C4 1.65 4 3.3 4 5 C2.68 5 1.36 5 0 5 C0 3.35 0 1.7 0 0 Z " fill="#A58470" transform="translate(86,162)"/>
<path d="M0 0 C1.65 0 3.3 0 5 0 C5 1.32 5 2.64 5 4 C3.35 4 1.7 4 0 4 C0 2.68 0 1.36 0 0 Z " fill="#F1F6F8" transform="translate(86,158)"/>
<path d="M0 0 C1.65 0 3.3 0 5 0 C5 1.32 5 2.64 5 4 C3.35 4 1.7 4 0 4 C0 2.68 0 1.36 0 0 Z " fill="#B9AEAA" transform="translate(195,134)"/>
<path d="M0 0 C1.65 0 3.3 0 5 0 C5 1.32 5 2.64 5 4 C3.35 4 1.7 4 0 4 C0 2.68 0 1.36 0 0 Z " fill="#BAB0AC" transform="translate(186,134)"/>
<path d="M0 0 C2.97 0 5.94 0 9 0 C8.01 1.485 8.01 1.485 7 3 C3.375 3.1875 3.375 3.1875 0 3 C0 2.01 0 1.02 0 0 Z " fill="#AE9B92" transform="translate(220,119)"/>
<path d="M0 0 C1.32 0 2.64 0 4 0 C4 1.65 4 3.3 4 5 C2.68 5 1.36 5 0 5 C0 3.35 0 1.7 0 0 Z " fill="#A9856F" transform="translate(268,114)"/>
<path d="M0 0 C1.32 0 2.64 0 4 0 C4 1.65 4 3.3 4 5 C2.68 5 1.36 5 0 5 C0 3.35 0 1.7 0 0 Z " fill="#B9A99E" transform="translate(253,100)"/>
<path d="M0 0 C1.65 0 3.3 0 5 0 C5 1.32 5 2.64 5 4 C3.35 4 1.7 4 0 4 C0 2.68 0 1.36 0 0 Z " fill="#F6F6F7" transform="translate(114,101)"/>
<path d="M0 0 C1.65 0 3.3 0 5 0 C5 1.32 5 2.64 5 4 C3.35 4 1.7 4 0 4 C0 2.68 0 1.36 0 0 Z " fill="#FBFCFB" transform="translate(124,96)"/>
<path d="M0 0 C1.65 0 3.3 0 5 0 C5 1.32 5 2.64 5 4 C3.35 4 1.7 4 0 4 C0 2.68 0 1.36 0 0 Z " fill="#F8FCFD" transform="translate(138,91)"/>
<path d="M0 0 C1.65 0 3.3 0 5 0 C5 1.32 5 2.64 5 4 C3.35 4 1.7 4 0 4 C0 2.68 0 1.36 0 0 Z " fill="#B29D92" transform="translate(181,82)"/>
<path d="M0 0 C1.65 0 3.3 0 5 0 C5 1.32 5 2.64 5 4 C3.35 4 1.7 4 0 4 C0 2.68 0 1.36 0 0 Z " fill="#63798D" transform="translate(253,67)"/>
<path d="M0 0 C1.32 0 2.64 0 4 0 C4 1.65 4 3.3 4 5 C2.68 5 1.36 5 0 5 C0 3.35 0 1.7 0 0 Z " fill="#79B4EA" transform="translate(105,38)"/>
<path d="M0 0 C1.65 0 3.3 0 5 0 C5 1.32 5 2.64 5 4 C3.35 4 1.7 4 0 4 C0 2.68 0 1.36 0 0 Z " fill="#28272F" transform="translate(119,29)"/>
<path d="M0 0 C1.65 0 3.3 0 5 0 C5 1.32 5 2.64 5 4 C3.35 4 1.7 4 0 4 C0 2.68 0 1.36 0 0 Z " fill="#9ACCF3" transform="translate(133,19)"/>
<path d="M0 0 C1.32 0 2.64 0 4 0 C4 1.65 4 3.3 4 5 C2.68 5 1.36 5 0 5 C0 3.35 0 1.7 0 0 Z " fill="#A68069" transform="translate(191,14)"/>
<path d="M0 0 C1.32 0 2.64 0 4 0 C4 1.65 4 3.3 4 5 C2.68 5 1.36 5 0 5 C0 3.35 0 1.7 0 0 Z " fill="#A98673" transform="translate(167,14)"/>
<path d="M0 0 C0 0.33 0 0.66 0 1 C-4.0527516 1.98248524 -7.83861737 2.08159574 -12 2 C-9.67178678 -2.65642643 -4.2230553 -0.62307373 0 0 Z " fill="#DEDEDF" transform="translate(185,303)"/>
<path d="M0 0 C1.65 0 3.3 0 5 0 C5.33 0.99 5.66 1.98 6 3 C4.02 3.33 2.04 3.66 0 4 C0 2.68 0 1.36 0 0 Z " fill="#2C2C34" transform="translate(229,276)"/>
</svg>
